<?xml version="1.0" encoding="UTF-8" standalone="no"?>
<!-- Created with Inkscape (http://www.inkscape.org/) -->

<svg
   width="605.64233"
   height="192.6929"
   viewBox="0 0 160.24286 50.98333"
   version="1.1"
   id="svg432"
   sodipodi:docname="Barre_composite.svg"
   inkscape:version="1.2.1 (8a69933317, 2022-10-28, custom)"
   xmlns:inkscape="http://www.inkscape.org/namespaces/inkscape"
   xmlns:sodipodi="http://sodipodi.sourceforge.net/DTD/sodipodi-0.dtd"
   xmlns="http://www.w3.org/2000/svg"
   xmlns:svg="http://www.w3.org/2000/svg">
  <sodipodi:namedview
     id="namedview434"
     pagecolor="#ffffff"
     bordercolor="#000000"
     borderopacity="0.25"
     inkscape:showpageshadow="2"
     inkscape:pageopacity="0.0"
     inkscape:pagecheckerboard="0"
     inkscape:deskcolor="#d1d1d1"
     inkscape:document-units="px"
     showgrid="false"
     inkscape:zoom="0.70710678"
     inkscape:cx="196.57569"
     inkscape:cy="181.72644"
     inkscape:window-width="1366"
     inkscape:window-height="704"
     inkscape:window-x="0"
     inkscape:window-y="27"
     inkscape:window-maximized="1"
     inkscape:current-layer="layer1" />
  <defs
     id="defs429" />
  <g
     inkscape:label="Layer 1"
     inkscape:groupmode="layer"
     id="layer1"
     transform="translate(-38.152003,-120.05917)">
    <ellipse
       style="fill:none;stroke:#000000;stroke-width:0.529167;stroke-linecap:square;stroke-dasharray:none"
       id="path184"
       cx="69.035652"
       cy="152.54901"
       rx="7.2133503"
       ry="18.219995" />
    <path
       style="fill:none;stroke:#000000;stroke-width:0.529167;stroke-linecap:square;stroke-dasharray:none"
       d="M 69.035646,134.32903 H 168.99134"
       id="path954"
       sodipodi:nodetypes="cc" />
    <path
       style="fill:none;stroke:#000000;stroke-width:0.529167;stroke-linecap:square;stroke-dasharray:none"
       d="M 69.035646,170.76902 H 168.99134"
       id="path956"
       sodipodi:nodetypes="cc" />
    <g
       id="g974"
       transform="translate(26.469695)">
      <path
         id="ellipse844"
         style="color:#000000;fill:#000000;stroke-linecap:square"
         d="m 142.95997,134.09905 v 0.53537 c 0.74279,0.1298 1.46518,0.57117 2.15335,1.30638 0.83013,0.88687 1.59598,2.19534 2.24018,3.82251 1.2884,3.25433 2.09341,7.78174 2.09341,12.78475 0,5.00299 -0.80501,9.533 -2.09341,12.78733 -0.6442,1.62717 -1.41005,2.93357 -2.24018,3.82044 -0.68816,0.7352 -1.41057,1.17766 -2.15335,1.30793 v 0.53382 c 0.91347,-0.1342 1.77227,-0.66044 2.53989,-1.48053 0.89586,-0.95709 1.68445,-2.31632 2.3456,-3.98632 1.32232,-3.34 2.13113,-7.92307 2.13113,-12.98267 0,-5.05962 -0.80881,-9.6401 -2.13113,-12.98009 -0.66115,-1.67 -1.44974,-3.0313 -2.3456,-3.98839 -0.76762,-0.82009 -1.62642,-1.34633 -2.53989,-1.48053 z" />
      <path
         id="ellipse1684"
         style="color:#000000;fill:#000000;stroke-linecap:square;stroke-dasharray:1.05833, 1.05833"
         d="m 142.40031,134.05616 -0.26355,0.0295 -0.0413,0.004 h -0.002 c -0.36765,0.0469 -0.7233,0.15865 -1.05265,0.31626 l -0.23822,0.11369 0.22841,0.47852 0.23822,-0.11524 c 0.28164,-0.13477 0.58185,-0.2283 0.88677,-0.26768 l 0.0393,-0.004 0.26355,-0.0289 z m 0.55966,0.29869 -0.0636,0.25787 0.0636,0.0155 z m -2.65359,0.49041 -0.20515,0.16795 -0.0878,0.0724 -0.1757,0.15399 -0.17209,0.1664 -0.16794,0.17363 -0.16795,0.18552 -0.0176,0.0217 -0.17157,0.20102 0.40411,0.34159 0.17002,-0.20103 0.0134,-0.0155 0.15452,-0.17208 0.15606,-0.1602 0.15813,-0.15244 0.16019,-0.14056 0.0801,-0.0661 0.20309,-0.16795 z m -1.50792,1.58388 -0.14624,0.22066 -0.11731,0.17208 -0.15037,0.23823 -0.14832,0.24598 -0.14469,0.2558 -0.006,0.01 -0.12713,0.23254 0.46457,0.25374 0.12713,-0.23255 0.002,-0.006 0.14056,-0.24598 0.14263,-0.23461 0.14263,-0.22841 0.11317,-0.16588 0.14624,-0.22066 z m -1.08779,1.86139 -0.1111,0.24029 -0.0625,0.13074 -0.13126,0.29508 -0.12867,0.30282 -0.10335,0.25373 -0.0997,0.24598 0.49041,0.19947 0.0992,-0.24649 0.1018,-0.2496 0.12506,-0.29507 0.12661,-0.28526 0.061,-0.12867 0.11111,-0.23823 z m -0.82217,1.97869 -0.0879,0.24804 -0.008,0.0233 -0.11317,0.3359 -0.10955,0.34572 -0.0956,0.31419 -0.076,0.25425 0.50592,0.15244 0.076,-0.25218 0.0956,-0.31264 0.10749,-0.3359 0.11162,-0.33176 0.006,-0.0176 0.0878,-0.25011 z m -0.63303,2.0407 -0.0662,0.2558 -0.0253,0.0977 -0.092,0.37517 -0.0899,0.38292 -0.0408,0.18345 -0.0568,0.25993 0.51573,0.11318 0.0589,-0.25787 0.0388,-0.18138 0.0879,-0.37517 0.092,-0.36897 0.0233,-0.094 0.0687,-0.2558 z m -0.48008,2.07998 -0.0491,0.262 -0.0641,0.3514 -0.0724,0.41031 -0.045,0.2868 -0.0429,0.25993 0.52297,0.0842 0.0413,-0.25993 0.047,-0.28319 0.0682,-0.40411 0.0661,-0.34985 0.047,-0.25993 z m -0.35191,2.10374 -0.0331,0.26149 -0.045,0.34416 -0.0506,0.4315 -0.0294,0.28112 -0.0295,0.26355 0.52762,0.0569 0.0274,-0.26352 0.031,-0.2775 0.0491,-0.42788 0.0444,-0.33952 0.0336,-0.26406 z m -0.23823,2.11719 -0.0196,0.26355 -0.0331,0.42995 -0.0295,0.45475 -0.01,0.1757 -0.0134,0.26407 0.5271,0.0289 0.0155,-0.26355 0.0103,-0.17364 0.0289,-0.44751 0.0315,-0.42943 0.0212,-0.26355 z m -0.13074,2.12287 -0.008,0.26407 -0.006,0.14211 -0.0119,0.46715 -0.006,0.45475 -0.004,0.26407 0.52917,0.008 0.004,-0.26355 0.006,-0.4532 0.0119,-0.46095 0.004,-0.1385 0.01,-0.26561 z m 0.49402,2.12132 -0.52916,0.008 0.004,0.26406 0.006,0.36484 0.0119,0.46716 0.008,0.23202 0.0103,0.26407 0.52916,-0.0176 -0.01,-0.26562 -0.008,-0.22892 -0.0114,-0.46096 -0.006,-0.36328 z m 0.0646,2.10529 -0.52917,0.0295 0.0155,0.26355 0.004,0.0858 0.0289,0.45321 0.0351,0.44958 0.006,0.0739 0.0233,0.26355 0.52762,-0.045 -0.0238,-0.26355 -0.006,-0.0724 -0.0331,-0.44338 -0.0295,-0.447 -0.006,-0.0842 z m 0.1602,2.096 -0.52762,0.0563 0.0294,0.26355 0.0196,0.18965 0.0506,0.43357 0.0568,0.42788 v 0.008 l 0.0367,0.262 0.52348,-0.0724 -0.0367,-0.262 v -0.006 l -0.0548,-0.4222 -0.0491,-0.42736 -0.0212,-0.18759 z m 0.26561,2.08566 -0.52348,0.0842 0.0429,0.26149 0.0315,0.1974 0.0718,0.40824 0.0744,0.40411 0.008,0.0413 0.0512,0.25941 0.51935,-0.10128 -0.0507,-0.25994 -0.008,-0.0393 -0.0739,-0.39636 -0.0687,-0.40411 -0.031,-0.19327 z m 0.38086,2.06654 -0.51573,0.11317 0.0568,0.25994 0.0212,0.0956 0.0899,0.38085 0.092,0.37672 0.0486,0.18397 0.0667,0.2558 0.51159,-0.13281 -0.0667,-0.2558 -0.0465,-0.1819 -0.092,-0.36897 -0.0879,-0.37517 -0.0196,-0.0935 z m 0.51159,2.03295 -0.50798,0.15245 0.0785,0.25425 0.0682,0.22841 0.10903,0.34364 0.11369,0.33797 0.0367,0.10749 0.0879,0.24959 0.50023,-0.1757 -0.0878,-0.25011 -0.0351,-0.10335 -0.11162,-0.33022 -0.10697,-0.33744 -0.0687,-0.2248 z m 0.66611,1.98283 -0.49041,0.19895 0.0997,0.24443 0.0703,0.17157 0.12867,0.30282 0.13126,0.29507 0.0992,0.21291 0.11369,0.2403 0.47852,-0.2248 -0.11162,-0.24029 -0.0997,-0.20878 -0.12661,-0.28732 -0.12506,-0.293 -0.0682,-0.16795 z m 0.863,1.89239 -0.45889,0.26148 0.13074,0.23048 0.10387,0.1819 0.14832,0.24805 0.15037,0.23616 0.15452,0.23047 0.0176,0.0233 0.15244,0.21497 0.4315,-0.30437 -0.15245,-0.21704 -0.0139,-0.0176 -0.14624,-0.21859 -0.14263,-0.22686 -0.14263,-0.23616 -0.10128,-0.1757 z m 1.1312,1.71876 -0.39068,0.35346 0.1757,0.19741 0.12093,0.13281 0.16794,0.17363 0.17209,0.16433 0.1757,0.15606 0.15813,0.12868 0.20308,0.16795 0.3359,-0.40773 -0.20464,-0.16795 -0.14883,-0.12351 -0.16019,-0.14211 -0.15813,-0.15089 -0.15606,-0.16175 -0.11318,-0.12506 z m 1.5136,1.30638 -0.21704,0.48265 0.24029,0.10956 c 0.15144,0.068 0.30774,0.12334 0.46716,0.1695 h 0.002 c 0.20671,0.0594 0.4205,0.10221 0.63872,0.11937 l 0.26407,0.0196 0.0408,-0.52762 -0.26355,-0.0191 c -0.17831,-0.014 -0.35792,-0.0494 -0.5333,-0.0997 h -0.002 c -0.13507,-0.0392 -0.26805,-0.0892 -0.39636,-0.14676 z" />
    </g>
    <g
       id="path2024"
       transform="translate(8.736121,48.106882)">
      <path
         style="color:#000000;fill:#000000;stroke-linecap:square"
         d="m 29.416016,85.425781 v 0.529297 h 0.263671 20.535157 l 8.359375,13.144531 0.140625,0.222657 0.447265,-0.283204 -0.142578,-0.222656 -8.513672,-13.390625 H 29.679687 Z"
         id="path3478" />
      <g
         id="g3470">
        <path
           style="color:#000000;fill:#000000"
           d="m 59.097656,96.820312 -0.429687,1.933594 -1.933594,-0.429687 -0.115234,0.515625 2.449218,0.544922 0.544922,-2.449219 z"
           id="path3472" />
      </g>
    </g>
    <g
       aria-label="T1"
       id="text2323"
       style="font-size:5.64444px;font-family:Montserrat;-inkscape-font-specification:Montserrat;stroke-width:0.529168;stroke-linecap:square">
      <path
         d="m 39.540535,133.0029 v -3.58986 h -1.388532 v -0.36125 h 3.194753 v 0.36125 h -1.388532 v 3.58986 z"
         id="path374" />
      <path
         d="m 42.007717,134.13179 v -2.45816 l 0.117404,0.12475 H 41.40235 v -0.23481 h 0.869526 v 2.56822 z"
         id="path376" />
    </g>
    <g
       id="path2406"
       transform="matrix(1.3539032,0,0,1,-7.2330666,48.106882)"
       style="stroke-width:0.859422">
      <path
         style="color:#000000;fill:#4d4d4d;stroke-width:0.859422;stroke-linecap:square;stroke-dasharray:1.81911, 0.454777, 0.227389, 0.454777"
         d="m 45.123047,104.31055 v 0.26367 h 0.132812 2.115235 0.132812 v -0.26367 h -0.132812 -2.115235 z m 2.646484,0 v 0.26367 h 0.13086 0.265625 0.132812 v -0.26367 h -0.132812 -0.265625 z m 0.792969,0 v 0.26367 h 0.132812 2.117188 0.130859 v -0.26367 H 50.8125 48.695312 Z m 2.646484,0 v 0.26367 h 0.13086 0.265625 0.132812 v -0.26367 h -0.132812 -0.265625 z m 0.792969,0 v 0.26367 h 0.132813 2.117187 0.130859 v -0.26367 h -0.130859 -2.117187 z m 2.646484,0 v 0.26367 h 0.132813 0.263672 0.132812 v -0.26367 H 55.044922 54.78125 Z m 0.792969,0 v 0.26367 h 0.132813 2.117187 0.13086 v -0.26367 h -0.13086 -2.117187 z m 2.646485,0 v 0.26367 h 0.132812 0.263672 0.132812 v -0.26367 h -0.132812 -0.263672 z m 0.792968,0 v 0.26367 h 0.132813 2.117187 0.13086 v -0.26367 h -0.13086 -2.117187 z m 2.646485,0 v 0.26367 h 0.132812 0.263672 0.132813 v -0.26367 h -0.132813 -0.263672 z m 0.792968,0 v 0.26367 h 0.132813 2.117187 0.132813 v -0.26367 h -0.132813 -2.117187 z m 2.646485,0 v 0.26367 h 0.132812 0.263672 0.132813 v -0.26367 h -0.132813 -0.263672 z m 0.792969,0 v 0.26367 h 0.132812 2.117188 0.132812 v -0.26367 h -0.132812 -2.117188 z m 2.646484,0 v 0.26367 h 0.132812 0.263672 0.132813 v -0.26367 h -0.132813 -0.263672 z m 0.792969,0 v 0.26367 h 0.132812 2.117188 0.132812 v -0.26367 h -0.132812 -2.117188 z m 2.646484,0 v 0.26367 h 0.132813 0.263671 0.132813 v -0.26367 h -0.132813 -0.263671 z m 0.792969,0 v 0.26367 h 0.132812 2.117188 0.132812 v -0.26367 h -0.132812 -2.117188 z m 2.646484,0 v 0.26367 h 0.132813 0.263672 0.132812 v -0.26367 h -0.132812 -0.263672 z m 0.794922,0 v 0.26367 h 0.130859 2.117188 0.132812 v -0.26367 h -0.132812 -2.117188 z m 2.644531,0 v 0.26367 h 0.132813 0.263672 0.132812 v -0.26367 h -0.132812 -0.263672 z m 0.794922,0 v 0.26367 h 0.13086 2.117187 0.132813 v -0.26367 h -0.132813 -2.117187 z m 2.644531,0 v 0.26367 h 0.132813 0.263672 0.132812 v -0.26367 h -0.132812 -0.263672 z m 0.794922,0 v 0.26367 h 0.13086 2.117187 0.132813 v -0.26367 h -0.132813 -2.117187 z m 2.644532,0 v 0.26367 h 0.132812 0.265625 0.130859 v -0.26367 h -0.130859 -0.265625 z m 0.794921,0 v 0.26367 h 0.13086 2.117187 0.132813 v -0.26367 h -0.132813 -2.117187 z m 2.644532,0 v 0.26367 h 0.132812 0.265625 0.13086 v -0.26367 h -0.13086 -0.265625 z m 0.794922,0 v 0.26367 h 0.132812 2.115234 0.132813 v -0.26367 h -0.132813 -2.115234 z m 2.644531,0 v 0.26367 h 0.132812 0.265625 0.13086 v -0.26367 h -0.13086 -0.265625 z m 0.794922,0 v 0.26367 h 0.132812 2.115235 0.132812 v -0.26367 h -0.132812 -2.115235 z m 2.646484,0 v 0.26367 h 0.130859 0.265625 0.13086 v -0.26367 h -0.13086 -0.265625 z m 0.792969,0 v 0.26367 h 0.132812 2.115235 0.132812 v -0.26367 h -0.132812 -2.115235 z m 2.646484,0 v 0.26367 h 0.13086 0.265625 0.132812 v -0.26367 h -0.132812 -0.265625 z m 0.792969,0 v 0.26367 h 0.13281 2.11524 0.13281 v -0.26367 h -0.13281 -2.11524 z m 2.64648,0 v 0.26367 h 0.13086 0.26563 0.13281 v -0.26367 h -0.13281 -0.26563 z m 0.79297,0 v 0.26367 h 0.13282 2.11718 0.13086 v -0.26367 h -0.13086 -2.11718 z m 2.64649,0 v 0.26367 h 0.13086 0.26562 0.13281 v -0.26367 h -0.13281 -0.26562 z m 0.79297,0 v 0.26367 h 0.13281 2.11719 0.13086 v -0.26367 h -0.13086 -2.11719 z m 2.64648,0 v 0.26367 h 0.13281 0.26368 0.13281 v -0.26367 h -0.13281 -0.26368 z m 0.79297,0 v 0.26367 h 0.13281 2.11719 0.13086 v -0.26367 h -0.13086 -2.11719 z m 2.64648,0 v 0.26367 h 0.13282 0.26367 0.13281 v -0.26367 h -0.13281 -0.26367 z m 0.79297,0 v 0.26367 h 0.13282 2.11718 0.13086 v -0.26367 h -0.13086 -2.11718 z m 2.64649,0 v 0.26367 h 0.13281 0.26367 0.13281 v -0.26367 h -0.13281 -0.26367 z m 0.79297,0 v 0.26367 h 0.13281 2.11719 0.13281 v -0.26367 h -0.13281 -2.11719 z m 2.64648,0 v 0.26367 h 0.13281 0.26367 0.13282 v -0.26367 h -0.13282 -0.26367 z m 0.79297,0 v 0.26367 h 0.13281 2.11719 0.13281 v -0.26367 h -0.13281 -2.11719 z m 2.64648,0 v 0.26367 h 0.13282 0.26367 0.13281 v -0.26367 h -0.13281 -0.26367 z m 0.79297,0 v 0.26367 h 0.13281 2.11719 0.13281 v -0.26367 h -0.13281 -2.11719 z m 2.64649,0 v 0.26367 h 0.13281 0.26367 0.13281 v -0.26367 h -0.13281 -0.26367 z m 0.79297,0 v 0.26367 h 0.13281 2.11718 0.13282 v -0.26367 h -0.13282 -2.11718 z m 2.64648,0 v 0.26367 h 0.13281 0.26367 0.13282 v -0.26367 h -0.13282 -0.26367 z m 0.79492,0 v 0.26367 h 0.13086 2.11719 0.13281 v -0.26367 h -0.13281 -2.11719 z m 2.64453,0 v 0.26367 h 0.13281 0.26368 0.13281 v -0.26367 h -0.13281 -0.26368 z m 0.79492,0 v 0.26367 h 0.13086 2.11719 0.13281 v -0.26367 h -0.13281 -2.11719 z m 2.64454,0 v 0.26367 h 0.13281 0.26367 0.13281 v -0.26367 h -0.13281 -0.26367 z m 0.79492,0 v 0.26367 h 0.13086 2.11718 0.13282 v -0.26367 h -0.13282 -2.11718 z m 2.64453,0 v 0.26367 h 0.13281 0.26563 0.13086 v -0.26367 h -0.13086 -0.26563 z m 0.79492,0 v 0.26367 h 0.13086 2.11719 0.13281 v -0.26367 h -0.13281 -2.11719 z m 2.64453,0 v 0.26367 h 0.13281 0.26563 0.13086 v -0.26367 h -0.13086 -0.26563 z m 0.79492,0 v 0.26367 h 0.13282 2.11523 0.13281 v -0.26367 h -0.13281 -2.11523 z m 2.64453,0 v 0.26367 h 0.13282 0.26562 0.13086 v -0.26367 h -0.13086 -0.26562 z m 0.79493,0 v 0.26367 h 0.13281 0.52344 0.13281 v -0.26367 h -0.13281 -0.52344 z"
         id="path3314" />
      <g
         id="g3306"
         style="stroke-width:0.859422">
        <path
           style="color:#000000;fill:#4d4d4d;stroke-width:0.859422"
           d="m 148.33398,103.55469 -0.1875,0.1875 0.69922,0.69922 -0.69922,0.70117 0.1875,0.1875 0.88672,-0.88867 z"
           id="path3308" />
      </g>
    </g>
    <g
       aria-label="x"
       id="text2508"
       style="font-size:5.64444px;font-family:Montserrat;-inkscape-font-specification:Montserrat;stroke-width:0.264583;stroke-linecap:square;stroke-dasharray:2.11666, 0.529167, 0.264583, 0.529167">
      <path
         d="m 193.73319,151.13255 1.25307,-1.6256 -0.006,0.19756 -1.19098,-1.53529 h 0.45156 l 0.97649,1.27 -0.16934,-0.006 0.97649,-1.26436 h 0.44027 l -1.20227,1.55222 0.006,-0.21449 1.26435,1.6256 h -0.4572 l -1.03293,-1.35466 0.15804,0.0226 -1.01599,1.33208 z"
         id="path383" />
    </g>
    <g
       id="path2560"
       transform="translate(35.283536,48.106882)">
      <path
         style="color:#000000;fill:#000000;stroke-linecap:square"
         d="m 144.35937,90.353516 -9.5039,5.488281 -0.23047,0.132812 0.26562,0.458985 0.22852,-0.132813 9.38281,-5.417969 h 18.34571 0.26367 v -0.529296 h -0.26367 z"
         id="path3496" />
      <g
         id="g3488">
        <path
           style="color:#000000;fill:#000000"
           d="m 135.19727,93.900391 -0.64844,2.423828 2.42383,0.65039 0.13671,-0.511718 -1.9121,-0.511719 0.51171,-1.914063 z"
           id="path3490" />
      </g>
    </g>
    <g
       aria-label="T2"
       id="text2628"
       style="font-size:5.64444px;font-family:Montserrat;-inkscape-font-specification:Montserrat;stroke-width:0.529167;stroke-linecap:square">
      <path
         d="m 193.48983,137.93216 v -3.58986 h -1.38853 v -0.36125 h 3.19475 v 0.36125 h -1.38853 v 3.58986 z"
         id="path388" />
      <path
         d="m 195.46171,139.06105 v -0.18712 l 1.06765,-1.04563 q 0.14675,-0.14308 0.22013,-0.24948 0.0734,-0.11007 0.0991,-0.20546 0.0257,-0.0954 0.0257,-0.17978 0,-0.2238 -0.15409,-0.35221 -0.15042,-0.12841 -0.4476,-0.12841 -0.22748,0 -0.40358,0.0697 -0.17244,0.0697 -0.29718,0.21646 l -0.18711,-0.16143 q 0.15042,-0.1761 0.38523,-0.2715 0.23481,-0.0954 0.52465,-0.0954 0.26049,0 0.45127,0.0844 0.19078,0.0807 0.29351,0.23848 0.1064,0.15776 0.1064,0.37055 0,0.12475 -0.0367,0.24582 -0.033,0.12107 -0.12474,0.25682 -0.088,0.13208 -0.26049,0.30085 l -0.97959,0.96125 -0.0734,-0.10273 h 1.5923 v 0.23481 z"
         id="path390" />
    </g>
    <g
       aria-label="T1 &gt; T2"
       id="text2632"
       style="font-size:5.64444px;font-family:Montserrat;-inkscape-font-specification:Montserrat;stroke-width:0.529167;stroke-linecap:square">
      <path
         d="m 100.18546,162.29744 v -3.58986 h -1.388529 v -0.36125 h 3.194749 v 0.36125 h -1.38853 v 3.58986 z"
         id="path397" />
      <path
         d="m 102.65264,163.42633 v -2.45816 l 0.11741,0.12475 h -0.72277 v -0.23481 h 0.86952 v 2.56822 z"
         id="path399" />
      <path
         d="m 105.21267,161.49028 v -0.34995 l 2.30857,-0.90876 v 0.18063 l -2.30857,-0.90876 v -0.34995 l 2.45533,0.98213 v 0.37253 z"
         id="path401" />
      <path
         d="m 110.95305,162.29744 v -3.58986 h -1.38853 v -0.36125 h 3.19475 v 0.36125 h -1.38853 v 3.58986 z"
         id="path403" />
      <path
         d="m 112.92493,163.42633 v -0.18712 l 1.06765,-1.04563 q 0.14676,-0.14308 0.22013,-0.24948 0.0734,-0.11007 0.0991,-0.20546 0.0257,-0.0954 0.0257,-0.17978 0,-0.2238 -0.1541,-0.35221 -0.15042,-0.12841 -0.4476,-0.12841 -0.22747,0 -0.40358,0.0697 -0.17244,0.0697 -0.29718,0.21646 l -0.18711,-0.16143 q 0.15042,-0.1761 0.38523,-0.27149 0.23481,-0.0954 0.52465,-0.0954 0.26049,0 0.45127,0.0844 0.19079,0.0807 0.29352,0.23848 0.10639,0.15776 0.10639,0.37055 0,0.12475 -0.0367,0.24582 -0.033,0.12107 -0.12474,0.25682 -0.088,0.13208 -0.26049,0.30085 l -0.97959,0.96125 -0.0734,-0.10273 h 1.5923 v 0.23481 z"
         id="path405" />
    </g>
    <g
       id="path2732"
       transform="matrix(1.5466307,0,0,1.5466307,-43.308355,-30.111311)"
       style="stroke-width:0.646567">
      <path
         style="color:#000000;fill:#000000;stroke-width:0.513212;stroke-linecap:square"
         d="M 91.715933,118.187 H 101.98258"
         id="path3300" />
      <path
         style="color:#000000;fill:#ff0000;stroke-width:0.646567;stroke-linecap:square"
         d="m 91.318359,117.79102 v 0.79296 h 0.398438 10.265623 0.39649 v -0.79296 h -0.39649 -10.265623 z"
         id="path3302" />
      <g
         id="g3292"
         style="stroke-width:0.646567">
        <path
           style="color:#000000;fill:#ff0000;stroke-width:0.646567"
           d="m 100.08008,115.52539 -0.560549,0.56055 2.101559,2.10156 -2.101559,2.09961 0.560549,0.5625 2.66211,-2.66211 z"
           id="path3294" />
      </g>
    </g>
    <g
       aria-label="ð“"
       id="text2788"
       style="font-size:8.8105px;font-family:Montserrat;-inkscape-font-specification:Montserrat;fill:#ff0000;stroke-width:0.79375;stroke-linecap:square">
      <path
         d="m 118.054,148.67833 c 1.37444,-0.0793 2.77531,-1.13655 2.77531,-2.6079 0,-1.05726 -0.89867,-1.64757 -1.87664,-1.68281 l 0.32599,-1.37444 h -0.2555 l -0.42291,1.37444 c -1.41849,0.0529 -2.96033,1.19823 -2.96033,2.71363 0,0.99559 0.81057,1.52422 1.72686,1.57708 l -0.5022,1.74448 h 0.81057 z m 1.51541,-3.17178 c 0,0.82819 -0.48458,2.81055 -1.47136,2.91628 l 0.81057,-3.78852 c 0.5022,0.0352 0.66079,0.42291 0.66079,0.87224 z m -1.04845,-0.87224 -1.07488,3.78852 c -0.43172,-0.044 -0.52863,-0.44934 -0.52863,-0.81938 0,-0.91629 0.47576,-2.88103 1.60351,-2.96914 z"
         id="path418" />
    </g>
    <g
       aria-label="L1"
       id="text1236"
       style="font-size:5.64444px;font-family:Montserrat;-inkscape-font-specification:Montserrat;stroke-width:0.529167;stroke-linecap:square">
      <path
         d="m 100.65196,124.01028 v -3.95111 h 0.41769 v 3.58986 h 2.21262 v 0.36125 z"
         id="path423" />
      <path
         d="m 103.97145,125.13916 v -2.45815 l 0.1174,0.12474 h -0.72277 v -0.23481 h 0.86953 v 2.56822 z"
         id="path425" />
    </g>
    <g
       id="g980"
       transform="translate(-7.1080486)">
      <path
         id="path976"
         style="color:#000000;fill:#000000;stroke-linecap:square"
         d="m 142.95997,134.09905 v 0.53537 c 0.74279,0.1298 1.46518,0.57117 2.15335,1.30638 0.83013,0.88687 1.59598,2.19534 2.24018,3.82251 1.2884,3.25433 2.09341,7.78174 2.09341,12.78475 0,5.00299 -0.80501,9.533 -2.09341,12.78733 -0.6442,1.62717 -1.41005,2.93357 -2.24018,3.82044 -0.68816,0.7352 -1.41057,1.17766 -2.15335,1.30793 v 0.53382 c 0.91347,-0.1342 1.77227,-0.66044 2.53989,-1.48053 0.89586,-0.95709 1.68445,-2.31632 2.3456,-3.98632 1.32232,-3.34 2.13113,-7.92307 2.13113,-12.98267 0,-5.05962 -0.80881,-9.6401 -2.13113,-12.98009 -0.66115,-1.67 -1.44974,-3.0313 -2.3456,-3.98839 -0.76762,-0.82009 -1.62642,-1.34633 -2.53989,-1.48053 z" />
      <path
         id="path978"
         style="color:#000000;fill:#000000;stroke-linecap:square;stroke-dasharray:1.05833, 1.05833"
         d="m 142.40031,134.05616 -0.26355,0.0295 -0.0413,0.004 h -0.002 c -0.36765,0.0469 -0.7233,0.15865 -1.05265,0.31626 l -0.23822,0.11369 0.22841,0.47852 0.23822,-0.11524 c 0.28164,-0.13477 0.58185,-0.2283 0.88677,-0.26768 l 0.0393,-0.004 0.26355,-0.0289 z m 0.55966,0.29869 -0.0636,0.25787 0.0636,0.0155 z m -2.65359,0.49041 -0.20515,0.16795 -0.0878,0.0724 -0.1757,0.15399 -0.17209,0.1664 -0.16794,0.17363 -0.16795,0.18552 -0.0176,0.0217 -0.17157,0.20102 0.40411,0.34159 0.17002,-0.20103 0.0134,-0.0155 0.15452,-0.17208 0.15606,-0.1602 0.15813,-0.15244 0.16019,-0.14056 0.0801,-0.0661 0.20309,-0.16795 z m -1.50792,1.58388 -0.14624,0.22066 -0.11731,0.17208 -0.15037,0.23823 -0.14832,0.24598 -0.14469,0.2558 -0.006,0.01 -0.12713,0.23254 0.46457,0.25374 0.12713,-0.23255 0.002,-0.006 0.14056,-0.24598 0.14263,-0.23461 0.14263,-0.22841 0.11317,-0.16588 0.14624,-0.22066 z m -1.08779,1.86139 -0.1111,0.24029 -0.0625,0.13074 -0.13126,0.29508 -0.12867,0.30282 -0.10335,0.25373 -0.0997,0.24598 0.49041,0.19947 0.0992,-0.24649 0.1018,-0.2496 0.12506,-0.29507 0.12661,-0.28526 0.061,-0.12867 0.11111,-0.23823 z m -0.82217,1.97869 -0.0879,0.24804 -0.008,0.0233 -0.11317,0.3359 -0.10955,0.34572 -0.0956,0.31419 -0.076,0.25425 0.50592,0.15244 0.076,-0.25218 0.0956,-0.31264 0.10749,-0.3359 0.11162,-0.33176 0.006,-0.0176 0.0878,-0.25011 z m -0.63303,2.0407 -0.0662,0.2558 -0.0253,0.0977 -0.092,0.37517 -0.0899,0.38292 -0.0408,0.18345 -0.0568,0.25993 0.51573,0.11318 0.0589,-0.25787 0.0388,-0.18138 0.0879,-0.37517 0.092,-0.36897 0.0233,-0.094 0.0687,-0.2558 z m -0.48008,2.07998 -0.0491,0.262 -0.0641,0.3514 -0.0724,0.41031 -0.045,0.2868 -0.0429,0.25993 0.52297,0.0842 0.0413,-0.25993 0.047,-0.28319 0.0682,-0.40411 0.0661,-0.34985 0.047,-0.25993 z m -0.35191,2.10374 -0.0331,0.26149 -0.045,0.34416 -0.0506,0.4315 -0.0294,0.28112 -0.0295,0.26355 0.52762,0.0569 0.0274,-0.26352 0.031,-0.2775 0.0491,-0.42788 0.0444,-0.33952 0.0336,-0.26406 z m -0.23823,2.11719 -0.0196,0.26355 -0.0331,0.42995 -0.0295,0.45475 -0.01,0.1757 -0.0134,0.26407 0.5271,0.0289 0.0155,-0.26355 0.0103,-0.17364 0.0289,-0.44751 0.0315,-0.42943 0.0212,-0.26355 z m -0.13074,2.12287 -0.008,0.26407 -0.006,0.14211 -0.0119,0.46715 -0.006,0.45475 -0.004,0.26407 0.52917,0.008 0.004,-0.26355 0.006,-0.4532 0.0119,-0.46095 0.004,-0.1385 0.01,-0.26561 z m 0.49402,2.12132 -0.52916,0.008 0.004,0.26406 0.006,0.36484 0.0119,0.46716 0.008,0.23202 0.0103,0.26407 0.52916,-0.0176 -0.01,-0.26562 -0.008,-0.22892 -0.0114,-0.46096 -0.006,-0.36328 z m 0.0646,2.10529 -0.52917,0.0295 0.0155,0.26355 0.004,0.0858 0.0289,0.45321 0.0351,0.44958 0.006,0.0739 0.0233,0.26355 0.52762,-0.045 -0.0238,-0.26355 -0.006,-0.0724 -0.0331,-0.44338 -0.0295,-0.447 -0.006,-0.0842 z m 0.1602,2.096 -0.52762,0.0563 0.0294,0.26355 0.0196,0.18965 0.0506,0.43357 0.0568,0.42788 v 0.008 l 0.0367,0.262 0.52348,-0.0724 -0.0367,-0.262 v -0.006 l -0.0548,-0.4222 -0.0491,-0.42736 -0.0212,-0.18759 z m 0.26561,2.08566 -0.52348,0.0842 0.0429,0.26149 0.0315,0.1974 0.0718,0.40824 0.0744,0.40411 0.008,0.0413 0.0512,0.25941 0.51935,-0.10128 -0.0507,-0.25994 -0.008,-0.0393 -0.0739,-0.39636 -0.0687,-0.40411 -0.031,-0.19327 z m 0.38086,2.06654 -0.51573,0.11317 0.0568,0.25994 0.0212,0.0956 0.0899,0.38085 0.092,0.37672 0.0486,0.18397 0.0667,0.2558 0.51159,-0.13281 -0.0667,-0.2558 -0.0465,-0.1819 -0.092,-0.36897 -0.0879,-0.37517 -0.0196,-0.0935 z m 0.51159,2.03295 -0.50798,0.15245 0.0785,0.25425 0.0682,0.22841 0.10903,0.34364 0.11369,0.33797 0.0367,0.10749 0.0879,0.24959 0.50023,-0.1757 -0.0878,-0.25011 -0.0351,-0.10335 -0.11162,-0.33022 -0.10697,-0.33744 -0.0687,-0.2248 z m 0.66611,1.98283 -0.49041,0.19895 0.0997,0.24443 0.0703,0.17157 0.12867,0.30282 0.13126,0.29507 0.0992,0.21291 0.11369,0.2403 0.47852,-0.2248 -0.11162,-0.24029 -0.0997,-0.20878 -0.12661,-0.28732 -0.12506,-0.293 -0.0682,-0.16795 z m 0.863,1.89239 -0.45889,0.26148 0.13074,0.23048 0.10387,0.1819 0.14832,0.24805 0.15037,0.23616 0.15452,0.23047 0.0176,0.0233 0.15244,0.21497 0.4315,-0.30437 -0.15245,-0.21704 -0.0139,-0.0176 -0.14624,-0.21859 -0.14263,-0.22686 -0.14263,-0.23616 -0.10128,-0.1757 z m 1.1312,1.71876 -0.39068,0.35346 0.1757,0.19741 0.12093,0.13281 0.16794,0.17363 0.17209,0.16433 0.1757,0.15606 0.15813,0.12868 0.20308,0.16795 0.3359,-0.40773 -0.20464,-0.16795 -0.14883,-0.12351 -0.16019,-0.14211 -0.15813,-0.15089 -0.15606,-0.16175 -0.11318,-0.12506 z m 1.5136,1.30638 -0.21704,0.48265 0.24029,0.10956 c 0.15144,0.068 0.30774,0.12334 0.46716,0.1695 h 0.002 c 0.20671,0.0594 0.4205,0.10221 0.63872,0.11937 l 0.26407,0.0196 0.0408,-0.52762 -0.26355,-0.0191 c -0.17831,-0.014 -0.35792,-0.0494 -0.5333,-0.0997 h -0.002 c -0.13507,-0.0392 -0.26805,-0.0892 -0.39636,-0.14676 z" />
    </g>
    <g
       id="path1132">
      <path
         style="color:#000000;fill:#000000;stroke-width:0.529167;stroke-linecap:square;-inkscape-stroke:none"
         d="M 69.035646,129.03736 H 135.85192"
         id="path2595" />
      <path
         style="color:#000000;fill:#000000;stroke-linecap:square;-inkscape-stroke:none"
         d="m 68.771484,128.77344 v 0.52929 h 0.263672 66.816404 0.26563 v -0.52929 h -0.26563 -66.816404 z"
         id="path2597" />
      <g
         id="g2581">
        <path
           style="color:#000000;fill:#000000;-inkscape-stroke:none"
           d="m 134.58398,127.26367 -0.375,0.37305 1.40039,1.40039 -1.40039,1.40039 0.375,0.375 1.77344,-1.77539 z"
           id="path2589" />
        <path
           style="color:#000000;fill:#000000;-inkscape-stroke:none"
           d="m 69.796875,127.26367 0.375,0.37305 -1.400391,1.40039 1.400391,1.40039 -0.375,0.375 -1.775391,-1.77539 z"
           id="path2583" />
      </g>
    </g>
    <g
       id="path1959">
      <path
         style="color:#000000;fill:#000000;stroke-width:0.529167;stroke-linecap:square;-inkscape-stroke:none"
         d="m 136.88375,129.03736 h 32.54592"
         id="path2615" />
      <path
         style="color:#000000;fill:#000000;stroke-linecap:square;-inkscape-stroke:none"
         d="m 136.61914,128.77344 v 0.52929 h 0.26367 32.54688 0.26367 v -0.52929 h -0.26367 -32.54688 z"
         id="path2617" />
      <g
         id="g2601">
        <path
           style="color:#000000;fill:#000000;-inkscape-stroke:none"
           d="m 168.16211,127.26367 -0.375,0.37305 1.40039,1.40039 -1.40039,1.40039 0.375,0.375 1.77344,-1.77539 z"
           id="path2609" />
        <path
           style="color:#000000;fill:#000000;-inkscape-stroke:none"
           d="m 138.15033,127.26367 0.37304,0.37305 -1.39843,1.40039 1.39843,1.40039 -0.37304,0.375 -1.77539,-1.77539 z"
           id="path2603" />
      </g>
    </g>
    <g
       aria-label="L2"
       id="text2227"
       style="font-size:5.64444px;font-family:Montserrat;-inkscape-font-specification:Montserrat;stroke-width:0.529167;stroke-linecap:square">
      <path
         d="m 151.36489,124.01028 v -3.95111 h 0.41769 v 3.58986 h 2.21262 v 0.36125 z"
         id="path432" />
      <path
         d="m 154.18908,125.13916 v -0.18711 l 1.06764,-1.04563 q 0.14676,-0.14309 0.22013,-0.24949 0.0734,-0.11006 0.0991,-0.20545 0.0257,-0.0954 0.0257,-0.17978 0,-0.2238 -0.1541,-0.35221 -0.15042,-0.12841 -0.4476,-0.12841 -0.22747,0 -0.40358,0.0697 -0.17244,0.0697 -0.29718,0.21646 l -0.18711,-0.16143 q 0.15042,-0.17611 0.38523,-0.2715 0.23481,-0.0954 0.52465,-0.0954 0.26049,0 0.45128,0.0844 0.19078,0.0807 0.29351,0.23847 0.10639,0.15777 0.10639,0.37056 0,0.12474 -0.0367,0.24582 -0.033,0.12107 -0.12475,0.25682 -0.088,0.13208 -0.26049,0.30085 l -0.97959,0.96124 -0.0734,-0.10272 h 1.5923 v 0.2348 z"
         id="path434" />
    </g>
    <g
       aria-label="ðœ†1"
       id="text2502"
       style="font-size:5.64444px;font-family:Montserrat;-inkscape-font-specification:Montserrat;stroke-width:0.529167;stroke-linecap:square">
      <path
         d="m 84.287141,141.77609 -0.124178,-0.0452 c -0.03387,0.079 -0.09031,0.36124 -0.327377,0.36124 -0.242711,0 -0.265289,-0.31609 -0.276578,-0.63782 l -0.05644,-1.93604 c -0.01129,-0.38382 -0.05645,-0.90311 -0.479778,-0.90311 -0.355599,0 -0.457199,0.44591 -0.49671,0.73942 l 0.118533,0.0395 c 0.06209,-0.28222 0.2032,-0.36689 0.3556,-0.36689 0.265288,0 0.333022,0.31045 0.333022,0.65476 0,0.079 -0.0056,0.1524 -0.0056,0.2032 l -1.625599,2.55693 h 0.553156 l 1.10631,-1.75542 h 0.01129 v 1.14582 c 0,0.24835 0.01693,0.67169 0.366888,0.67169 0.3048,0 0.491067,-0.44591 0.547511,-0.72814 z"
         id="path441" />
      <path
         d="m 85.156943,143.57103 v -2.45816 l 0.117405,0.12475 h -0.722771 v -0.23481 h 0.869526 v 2.56822 z"
         id="path443" />
    </g>
    <g
       aria-label="ðœ†2"
       id="text2511"
       style="font-size:5.64444px;font-family:Montserrat;-inkscape-font-specification:Montserrat;stroke-width:0.529167;stroke-linecap:square">
      <path
         d="m 152.53495,141.77609 -0.12418,-0.0452 c -0.0339,0.079 -0.0903,0.36124 -0.32737,0.36124 -0.24271,0 -0.26529,-0.31609 -0.27658,-0.63782 l -0.0564,-1.93604 c -0.0113,-0.38382 -0.0564,-0.90311 -0.47977,-0.90311 -0.3556,0 -0.4572,0.44591 -0.49671,0.73942 l 0.11853,0.0395 c 0.0621,-0.28222 0.2032,-0.36689 0.3556,-0.36689 0.26529,0 0.33302,0.31045 0.33302,0.65476 0,0.079 -0.006,0.1524 -0.006,0.2032 l -1.6256,2.55693 h 0.55315 l 1.10631,-1.75542 h 0.0113 v 1.14582 c 0,0.24835 0.0169,0.67169 0.36689,0.67169 0.3048,0 0.49107,-0.44591 0.54751,-0.72814 z"
         id="path450" />
      <path
         d="m 152.90945,143.57103 v -0.18712 l 1.06765,-1.04563 q 0.14676,-0.14309 0.22013,-0.24948 0.0734,-0.11007 0.0991,-0.20546 0.0257,-0.0954 0.0257,-0.17978 0,-0.2238 -0.1541,-0.35221 -0.15042,-0.12841 -0.4476,-0.12841 -0.22747,0 -0.40358,0.0697 -0.17244,0.0697 -0.29718,0.21646 l -0.18711,-0.16143 q 0.15042,-0.1761 0.38523,-0.2715 0.23481,-0.0954 0.52465,-0.0954 0.26049,0 0.45127,0.0844 0.19079,0.0807 0.29351,0.23848 0.1064,0.15776 0.1064,0.37055 0,0.12474 -0.0367,0.24582 -0.033,0.12107 -0.12474,0.25682 -0.0881,0.13208 -0.26049,0.30085 l -0.97959,0.96125 -0.0734,-0.10273 h 1.5923 v 0.23481 z"
         id="path452" />
    </g>
  </g>
</svg>
