<?xml version="1.0" encoding="UTF-8" standalone="no"?>
<!-- Created with Inkscape (http://www.inkscape.org/) -->

<svg
   width="505.30771"
   height="170.78123"
   viewBox="0 0 133.69599 45.185868"
   version="1.1"
   id="svg5"
   inkscape:version="1.2.1 (8a69933317, 2022-10-28, custom)"
   sodipodi:docname="Barre_simple.svg"
   xmlns:inkscape="http://www.inkscape.org/namespaces/inkscape"
   xmlns:sodipodi="http://sodipodi.sourceforge.net/DTD/sodipodi-0.dtd"
   xmlns="http://www.w3.org/2000/svg"
   xmlns:svg="http://www.w3.org/2000/svg">
  <sodipodi:namedview
     id="namedview7"
     pagecolor="#ffffff"
     bordercolor="#000000"
     borderopacity="0.25"
     inkscape:showpageshadow="2"
     inkscape:pageopacity="0.0"
     inkscape:pagecheckerboard="0"
     inkscape:deskcolor="#d1d1d1"
     inkscape:document-units="px"
     showgrid="false"
     showguides="true"
     inkscape:zoom="0.95855777"
     inkscape:cx="227.425"
     inkscape:cy="168.48228"
     inkscape:window-width="1366"
     inkscape:window-height="704"
     inkscape:window-x="0"
     inkscape:window-y="27"
     inkscape:window-maximized="1"
     inkscape:current-layer="layer1" />
  <defs
     id="defs2" />
  <g
     inkscape:label="Layer 1"
     inkscape:groupmode="layer"
     id="layer1"
     transform="translate(-29.415884,-77.749744)">
    <ellipse
       style="fill:none;stroke:#000000;stroke-width:0.529167;stroke-linecap:square;stroke-dasharray:none"
       id="path184"
       cx="60.299526"
       cy="104.44214"
       rx="7.2133503"
       ry="18.219995" />
    <path
       id="ellipse844"
       style="color:#000000;fill:#000000;stroke-linecap:square"
       d="m 134.22385,85.992166 v 0.535368 c 0.74279,0.129802 1.46518,0.571168 2.15335,1.30638 0.83013,0.886871 1.59598,2.195337 2.24018,3.822506 1.2884,3.254336 2.09341,7.781748 2.09341,12.78475 0,5.00299 -0.80501,9.533 -2.09341,12.78733 -0.6442,1.62717 -1.41005,2.93357 -2.24018,3.82044 -0.68816,0.7352 -1.41057,1.17766 -2.15335,1.30793 v 0.53382 c 0.91347,-0.1342 1.77227,-0.66044 2.53989,-1.48053 0.89586,-0.95709 1.68445,-2.31632 2.3456,-3.98632 1.32232,-3.34 2.13113,-7.92307 2.13113,-12.98267 0,-5.059613 -0.80881,-9.640096 -2.13113,-12.980087 -0.66115,-1.669996 -1.44974,-3.031297 -2.3456,-3.988387 -0.76762,-0.820096 -1.62642,-1.346333 -2.53989,-1.48053 z" />
    <path
       style="fill:none;stroke:#000000;stroke-width:0.529167;stroke-linecap:square;stroke-dasharray:none"
       d="M 60.299525,86.222143 H 133.76182"
       id="path954" />
    <path
       style="fill:none;stroke:#000000;stroke-width:0.529167;stroke-linecap:square;stroke-dasharray:none"
       d="M 60.299525,122.66213 H 133.76182"
       id="path956" />
    <path
       id="ellipse1684"
       style="color:#000000;fill:#000000;stroke-linecap:square;stroke-dasharray:1.05833, 1.05833"
       d="m 133.66419,85.949274 -0.26355,0.02946 -0.0413,0.0036 h -0.002 c -0.36765,0.04695 -0.7233,0.158647 -1.05265,0.31626 l -0.23822,0.113688 0.22841,0.478524 0.23822,-0.115238 c 0.28164,-0.134778 0.58185,-0.228306 0.88677,-0.267684 l 0.0393,-0.0041 0.26355,-0.02894 z m 0.55966,0.29869 -0.0636,0.257866 0.0636,0.0155 z m -2.65359,0.49041 -0.20515,0.167948 -0.0878,0.07235 -0.1757,0.153996 -0.17209,0.166398 -0.16794,0.173633 -0.16795,0.185518 -0.0176,0.0217 -0.17157,0.201022 0.40411,0.341581 0.17002,-0.201022 0.0134,-0.0155 0.15452,-0.172082 0.15606,-0.160197 0.15813,-0.152445 0.16019,-0.14056 0.0801,-0.06615 0.20309,-0.167949 z m -1.50792,1.583882 -0.14624,0.220659 -0.11731,0.172082 -0.15037,0.238228 -0.14832,0.24598 -0.14469,0.255799 -0.006,0.0098 -0.12713,0.232544 0.46457,0.253731 0.12713,-0.232544 0.002,-0.0057 0.14056,-0.24598 0.14263,-0.234611 0.14263,-0.22841 0.11317,-0.165881 0.14624,-0.220658 z m -1.08779,1.861385 -0.1111,0.240296 -0.0625,0.130741 -0.13126,0.295072 -0.12867,0.302824 -0.10335,0.253732 -0.0997,0.245979 0.49041,0.199472 0.0992,-0.246497 0.1018,-0.249597 0.12506,-0.295073 0.12661,-0.285254 0.061,-0.128674 0.11111,-0.238228 z m -0.82217,1.978691 -0.0879,0.248047 -0.008,0.02325 -0.11317,0.335897 -0.10955,0.345715 -0.0956,0.314193 -0.076,0.254248 0.50592,0.152445 0.076,-0.252181 0.0956,-0.312642 0.10749,-0.335897 0.11162,-0.331762 0.006,-0.01757 0.0878,-0.250114 z m -0.63303,2.040702 -0.0662,0.255798 -0.0253,0.09767 -0.092,0.375171 -0.0899,0.382922 -0.0408,0.183452 -0.0568,0.259932 0.51573,0.113171 0.0589,-0.257865 0.0388,-0.181384 0.0879,-0.375171 0.092,-0.36897 0.0233,-0.09405 0.0687,-0.255798 z m -0.48008,2.079977 -0.0491,0.261999 -0.0641,0.3514 -0.0724,0.410311 -0.045,0.286804 -0.0429,0.259932 0.52297,0.08423 0.0413,-0.259933 0.047,-0.283186 0.0682,-0.40411 0.0661,-0.34985 0.047,-0.259932 z m -0.35191,2.103747 -0.0331,0.261483 -0.045,0.344165 -0.0506,0.431498 -0.0294,0.28112 -0.0295,0.26355 0.52762,0.05685 0.0274,-0.26354 0.031,-0.277503 0.0491,-0.42788 0.0444,-0.339515 0.0336,-0.264066 z m -0.23823,2.117182 -0.0196,0.26355 -0.0331,0.42995 -0.0295,0.45475 -0.01,0.1757 -0.0134,0.26407 0.5271,0.0289 0.0155,-0.26355 0.0103,-0.17364 0.0289,-0.44751 0.0315,-0.42943 0.0212,-0.26355 z m -0.13074,2.12287 -0.008,0.26407 -0.006,0.14211 -0.0119,0.46715 -0.006,0.45475 -0.004,0.26407 0.52917,0.008 0.004,-0.26355 0.006,-0.4532 0.0119,-0.46095 0.004,-0.1385 0.01,-0.26561 z m 0.49402,2.12132 -0.52916,0.008 0.004,0.26406 0.006,0.36484 0.0119,0.46716 0.008,0.23202 0.0103,0.26407 0.52916,-0.0176 -0.01,-0.26562 -0.008,-0.22892 -0.0114,-0.46096 -0.006,-0.36328 z m 0.0646,2.10529 -0.52917,0.0295 0.0155,0.26355 0.004,0.0858 0.0289,0.45321 0.0351,0.44958 0.006,0.0739 0.0233,0.26355 0.52762,-0.045 -0.0238,-0.26355 -0.006,-0.0724 -0.0331,-0.44338 -0.0295,-0.447 -0.006,-0.0842 z m 0.1602,2.096 -0.52762,0.0563 0.0294,0.26355 0.0196,0.18965 0.0506,0.43357 0.0568,0.42788 v 0.008 l 0.0367,0.262 0.52348,-0.0724 -0.0367,-0.262 v -0.006 l -0.0548,-0.4222 -0.0491,-0.42736 -0.0212,-0.18759 z m 0.26561,2.08566 -0.52348,0.0842 0.0429,0.26149 0.0315,0.1974 0.0718,0.40824 0.0744,0.40411 0.008,0.0413 0.0512,0.25941 0.51935,-0.10128 -0.0507,-0.25994 -0.008,-0.0393 -0.0739,-0.39636 -0.0687,-0.40411 -0.031,-0.19327 z m 0.38086,2.06654 -0.51573,0.11317 0.0568,0.25994 0.0212,0.0956 0.0899,0.38085 0.092,0.37672 0.0486,0.18397 0.0667,0.2558 0.51159,-0.13281 -0.0667,-0.2558 -0.0465,-0.1819 -0.092,-0.36897 -0.0879,-0.37517 -0.0196,-0.0935 z m 0.51159,2.03295 -0.50798,0.15245 0.0785,0.25425 0.0682,0.22841 0.10903,0.34364 0.11369,0.33797 0.0367,0.10749 0.0879,0.24959 0.50023,-0.1757 -0.0878,-0.25011 -0.0351,-0.10335 -0.11162,-0.33022 -0.10697,-0.33744 -0.0687,-0.2248 z m 0.66611,1.98283 -0.49041,0.19895 0.0997,0.24443 0.0703,0.17157 0.12867,0.30282 0.13126,0.29507 0.0992,0.21291 0.11369,0.2403 0.47852,-0.2248 -0.11162,-0.24029 -0.0997,-0.20878 -0.12661,-0.28732 -0.12506,-0.293 -0.0682,-0.16795 z m 0.863,1.89239 -0.45889,0.26148 0.13074,0.23048 0.10387,0.1819 0.14832,0.24805 0.15037,0.23616 0.15452,0.23047 0.0176,0.0233 0.15244,0.21497 0.4315,-0.30437 -0.15245,-0.21704 -0.0139,-0.0176 -0.14624,-0.21859 -0.14263,-0.22686 -0.14263,-0.23616 -0.10128,-0.1757 z m 1.1312,1.71876 -0.39068,0.35346 0.1757,0.19741 0.12093,0.13281 0.16794,0.17363 0.17209,0.16433 0.1757,0.15606 0.15813,0.12868 0.20308,0.16795 0.3359,-0.40773 -0.20464,-0.16795 -0.14883,-0.12351 -0.16019,-0.14211 -0.15813,-0.15089 -0.15606,-0.16175 -0.11318,-0.12506 z m 1.5136,1.30638 -0.21704,0.48265 0.24029,0.10956 c 0.15144,0.068 0.30774,0.12334 0.46716,0.1695 h 0.002 c 0.20671,0.0594 0.4205,0.10221 0.63872,0.11937 l 0.26407,0.0196 0.0408,-0.52762 -0.26355,-0.0191 c -0.17831,-0.014 -0.35792,-0.0494 -0.5333,-0.0997 h -0.002 c -0.13507,-0.0392 -0.26805,-0.0892 -0.39636,-0.14676 z" />
    <g
       id="path2024">
      <path
         style="color:#000000;fill:#000000;stroke-linecap:square;-inkscape-stroke:none"
         d="m 29.416016,85.425781 v 0.529297 h 0.263671 20.535157 l 8.359375,13.144531 0.140625,0.222657 0.447265,-0.283204 -0.142578,-0.222656 -8.513672,-13.390625 H 29.679687 Z"
         id="path3478" />
      <g
         id="g3470">
        <path
           style="color:#000000;fill:#000000;-inkscape-stroke:none"
           d="m 59.097656,96.820312 -0.429687,1.933594 -1.933594,-0.429687 -0.115234,0.515625 2.449218,0.544922 0.544922,-2.449219 z"
           id="path3472" />
      </g>
    </g>
    <g
       aria-label="T1"
       id="text2323"
       style="font-size:5.64444px;font-family:Montserrat;-inkscape-font-specification:Montserrat;stroke-width:0.529168;stroke-linecap:square">
      <path
         d="m 30.804417,84.896027 v -3.589864 h -1.388533 v -0.361245 h 3.194754 v 0.361245 h -1.388533 v 3.589864 z"
         id="path709" />
      <path
         d="m 33.841117,84.896027 v -3.781775 l 0.180622,0.191911 h -1.111955 v -0.361245 h 1.337732 v 3.951109 z"
         id="path711" />
    </g>
    <g
       id="path2406">
      <path
         style="color:#000000;fill:#4d4d4d;stroke-linecap:square;stroke-dasharray:2.11666, 0.529166, 0.264583, 0.529166;-inkscape-stroke:none"
         d="m 45.123047,104.31055 v 0.26367 h 0.132812 2.115235 0.132812 v -0.26367 h -0.132812 -2.115235 z m 2.646484,0 v 0.26367 h 0.13086 0.265625 0.132812 v -0.26367 h -0.132812 -0.265625 z m 0.792969,0 v 0.26367 h 0.132812 2.117188 0.130859 v -0.26367 H 50.8125 48.695312 Z m 2.646484,0 v 0.26367 h 0.13086 0.265625 0.132812 v -0.26367 h -0.132812 -0.265625 z m 0.792969,0 v 0.26367 h 0.132813 2.117187 0.130859 v -0.26367 h -0.130859 -2.117187 z m 2.646484,0 v 0.26367 h 0.132813 0.263672 0.132812 v -0.26367 H 55.044922 54.78125 Z m 0.792969,0 v 0.26367 h 0.132813 2.117187 0.13086 v -0.26367 h -0.13086 -2.117187 z m 2.646485,0 v 0.26367 h 0.132812 0.263672 0.132812 v -0.26367 h -0.132812 -0.263672 z m 0.792968,0 v 0.26367 h 0.132813 2.117187 0.13086 v -0.26367 h -0.13086 -2.117187 z m 2.646485,0 v 0.26367 h 0.132812 0.263672 0.132813 v -0.26367 h -0.132813 -0.263672 z m 0.792968,0 v 0.26367 h 0.132813 2.117187 0.132813 v -0.26367 h -0.132813 -2.117187 z m 2.646485,0 v 0.26367 h 0.132812 0.263672 0.132813 v -0.26367 h -0.132813 -0.263672 z m 0.792969,0 v 0.26367 h 0.132812 2.117188 0.132812 v -0.26367 h -0.132812 -2.117188 z m 2.646484,0 v 0.26367 h 0.132812 0.263672 0.132813 v -0.26367 h -0.132813 -0.263672 z m 0.792969,0 v 0.26367 h 0.132812 2.117188 0.132812 v -0.26367 h -0.132812 -2.117188 z m 2.646484,0 v 0.26367 h 0.132813 0.263671 0.132813 v -0.26367 h -0.132813 -0.263671 z m 0.792969,0 v 0.26367 h 0.132812 2.117188 0.132812 v -0.26367 h -0.132812 -2.117188 z m 2.646484,0 v 0.26367 h 0.132813 0.263672 0.132812 v -0.26367 h -0.132812 -0.263672 z m 0.794922,0 v 0.26367 h 0.130859 2.117188 0.132812 v -0.26367 h -0.132812 -2.117188 z m 2.644531,0 v 0.26367 h 0.132813 0.263672 0.132812 v -0.26367 h -0.132812 -0.263672 z m 0.794922,0 v 0.26367 h 0.13086 2.117187 0.132813 v -0.26367 h -0.132813 -2.117187 z m 2.644531,0 v 0.26367 h 0.132813 0.263672 0.132812 v -0.26367 h -0.132812 -0.263672 z m 0.794922,0 v 0.26367 h 0.13086 2.117187 0.132813 v -0.26367 h -0.132813 -2.117187 z m 2.644532,0 v 0.26367 h 0.132812 0.265625 0.130859 v -0.26367 h -0.130859 -0.265625 z m 0.794921,0 v 0.26367 h 0.13086 2.117187 0.132813 v -0.26367 h -0.132813 -2.117187 z m 2.644532,0 v 0.26367 h 0.132812 0.265625 0.13086 v -0.26367 h -0.13086 -0.265625 z m 0.794922,0 v 0.26367 h 0.132812 2.115234 0.132813 v -0.26367 h -0.132813 -2.115234 z m 2.644531,0 v 0.26367 h 0.132812 0.265625 0.13086 v -0.26367 h -0.13086 -0.265625 z m 0.794922,0 v 0.26367 h 0.132812 2.115235 0.132812 v -0.26367 h -0.132812 -2.115235 z m 2.646484,0 v 0.26367 h 0.130859 0.265625 0.13086 v -0.26367 h -0.13086 -0.265625 z m 0.792969,0 v 0.26367 h 0.132812 2.115235 0.132812 v -0.26367 h -0.132812 -2.115235 z m 2.646484,0 v 0.26367 h 0.13086 0.265625 0.132812 v -0.26367 h -0.132812 -0.265625 z m 0.792969,0 v 0.26367 h 0.13281 2.11524 0.13281 v -0.26367 h -0.13281 -2.11524 z m 2.64648,0 v 0.26367 h 0.13086 0.26563 0.13281 v -0.26367 h -0.13281 -0.26563 z m 0.79297,0 v 0.26367 h 0.13282 2.11718 0.13086 v -0.26367 h -0.13086 -2.11718 z m 2.64649,0 v 0.26367 h 0.13086 0.26562 0.13281 v -0.26367 h -0.13281 -0.26562 z m 0.79297,0 v 0.26367 h 0.13281 2.11719 0.13086 v -0.26367 h -0.13086 -2.11719 z m 2.64648,0 v 0.26367 h 0.13281 0.26368 0.13281 v -0.26367 h -0.13281 -0.26368 z m 0.79297,0 v 0.26367 h 0.13281 2.11719 0.13086 v -0.26367 h -0.13086 -2.11719 z m 2.64648,0 v 0.26367 h 0.13282 0.26367 0.13281 v -0.26367 h -0.13281 -0.26367 z m 0.79297,0 v 0.26367 h 0.13282 2.11718 0.13086 v -0.26367 h -0.13086 -2.11718 z m 2.64649,0 v 0.26367 h 0.13281 0.26367 0.13281 v -0.26367 h -0.13281 -0.26367 z m 0.79297,0 v 0.26367 h 0.13281 2.11719 0.13281 v -0.26367 h -0.13281 -2.11719 z m 2.64648,0 v 0.26367 h 0.13281 0.26367 0.13282 v -0.26367 h -0.13282 -0.26367 z m 0.79297,0 v 0.26367 h 0.13281 2.11719 0.13281 v -0.26367 h -0.13281 -2.11719 z m 2.64648,0 v 0.26367 h 0.13282 0.26367 0.13281 v -0.26367 h -0.13281 -0.26367 z m 0.79297,0 v 0.26367 h 0.13281 2.11719 0.13281 v -0.26367 h -0.13281 -2.11719 z m 2.64649,0 v 0.26367 h 0.13281 0.26367 0.13281 v -0.26367 h -0.13281 -0.26367 z m 0.79297,0 v 0.26367 h 0.13281 2.11718 0.13282 v -0.26367 h -0.13282 -2.11718 z m 2.64648,0 v 0.26367 h 0.13281 0.26367 0.13282 v -0.26367 h -0.13282 -0.26367 z m 0.79492,0 v 0.26367 h 0.13086 2.11719 0.13281 v -0.26367 h -0.13281 -2.11719 z m 2.64453,0 v 0.26367 h 0.13281 0.26368 0.13281 v -0.26367 h -0.13281 -0.26368 z m 0.79492,0 v 0.26367 h 0.13086 2.11719 0.13281 v -0.26367 h -0.13281 -2.11719 z m 2.64454,0 v 0.26367 h 0.13281 0.26367 0.13281 v -0.26367 h -0.13281 -0.26367 z m 0.79492,0 v 0.26367 h 0.13086 2.11718 0.13282 v -0.26367 h -0.13282 -2.11718 z m 2.64453,0 v 0.26367 h 0.13281 0.26563 0.13086 v -0.26367 h -0.13086 -0.26563 z m 0.79492,0 v 0.26367 h 0.13086 2.11719 0.13281 v -0.26367 h -0.13281 -2.11719 z m 2.64453,0 v 0.26367 h 0.13281 0.26563 0.13086 v -0.26367 h -0.13086 -0.26563 z m 0.79492,0 v 0.26367 h 0.13282 2.11523 0.13281 v -0.26367 h -0.13281 -2.11523 z m 2.64453,0 v 0.26367 h 0.13282 0.26562 0.13086 v -0.26367 h -0.13086 -0.26562 z m 0.79493,0 v 0.26367 h 0.13281 0.52344 0.13281 v -0.26367 h -0.13281 -0.52344 z"
         id="path3314" />
      <g
         id="g3306">
        <path
           style="color:#000000;fill:#4d4d4d;-inkscape-stroke:none"
           d="m 148.33398,103.55469 -0.1875,0.1875 0.69922,0.69922 -0.69922,0.70117 0.1875,0.1875 0.88672,-0.88867 z"
           id="path3308" />
      </g>
    </g>
    <g
       aria-label="x"
       id="text2508"
       style="font-size:5.64444px;font-family:Montserrat;-inkscape-font-specification:Montserrat;stroke-width:0.264583;stroke-linecap:square;stroke-dasharray:2.11666, 0.529167, 0.264583, 0.529167">
      <path
         d="m 149.10357,103.02568 1.25306,-1.6256 -0.006,0.19756 -1.19098,-1.53529 h 0.45156 l 0.97648,1.27 -0.16933,-0.006 0.97649,-1.26435 h 0.44027 l -1.20227,1.55222 0.006,-0.21449 1.26436,1.6256 h -0.4572 l -1.03293,-1.35467 0.15804,0.0226 -1.016,1.33209 z"
         id="path718" />
    </g>
    <g
       id="path2560">
      <path
         style="color:#000000;fill:#000000;stroke-linecap:square;-inkscape-stroke:none"
         d="m 144.35937,90.353516 -9.5039,5.488281 -0.23047,0.132812 0.26562,0.458985 0.22852,-0.132813 9.38281,-5.417969 h 18.34571 0.26367 v -0.529296 h -0.26367 z"
         id="path3496" />
      <g
         id="g3488">
        <path
           style="color:#000000;fill:#000000;-inkscape-stroke:none"
           d="m 135.19727,93.900391 -0.64844,2.423828 2.42383,0.65039 0.13671,-0.511718 -1.9121,-0.511719 0.51171,-1.914063 z"
           id="path3490" />
      </g>
    </g>
    <g
       aria-label="T2"
       id="text2628"
       style="font-size:5.64444px;font-family:Montserrat;-inkscape-font-specification:Montserrat;stroke-width:0.529167;stroke-linecap:square">
      <path
         d="m 158.20631,89.825272 v -3.589864 h -1.38854 v -0.361245 h 3.19476 v 0.361245 H 158.624 v 3.589864 z"
         id="path723" />
      <path
         d="m 160.34046,89.825272 v -0.287867 l 1.64253,-1.608665 q 0.22578,-0.220133 0.33867,-0.383822 0.11289,-0.169333 0.1524,-0.316089 0.0395,-0.146755 0.0395,-0.276577 0,-0.344311 -0.23707,-0.541867 -0.23142,-0.197555 -0.68862,-0.197555 -0.34996,0 -0.62089,0.107244 -0.26529,0.107245 -0.4572,0.333022 l -0.28787,-0.248355 q 0.23143,-0.270933 0.59267,-0.417689 0.36125,-0.146755 0.80716,-0.146755 0.40075,0 0.69426,0.129822 0.29351,0.124178 0.45156,0.366889 0.16369,0.242711 0.16369,0.570088 0,0.191911 -0.0565,0.378178 -0.0508,0.186266 -0.19191,0.39511 -0.13547,0.2032 -0.40075,0.462844 l -1.50707,1.478844 -0.11289,-0.158045 h 2.44969 v 0.361245 z"
         id="path725" />
    </g>
    <g
       aria-label="T1 &gt; T2"
       id="text2632"
       style="font-size:5.64444px;font-family:Montserrat;-inkscape-font-specification:Montserrat;stroke-width:0.529167;stroke-linecap:square">
      <path
         d="M 76.073372,97.391129 V 93.801265 H 74.68484 V 93.44002 h 3.194753 v 0.361245 h -1.388532 v 3.589864 z"
         id="path732" />
      <path
         d="m 79.110072,97.391129 v -3.781775 l 0.180622,0.191911 H 78.178739 V 93.44002 h 1.337733 v 3.951109 z"
         id="path734" />
      <path
         d="m 82.039521,96.583974 v -0.349956 l 2.308576,-0.908755 v 0.180623 l -2.308576,-0.908755 v -0.349956 l 2.455331,0.982133 v 0.372533 z"
         id="path736" />
      <path
         d="M 87.779905,97.391129 V 93.801265 H 86.391373 V 93.44002 h 3.194753 v 0.361245 h -1.388532 v 3.589864 z"
         id="path738" />
      <path
         d="m 89.914057,97.391129 v -0.287867 l 1.642532,-1.608665 q 0.225778,-0.220134 0.338667,-0.383822 0.112888,-0.169333 0.1524,-0.316089 0.03951,-0.146755 0.03951,-0.276578 0,-0.34431 -0.237067,-0.541866 -0.231422,-0.197555 -0.688622,-0.197555 -0.349955,0 -0.620888,0.107244 -0.265289,0.107245 -0.4572,0.333022 l -0.287866,-0.248355 q 0.231422,-0.270933 0.592666,-0.417689 0.361244,-0.146755 0.807155,-0.146755 0.400755,0 0.694266,0.129822 0.293511,0.124178 0.451555,0.366889 0.163689,0.24271 0.163689,0.570088 0,0.191911 -0.05644,0.378177 -0.0508,0.186267 -0.191911,0.395111 -0.135467,0.2032 -0.400755,0.462844 l -1.507066,1.478844 -0.112889,-0.158045 h 2.449687 v 0.361245 z"
         id="path740" />
    </g>
    <g
       id="path2634"
       transform="translate(10.583333)">
      <path
         style="color:#000000;fill:#000000;stroke-width:0.79375;stroke-linecap:square;-inkscape-stroke:none"
         d="M 91.715933,90.697275 H 101.98258"
         id="path3244" />
      <path
         style="color:#000000;fill:#ff0000;stroke-linecap:square;-inkscape-stroke:none"
         d="m 91.318359,90.300781 v 0.792969 h 0.398438 10.265623 0.39649 v -0.792969 h -0.39649 -10.265623 z"
         id="path3246" />
      <g
         id="g3236">
        <path
           style="color:#000000;fill:#ff0000;-inkscape-stroke:none"
           d="m 100.08008,88.035156 -0.560549,0.560547 2.099609,2.101563 -2.099609,2.101562 0.560549,0.560547 2.66211,-2.662109 z"
           id="path3238" />
      </g>
    </g>
    <g
       id="path2726"
       transform="translate(10.583333)">
      <path
         style="color:#000000;fill:#000000;stroke-width:0.79375;stroke-linecap:square;-inkscape-stroke:none"
         d="M 91.715933,97.569706 H 101.98258"
         id="path3258" />
      <path
         style="color:#000000;fill:#ff0000;stroke-linecap:square;-inkscape-stroke:none"
         d="m 91.318359,97.171875 v 0.794922 h 0.398438 10.265623 0.39649 v -0.794922 h -0.39649 -10.265623 z"
         id="path3260" />
      <g
         id="g3250">
        <path
           style="color:#000000;fill:#ff0000;-inkscape-stroke:none"
           d="m 100.08008,94.908203 -0.560549,0.560547 2.101559,2.101562 -2.101559,2.09961 0.560549,0.562498 2.66211,-2.662108 z"
           id="path3252" />
      </g>
    </g>
    <g
       id="path2728"
       transform="translate(10.583333)">
      <path
         style="color:#000000;fill:#000000;stroke-width:0.79375;stroke-linecap:square;-inkscape-stroke:none"
         d="M 91.715933,104.44214 H 101.98258"
         id="path3272" />
      <path
         style="color:#000000;fill:#ff0000;stroke-linecap:square;-inkscape-stroke:none"
         d="m 91.318359,104.04492 v 0.79492 h 0.398438 10.265623 0.39649 v -0.79492 h -0.39649 -10.265623 z"
         id="path3274" />
      <g
         id="g3264">
        <path
           style="color:#000000;fill:#ff0000;-inkscape-stroke:none"
           d="m 100.08008,101.7793 -0.560549,0.5625 2.101559,2.09961 -2.101559,2.10156 0.560549,0.56055 2.66211,-2.66211 z"
           id="path3266" />
      </g>
    </g>
    <g
       id="path2730"
       transform="translate(10.583333)">
      <path
         style="color:#000000;fill:#000000;stroke-width:0.79375;stroke-linecap:square;-inkscape-stroke:none"
         d="M 91.715933,111.31457 H 101.98258"
         id="path3286" />
      <path
         style="color:#000000;fill:#ff0000;stroke-linecap:square;-inkscape-stroke:none"
         d="m 91.318359,110.91797 v 0.79297 h 0.398438 10.265623 0.39649 v -0.79297 h -0.39649 -10.265623 z"
         id="path3288" />
      <g
         id="g3278">
        <path
           style="color:#000000;fill:#ff0000;-inkscape-stroke:none"
           d="m 100.08008,108.65234 -0.560549,0.5625 2.099609,2.09961 -2.099609,2.10157 0.560549,0.56054 2.66211,-2.66211 z"
           id="path3280" />
      </g>
    </g>
    <g
       id="path2732"
       transform="translate(10.583333)">
      <path
         style="color:#000000;fill:#000000;stroke-width:0.79375;stroke-linecap:square;-inkscape-stroke:none"
         d="M 91.715933,118.187 H 101.98258"
         id="path3300" />
      <path
         style="color:#000000;fill:#ff0000;stroke-linecap:square;-inkscape-stroke:none"
         d="m 91.318359,117.79102 v 0.79296 h 0.398438 10.265623 0.39649 v -0.79296 h -0.39649 -10.265623 z"
         id="path3302" />
      <g
         id="g3292">
        <path
           style="color:#000000;fill:#ff0000;-inkscape-stroke:none"
           d="m 100.08008,115.52539 -0.560549,0.56055 2.101559,2.10156 -2.101559,2.09961 0.560549,0.5625 2.66211,-2.66211 z"
           id="path3294" />
      </g>
    </g>
    <g
       aria-label="ð“"
       id="text2788"
       style="font-size:5.64444px;font-family:Montserrat;-inkscape-font-specification:Montserrat;fill:#ff0000;stroke-width:0.79375;stroke-linecap:square">
      <path
         d="m 118.00673,97.81819 c 0.88053,-0.0508 1.778,-0.728133 1.778,-1.670755 0,-0.677332 -0.57573,-1.05551 -1.20227,-1.078088 l 0.20885,-0.880532 h -0.16369 l -0.27094,0.880532 c -0.90875,0.03387 -1.89653,0.767644 -1.89653,1.738488 0,0.637822 0.51929,0.976488 1.10631,1.010355 l -0.32173,1.117599 h 0.51929 z m 0.97084,-2.031999 c 0,0.530578 -0.31044,1.800577 -0.94262,1.86831 l 0.51929,-2.427109 c 0.32173,0.02258 0.42333,0.270933 0.42333,0.558799 z m -0.67169,-0.558799 -0.68862,2.427109 c -0.27657,-0.02822 -0.33866,-0.287866 -0.33866,-0.524933 0,-0.587022 0.3048,-1.845732 1.02728,-1.902176 z"
         id="path753" />
    </g>
    <g
       id="path347">
      <path
         style="color:#000000;fill:#000000;stroke-linecap:square;-inkscape-stroke:none"
         d="m 60.035156,83.3125 v 0.529297 h 0.263672 73.462892 0.26562 V 83.3125 h -0.26562 -73.462892 z"
         id="path393" />
      <g
         id="g379">
        <path
           style="color:#000000;fill:#000000;-inkscape-stroke:none"
           d="m 132.49414,81.800781 -0.375,0.375 1.40039,1.400391 -1.40039,1.40039 0.375,0.375 1.77344,-1.77539 z"
           id="path387" />
        <path
           style="color:#000000;fill:#000000;-inkscape-stroke:none"
           d="m 61.060547,81.800781 0.373047,0.375 -1.398438,1.400391 1.398438,1.40039 -0.373047,0.375 -1.775391,-1.77539 z"
           id="path381" />
      </g>
    </g>
    <g
       aria-label="L"
       id="text1236"
       style="font-size:5.64444px;font-family:Montserrat;-inkscape-font-specification:Montserrat;stroke-width:0.529167;stroke-linecap:square">
      <path
         d="m 97.030673,81.80172 v -3.951108 h 0.417689 v 3.589863 h 2.21262 v 0.361245 z"
         id="path758" />
    </g>
  </g>
</svg>
