<?xml version="1.0" encoding="UTF-8" standalone="no"?>
<!-- Created with Inkscape (http://www.inkscape.org/) -->

<svg
   width="589.17743"
   height="285.39316"
   viewBox="0 0 155.88652 75.510273"
   version="1.1"
   id="svg5"
   xml:space="preserve"
   inkscape:version="1.2.1 (8a69933317, 2022-10-28, custom)"
   sodipodi:docname="cylindre_2_ray.svg"
   xmlns:inkscape="http://www.inkscape.org/namespaces/inkscape"
   xmlns:sodipodi="http://sodipodi.sourceforge.net/DTD/sodipodi-0.dtd"
   xmlns="http://www.w3.org/2000/svg"
   xmlns:svg="http://www.w3.org/2000/svg"><sodipodi:namedview
     id="namedview7"
     pagecolor="#ffffff"
     bordercolor="#000000"
     borderopacity="0.25"
     inkscape:showpageshadow="2"
     inkscape:pageopacity="0.0"
     inkscape:pagecheckerboard="0"
     inkscape:deskcolor="#d1d1d1"
     inkscape:document-units="px"
     showgrid="false"
     showguides="true"
     inkscape:zoom="2.7112109"
     inkscape:cx="229.41779"
     inkscape:cy="76.902908"
     inkscape:window-width="1366"
     inkscape:window-height="704"
     inkscape:window-x="0"
     inkscape:window-y="27"
     inkscape:window-maximized="1"
     inkscape:current-layer="layer1" /><defs
     id="defs2" /><g
     inkscape:label="Layer 1"
     inkscape:groupmode="layer"
     id="layer1"
     transform="translate(-26.15042,-96.694722)"><path
       style="fill:#000000;stroke:#000000;stroke-width:0.529167;stroke-linecap:square;stroke-dasharray:0.529167, 1.5875;stroke-dashoffset:0"
       d="m 57.606956,104.79088 v 10.58334"
       id="path3618" /><ellipse
       style="fill:none;stroke:#000000;stroke-width:0.529167;stroke-linecap:square;stroke-dasharray:none"
       id="ellipse912"
       cx="57.606956"
       cy="143.65678"
       rx="23.599989"
       ry="28.282566" /><ellipse
       style="fill:none;stroke:#000000;stroke-width:0.529167;stroke-linecap:square;stroke-dasharray:none"
       id="ellipse914"
       cx="57.606956"
       cy="143.65678"
       rx="10.162862"
       ry="12.211702" /><path
       id="ellipse1814"
       style="color:#000000;fill:#000000;stroke-linecap:square"
       d="m 158.43684,115.11339 v 0.52916 c 12.74089,0.17076 23.07094,12.61985 23.07094,28.0138 0,15.39394 -10.33005,27.84252 -23.07094,28.01327 v 0.52917 c 13.0823,-0.17037 23.60011,-12.90879 23.60011,-28.54244 0,-15.63366 -10.51781,-28.37261 -23.60011,-28.54296 z" /><ellipse
       style="fill:none;stroke:#000000;stroke-width:0.529167;stroke-linecap:square;stroke-dasharray:0.529167, 1.5875;stroke-dashoffset:0"
       id="ellipse1816"
       cx="158.17224"
       cy="143.65678"
       rx="10.162862"
       ry="12.211702" /><path
       style="fill:none;stroke:#000000;stroke-width:0.529167;stroke-linecap:square;stroke-dasharray:none"
       d="M 57.606956,115.37422 H 158.17224"
       id="path1818" /><path
       style="fill:none;stroke:#000000;stroke-width:0.529167;stroke-linecap:square;stroke-dasharray:none"
       d="M 57.606956,171.93935 H 158.17224"
       id="path1820" /><path
       id="ellipse1822"
       style="color:#000000;fill:#000000;stroke-linecap:square;stroke-dasharray:0.529167, 1.5875"
       d="m 158.16605,115.10925 -0.004,0.52917 0.26355,0.002 h 0.0114 v -0.52865 h -0.007 z m -1.07797,0.0274 -0.26406,0.0176 -0.18707,0.0139 -0.30489,0.0253 -0.045,0.004 -0.26148,0.0253 0.0506,0.5271 0.26355,-0.0253 0.0408,-0.004 0.29508,-0.0253 0.18345,-0.0119 0.26406,-0.0191 z m -2.13113,0.22841 -0.25993,0.045 c -0.17587,0.0301 -0.35422,0.0626 -0.53124,0.0997 l -0.25735,0.0548 0.10697,0.51728 0.25994,-0.0548 c 0.16826,-0.0352 0.33821,-0.0662 0.51004,-0.0956 l 0.26148,-0.045 z m -2.09341,0.4532 -0.25632,0.0724 c -0.17282,0.0484 -0.34391,0.0996 -0.51521,0.15451 l -0.25218,0.0801 0.16226,0.50385 0.25166,-0.0801 c 0.16462,-0.0528 0.32921,-0.1021 0.4961,-0.14883 l 0.2558,-0.0718 z m -2.03761,0.66973 -0.24598,0.0961 c -0.16789,0.0661 -0.33227,0.13541 -0.49609,0.2067 l -0.24391,0.10542 0.2129,0.48628 0.24185,-0.10542 c 0.15965,-0.0695 0.31812,-0.13792 0.47852,-0.20102 l 0.24805,-0.0956 z m -1.95492,0.87126 -0.23616,0.12093 c -0.1611,0.0827 -0.31773,0.16821 -0.47284,0.25424 l -0.23254,0.12868 0.25787,0.46302 0.23047,-0.12868 c 0.15337,-0.0851 0.30613,-0.16809 0.45889,-0.24649 l 0.23461,-0.12092 z m -1.86138,1.05885 -0.22273,0.14263 -0.008,0.006 -0.25373,0.16589 -0.18552,0.12712 -0.21911,0.14831 0.29869,0.4377 0.21911,-0.14831 0.18139,-0.12506 0.24804,-0.16226 0.004,-0.004 0.22272,-0.14262 z m -1.75752,1.22835 -0.20722,0.16382 -0.23409,0.18758 -0.17984,0.14831 -0.20515,0.16847 0.33589,0.40773 0.20516,-0.16795 0.17777,-0.14418 0.23047,-0.18552 0.20671,-0.1664 z m -1.62884,1.3808 -0.19533,0.17983 c -0.13251,0.12316 -0.25892,0.24741 -0.38499,0.37104 l -0.18966,0.18552 0.36949,0.37672 0.18914,-0.18345 c 0.12579,-0.12334 0.25134,-0.24628 0.37723,-0.36329 l 0.19327,-0.17983 z m -1.51205,1.5136 -0.17777,0.19534 c -0.12123,0.13312 -0.23758,0.26777 -0.35346,0.40256 l -0.17364,0.20102 0.40205,0.34364 0.17208,-0.20102 c 0.11409,-0.1327 0.22941,-0.26297 0.34571,-0.39067 l 0.17777,-0.19534 z m -1.38079,1.63091 -0.16227,0.20929 c -0.1092,0.14138 -0.21651,0.2845 -0.32194,0.42943 l -0.15451,0.2129 0.42788,0.31265 0.15399,-0.21498 c 0.1021,-0.14035 0.20827,-0.28025 0.31471,-0.41806 l 0.16227,-0.20877 z m -1.25212,1.73271 -0.14211,0.22221 -0.12713,0.19533 -0.1602,0.25218 -0.14055,0.2248 0.447,0.28318 0.14056,-0.22479 0.15864,-0.25011 0.12454,-0.19327 0.1447,-0.22273 z m -1.11105,1.82004 -0.12919,0.23255 c -0.0876,0.15684 -0.17322,0.31335 -0.2558,0.47077 l -0.12299,0.23409 0.46871,0.24598 0.12299,-0.23409 c 0.0813,-0.15498 0.16362,-0.30775 0.24805,-0.45889 l 0.12919,-0.23254 z m -0.98443,1.89859 -0.10956,0.2403 -0.0935,0.20309 -0.12506,0.28112 -0.10955,0.24236 0.48472,0.21446 0.10749,-0.2403 0.12506,-0.27905 0.0915,-0.20102 0.11162,-0.2403 z m -0.84181,1.95906 -0.0956,0.24598 c -0.0644,0.16667 -0.12553,0.33546 -0.18552,0.50384 l -0.0899,0.24805 0.49971,0.17777 0.0879,-0.24805 c 0.0584,-0.16394 0.11917,-0.32799 0.1819,-0.49041 l 0.0956,-0.24598 z m -0.709,2.01176 -0.078,0.25373 c -0.0535,0.17176 -0.10376,0.3435 -0.15245,0.51367 l -0.0724,0.25373 0.50798,0.14469 0.0739,-0.25373 c 0.0483,-0.16899 0.0974,-0.33726 0.14883,-0.5023 l 0.078,-0.25166 z m -0.5762,2.05827 -0.0584,0.25787 -0.0667,0.28112 -0.0506,0.23668 -0.0568,0.25941 0.51573,0.11369 0.0568,-0.25787 0.0527,-0.23461 0.0641,-0.27905 0.0589,-0.25786 z m -0.43563,2.08773 -0.045,0.25993 -0.0429,0.262 -0.0408,0.26355 -0.0393,0.26149 0.52349,0.0822 0.0393,-0.26148 0.0408,-0.26407 0.0429,-0.2558 0.0429,-0.26148 z m -0.30437,2.1115 -0.0258,0.26355 -0.0269,0.26975 -0.0238,0.25993 -0.0233,0.26355 0.52762,0.047 0.0232,-0.26407 0.0233,-0.25786 0.0253,-0.26562 0.0274,-0.26355 z m -0.17002,2.127 -0.0103,0.26355 -0.0114,0.31264 -0.006,0.2186 -0.006,0.26561 0.52917,0.0139 0.006,-0.26561 0.006,-0.21498 0.0119,-0.31057 0.01,-0.26355 z m 0.49403,2.12132 -0.52917,0.008 0.004,0.26562 0.002,0.0196 0.008,0.36536 0.006,0.14831 0.0103,0.26562 0.52916,-0.0196 -0.01,-0.26562 -0.006,-0.14469 -0.01,-0.36122 v -0.0176 z m 0.092,2.09755 -0.52761,0.0408 0.0217,0.26355 c 0.0138,0.17836 0.0287,0.35592 0.047,0.5333 l 0.0269,0.26355 0.52762,-0.0543 -0.0274,-0.262 c -0.0179,-0.17354 -0.0335,-0.34805 -0.047,-0.52141 z m 0.22273,2.08772 -0.52348,0.0744 0.0367,0.26148 c 0.0251,0.177 0.0527,0.35313 0.0822,0.52917 l 0.0429,0.262 0.52142,-0.0879 -0.0429,-0.262 c -0.0288,-0.17189 -0.0557,-0.34292 -0.0801,-0.51522 z m 0.35347,2.06861 -0.5178,0.10904 0.0548,0.25786 c 0.0364,0.1754 0.0747,0.35006 0.11523,0.52349 l 0.0605,0.25786 0.51574,-0.12092 -0.0605,-0.25787 c -0.0398,-0.17007 -0.0784,-0.34 -0.11368,-0.51004 z m 0.48834,2.04277 -0.51212,0.14056 0.0703,0.2558 c 0.0479,0.17339 0.0993,0.3442 0.15038,0.51366 l 0.0765,0.25218 0.50747,-0.15244 -0.076,-0.25167 c -0.0508,-0.16827 -0.10019,-0.33772 -0.14624,-0.50436 z m 0.61701,2.00401 -0.49816,0.17777 0.0879,0.25011 0.0879,0.24392 0.0956,0.25579 0.092,0.24805 0.49609,-0.18552 -0.092,-0.24804 -0.0935,-0.25218 -0.0879,-0.24185 z m 0.75396,1.95906 -0.48472,0.20877 0.10387,0.24236 c 0.0704,0.16347 0.14334,0.32704 0.21859,0.48989 l 0.1111,0.2403 0.47853,-0.22066 -0.10904,-0.24029 c -0.0727,-0.15739 -0.14378,-0.318 -0.21291,-0.47853 z m 0.88264,1.90014 -0.46664,0.24598 0.12299,0.23461 0.15038,0.28525 0.0997,0.18552 0.12661,0.23255 0.46509,-0.25425 -0.12506,-0.23255 -0.0997,-0.18138 -0.14832,-0.28112 z m 1.02371,1.83399 -0.45165,0.27544 0.13901,0.22634 c 0.093,0.1519 0.18735,0.30276 0.28525,0.45321 l 0.14418,0.22272 0.44338,-0.28887 -0.14418,-0.22273 c -0.0945,-0.14524 -0.18629,-0.29237 -0.2775,-0.44131 z m 1.14618,1.75184 -0.42581,0.31264 0.15658,0.21291 0.15037,0.20722 0.16589,0.22066 0.15813,0.2129 0.42374,-0.31832 -0.15813,-0.21084 -0.16381,-0.21911 -0.1509,-0.20516 z m 1.28519,1.66036 -0.40617,0.34003 0.17208,0.20309 c 0.1163,0.13798 0.23371,0.27185 0.3514,0.40411 l 0.1757,0.1974 0.39636,-0.35191 -0.17777,-0.19689 c -0.11681,-0.13127 -0.23052,-0.26305 -0.34158,-0.39481 z m 1.40612,1.55081 -0.37465,0.3731 0.18551,0.18759 c 0.12676,0.12755 0.25503,0.25205 0.38448,0.37465 l 0.19327,0.1819 0.36328,-0.38499 -0.1912,-0.18138 c -0.12667,-0.11998 -0.25325,-0.24061 -0.37517,-0.36329 z m 1.52962,1.42782 -0.3421,0.40411 0.20309,0.17001 c 0.13707,0.11608 0.27593,0.23046 0.416,0.34159 l 0.20722,0.16433 0.32815,-0.41393 -0.20723,-0.16433 c -0.13629,-0.10813 -0.26989,-0.21832 -0.40204,-0.33021 z m 1.64848,1.28881 -0.30489,0.43356 0.21704,0.15245 c 0.14712,0.10351 0.29542,0.20281 0.44493,0.30076 l 0.22273,0.14469 0.28939,-0.44132 -0.22118,-0.14469 c -0.14557,-0.0954 -0.29009,-0.19352 -0.4315,-0.29301 z m 1.75752,1.13275 -0.26149,0.4594 0.22841,0.13074 c 0.15673,0.0897 0.31534,0.17621 0.47284,0.25942 l 0.2341,0.1235 0.24598,-0.4687 -0.23203,-0.12351 c -0.1544,-0.0816 -0.30784,-0.16408 -0.45734,-0.2496 z m 1.85776,0.95911 -0.21704,0.48266 0.24236,0.10749 0.0212,0.01 0.27544,0.11886 0.1974,0.0822 0.24391,0.1018 0.20309,-0.49041 -0.24391,-0.1018 -0.19534,-0.0801 -0.26768,-0.11524 -0.0176,-0.008 z m 1.93735,0.76946 -0.15813,0.50385 0.25167,0.0801 0.25993,0.0842 0.25011,0.0744 0.25167,0.076 0.15244,-0.50798 -0.25218,-0.076 -0.24598,-0.0723 -0.2558,-0.0822 z m 2.01177,0.56483 -0.10542,0.51728 0.25786,0.0527 0.22841,0.047 0.29662,0.0563 0.002,0.002 0.25993,0.045 0.0915,-0.52142 -0.25942,-0.045 -0.28732,-0.0548 -0.22427,-0.0465 z m 2.05827,0.34726 -0.0506,0.52762 0.26355,0.0253 0.20722,0.0212 0.30489,0.0258 h 0.0232 l 0.26355,0.0191 0.0351,-0.52917 -0.26355,-0.0176 -0.0196,-0.002 -0.29508,-0.0232 -0.20515,-0.0217 z m 2.52491,0.12558 -0.17518,0.002 -0.26562,0.002 0.004,0.52917 0.26561,-0.002 0.17157,-0.001 z" /><g
       id="path1957"><path
         style="color:#000000;fill:#000000;stroke-linecap:square;-inkscape-stroke:none"
         d="m 57.341797,131.93945 v 0.26367 11.45313 0.26562 h 0.529297 v -0.26562 -11.45313 -0.26367 z"
         id="path5342" /><g
         id="g5334"><path
           style="color:#000000;fill:#000000;-inkscape-stroke:none"
           d="m 57.607422,131.69727 -1.775391,1.77539 0.375,0.37304 1.400391,-1.40039 1.40039,1.40039 0.373047,-0.37304 z"
           id="path5336" /></g></g><g
       id="path1959"><path
         style="color:#000000;fill:#000000;stroke-linecap:square;-inkscape-stroke:none"
         d="m 57.341797,143.39258 v 0.52929 h 0.265625 22.771484 0.265625 v -0.52929 H 80.378906 57.607422 Z"
         id="path5354" /><g
         id="g5346"><path
           style="color:#000000;fill:#000000;-inkscape-stroke:none"
           d="m 79.111328,141.88281 -0.375,0.37305 1.400391,1.40039 -1.400391,1.40039 0.375,0.375 1.775391,-1.77539 z"
           id="path5348" /></g></g><g
       id="g2385"
       transform="matrix(0.38306743,-0.38306743,0.38306743,0.38306743,-35.367865,100.45746)"
       style="stroke-width:1.84591"><path
         style="fill:#000000;stroke:#000000;stroke-width:0.976793;stroke-linecap:square;stroke-dasharray:none;stroke-dashoffset:0"
         d="m 36.638034,142.55183 h 4.799745"
         id="path2379" /><path
         style="fill:#000000;stroke:#000000;stroke-width:0.976793;stroke-linecap:square;stroke-dasharray:none;stroke-dashoffset:0"
         d="m 39.037907,140.15196 v 4.79974"
         id="path2381" /></g><g
       id="g2391"
       transform="matrix(0.38306743,-0.38306743,0.38306743,0.38306743,-20.991829,109.58906)"
       style="stroke-width:1.84591"><path
         style="fill:#000000;stroke:#000000;stroke-width:0.976793;stroke-linecap:square;stroke-dasharray:none;stroke-dashoffset:0"
         d="m 36.638034,142.55183 h 4.799745"
         id="path2387" /><path
         style="fill:#000000;stroke:#000000;stroke-width:0.976793;stroke-linecap:square;stroke-dasharray:none;stroke-dashoffset:0"
         d="m 39.037907,140.15196 v 4.79974"
         id="path2389" /></g><g
       id="path2443"><path
         style="color:#000000;fill:#000000;stroke-linecap:square;-inkscape-stroke:none"
         d="m 57.382812,116.58008 -0.158203,0.21289 c 0,0 -1.33789,1.75746 -1.33789,3.67578 0,0.49742 0.146638,0.88766 0.363281,1.1875 0.216643,0.29984 0.492277,0.51034 0.744141,0.70703 0.251863,0.1967 0.480698,0.38003 0.640625,0.5957 0.159927,0.21568 0.261718,0.46017 0.261718,0.84375 10e-7,0.77765 -0.390792,1.2599 -0.839843,1.79688 -0.449052,0.53698 -0.962891,1.13062 -0.962891,2.02539 0,1.62755 0.347656,3.6875 0.347656,3.6875 l 0.04297,0.26172 0.521484,-0.0879 -0.04297,-0.25977 c 0,0 -0.339844,-2.05044 -0.339844,-3.60156 0,-0.69457 0.386946,-1.14397 0.839844,-1.68555 0.452897,-0.54157 0.962891,-1.17603 0.96289,-2.13672 0,-0.48558 -0.148227,-0.8675 -0.365234,-1.16015 -0.217007,-0.29265 -0.491472,-0.49951 -0.742188,-0.69531 -0.250715,-0.1958 -0.478381,-0.37972 -0.638672,-0.60157 -0.16029,-0.22184 -0.263671,-0.47848 -0.263671,-0.87695 0,-1.66525 1.232421,-3.35937 1.232421,-3.35937 l 0.158204,-0.2129 z"
         id="path5318" /><g
         id="g5310"><path
           style="color:#000000;fill:#000000;-inkscape-stroke:none"
           d="m 57.738281,116.54492 -2.482422,0.36328 0.07617,0.52344 1.960938,-0.28711 0.285156,1.95899 0.523437,-0.0762 z"
           id="path5312" /></g></g><g
       id="path3326"><path
         style="color:#000000;fill:#000000;stroke-linecap:square;-inkscape-stroke:none"
         d="m 62.556641,117.00391 -0.212891,0.1582 c 0,0 -1.786491,1.29739 -2.337891,3.13477 -0.142978,0.47643 -0.113502,0.89272 0.0078,1.24218 0.121315,0.34946 0.323116,0.63179 0.507812,0.89258 0.184697,0.26079 0.352175,0.50137 0.44336,0.75391 0.09119,0.25254 0.11807,0.51736 0.0078,0.88476 -0.235401,0.78441 -0.653481,1.36583 -1.089844,1.96094 -0.436362,0.59511 -0.892516,1.20385 -1.136718,2.01758 -0.449795,1.4988 -1.132813,3.01562 -1.132813,3.01562 l -0.109375,0.24024 0.482422,0.21875 0.109375,-0.24219 c 0,0 0.692372,-1.53434 1.15625,-3.08008 0.212635,-0.70853 0.620473,-1.25796 1.058594,-1.85547 0.438121,-0.5975 0.905659,-1.24246 1.169922,-2.12304 0.139574,-0.46509 0.106152,-0.87412 -0.01758,-1.2168 -0.123731,-0.34268 -0.325912,-0.62126 -0.509766,-0.88086 -0.183854,-0.2596 -0.349694,-0.50121 -0.439453,-0.75977 -0.08976,-0.25855 -0.114536,-0.53435 0,-0.91601 0.478657,-1.59498 2.146484,-2.86328 2.146484,-2.86328 l 0.212891,-0.15821 z"
         id="path5330" /><g
         id="g5322"><path
           style="color:#000000;fill:#000000;-inkscape-stroke:none"
           d="m 60.425781,116.70508 -0.07813,0.52344 1.958985,0.28906 -0.28711,1.95898 0.523438,0.0781 0.365234,-2.48242 z"
           id="path5324" /></g></g><g
       id="path3336"><path
         style="color:#000000;fill:#000000;stroke-linecap:square;-inkscape-stroke:none"
         d="m 53.556641,116.90625 -0.111329,0.24023 c 0,0 -0.963156,1.9871 -0.582031,3.86719 0.09883,0.48751 0.321855,0.84098 0.59375,1.0918 0.271896,0.25082 0.581267,0.40414 0.867188,0.54687 0.285921,0.14274 0.548458,0.27548 0.748047,0.45508 0.199588,0.1796 0.347618,0.39945 0.423828,0.77539 0.15127,0.74621 -0.190894,1.43256 -0.570313,2.16211 -0.379418,0.72955 -0.805144,1.51015 -0.5625,2.38281 0.422764,1.52045 0.939453,2.95313 0.939453,2.95313 l 0.08984,0.25 0.498047,-0.17969 -0.08984,-0.24805 c 0,0 -0.509807,-1.41998 -0.925781,-2.91601 -0.176724,-0.63558 0.139506,-1.26733 0.519531,-1.99805 0.380025,-0.73071 0.815194,-1.55423 0.621094,-2.51172 -0.09647,-0.4759 -0.31902,-0.8188 -0.589844,-1.0625 -0.270823,-0.2437 -0.580616,-0.39307 -0.865234,-0.53515 -0.284618,-0.14209 -0.544923,-0.27732 -0.746094,-0.46289 -0.201171,-0.18558 -0.352473,-0.41807 -0.431641,-0.8086 -0.330846,-1.63206 0.541016,-3.53711 0.541016,-3.53711 l 0.111328,-0.23828 z"
         id="path5306" /><g
         id="g5298"><path
           style="color:#000000;fill:#000000;-inkscape-stroke:none"
           d="m 53.900391,116.80078 -2.363282,0.84961 0.179688,0.49805 1.863281,-0.66992 0.669922,1.86328 0.498047,-0.17969 z"
           id="path5300" /></g></g><g
       id="path3401"><path
         style="color:#000000;fill:#000000;stroke-linecap:square;-inkscape-stroke:none"
         d="m 57.341797,104.52539 v 0.5293 h 0.265625 100.564448 0.26563 v -0.5293 H 158.17187 57.607422 Z"
         id="path5372" /><g
         id="g5358"><path
           style="color:#000000;fill:#000000;-inkscape-stroke:none"
           d="m 156.9043,103.01563 -0.375,0.375 1.40039,1.40039 -1.40039,1.40039 0.375,0.375 1.77343,-1.77539 z"
           id="path5366" /><path
           style="color:#000000;fill:#000000;-inkscape-stroke:none"
           d="m 58.634299,103.01563 0.373047,0.375 -1.40039,1.40039 1.40039,1.40039 -0.373047,0.375 -1.77539,-1.77539 z"
           id="path5360" /></g></g><path
       style="fill:#000000;stroke:#000000;stroke-width:0.529167;stroke-linecap:square;stroke-dasharray:0.529167, 1.5875;stroke-dashoffset:0"
       d="m 158.17224,104.79088 v 10.58334"
       id="path5168" /><g
       aria-label="ð“"
       id="text5438"
       style="font-size:5.64444px;font-family:Montserrat;-inkscape-font-specification:Montserrat;stroke-width:0.529167;stroke-linecap:square;stroke-dasharray:0.529167, 1.5875"><path
         d="m 67.835526,126.46245 c 0.880532,-0.0508 1.777998,-0.72813 1.777998,-1.67075 0,-0.67733 -0.575733,-1.05551 -1.202265,-1.07809 l 0.208844,-0.88053 h -0.163689 l -0.270933,0.88053 c -0.908755,0.0339 -1.896532,0.76765 -1.896532,1.73849 0,0.63782 0.519289,0.97649 1.10631,1.01035 l -0.321733,1.1176 h 0.519289 z m 0.970843,-2.03199 c 0,0.53057 -0.310444,1.80057 -0.942621,1.86831 l 0.519288,-2.42711 c 0.321734,0.0226 0.423333,0.27093 0.423333,0.5588 z m -0.671688,-0.5588 -0.688622,2.42711 c -0.276577,-0.0282 -0.338666,-0.28787 -0.338666,-0.52494 0,-0.58702 0.3048,-1.84573 1.027288,-1.90217 z"
         id="path5500" /></g><g
       aria-label="T0"
       id="text5442"
       style="font-size:5.64444px;font-family:Montserrat;-inkscape-font-specification:Montserrat;stroke-width:0.529167;stroke-linecap:square;stroke-dasharray:0.529167, 1.5875"><path
         d="m 27.561529,139.23325 v -3.58987 h -1.388532 v -0.36124 h 3.194753 v 0.36124 h -1.388532 v 3.58987 z"
         id="path5473" /><path
         d="m 30.604726,140.38415 q -0.29718,0 -0.52832,-0.1541 -0.23114,-0.15776 -0.363219,-0.4476 -0.13208,-0.29351 -0.13208,-0.70443 0,-0.41091 0.13208,-0.70075 0.132079,-0.29351 0.363219,-0.44761 0.23114,-0.15776 0.52832,-0.15776 0.29718,0 0.528319,0.15776 0.23114,0.1541 0.36322,0.44761 0.135749,0.28984 0.135749,0.70075 0,0.41092 -0.135749,0.70443 -0.13208,0.28984 -0.36322,0.4476 -0.231139,0.1541 -0.528319,0.1541 z m 0,-0.24215 q 0.227471,0 0.39624,-0.12107 0.168768,-0.12474 0.264159,-0.35955 0.09539,-0.23848 0.09539,-0.58336 0,-0.34487 -0.09539,-0.57968 -0.09539,-0.23848 -0.264159,-0.35955 -0.168769,-0.12474 -0.39624,-0.12474 -0.220133,0 -0.392571,0.12474 -0.172438,0.12107 -0.267829,0.35955 -0.09539,0.23481 -0.09539,0.57968 0,0.34488 0.09539,0.58336 0.09539,0.23481 0.267829,0.35955 0.172438,0.12107 0.392571,0.12107 z"
         id="path5475" /></g><g
       aria-label="Ti"
       id="text5448"
       style="font-size:5.64444px;font-family:Montserrat;-inkscape-font-specification:Montserrat;stroke-width:0.529167;stroke-linecap:square;stroke-dasharray:0.529167, 1.5875"><path
         d="m 42.686195,148.72745 v -3.58987 h -1.388532 v -0.36124 h 3.194753 v 0.36124 h -1.388532 v 3.58987 z"
         id="path5482" /><path
         d="m 44.878211,149.85634 v -1.92617 h 0.26049 v 1.92617 z m 0.132079,-2.35176 q -0.08071,0 -0.135748,-0.055 -0.05503,-0.055 -0.05503,-0.13208 0,-0.077 0.05503,-0.12841 0.05503,-0.055 0.135748,-0.055 0.08072,0 0.135749,0.0514 0.05503,0.0514 0.05503,0.12841 0,0.0807 -0.05503,0.13575 -0.05136,0.055 -0.135749,0.055 z"
         id="path5484" /></g><g
       aria-label="r0"
       id="text5454"
       style="font-size:5.64444px;font-family:Montserrat;-inkscape-font-specification:Montserrat;stroke-width:0.529167;stroke-linecap:square;stroke-dasharray:0.529167, 1.5875"><path
         d="m 74.790024,148.42319 v -2.96333 h 0.383822 v 0.80715 l -0.03951,-0.14111 q 0.124178,-0.33867 0.417689,-0.51364 0.293511,-0.18063 0.728133,-0.18063 v 0.38947 q -0.02258,0 -0.04516,0 -0.02258,-0.006 -0.04515,-0.006 -0.468489,0 -0.733777,0.28786 -0.265289,0.28222 -0.265289,0.80716 v 1.51271 z"
         id="path5491" /><path
         d="m 77.709041,149.57409 q -0.29718,0 -0.52832,-0.15409 -0.23114,-0.15777 -0.36322,-0.44761 -0.13208,-0.29351 -0.13208,-0.70442 0,-0.41092 0.13208,-0.70076 0.13208,-0.29351 0.36322,-0.44761 0.23114,-0.15776 0.52832,-0.15776 0.297179,0 0.528319,0.15776 0.23114,0.1541 0.36322,0.44761 0.135749,0.28984 0.135749,0.70076 0,0.41091 -0.135749,0.70442 -0.13208,0.28984 -0.36322,0.44761 -0.23114,0.15409 -0.528319,0.15409 z m 0,-0.24215 q 0.227471,0 0.396239,-0.12107 0.168769,-0.12474 0.26416,-0.35955 0.09539,-0.23848 0.09539,-0.58335 0,-0.34488 -0.09539,-0.57969 -0.09539,-0.23848 -0.26416,-0.35955 -0.168768,-0.12474 -0.396239,-0.12474 -0.220134,0 -0.392571,0.12474 -0.172438,0.12107 -0.267829,0.35955 -0.09539,0.23481 -0.09539,0.57969 0,0.34487 0.09539,0.58335 0.09539,0.23481 0.267829,0.35955 0.172437,0.12107 0.392571,0.12107 z"
         id="path5493" /></g><g
       aria-label="ri"
       id="text5460"
       style="font-size:5.64444px;font-family:Montserrat;-inkscape-font-specification:Montserrat;stroke-width:0.529167;stroke-linecap:square;stroke-dasharray:0.529167, 1.5875"><path
         d="m 60.450752,138.38934 v -2.96333 h 0.383822 v 0.80716 l -0.03951,-0.14111 q 0.124178,-0.33867 0.417689,-0.51365 0.29351,-0.18062 0.728132,-0.18062 v 0.38947 q -0.02258,0 -0.04515,0 -0.02258,-0.006 -0.04516,-0.006 -0.468488,0 -0.733777,0.28787 -0.265289,0.28222 -0.265289,0.80715 v 1.51271 z"
         id="path5464" /><path
         d="m 62.518588,139.51823 v -1.92616 h 0.26049 v 1.92616 z m 0.132079,-2.35175 q -0.08071,0 -0.135748,-0.055 -0.05503,-0.055 -0.05503,-0.13208 0,-0.077 0.05503,-0.12841 0.05503,-0.055 0.135748,-0.055 0.08072,0 0.135749,0.0514 0.05503,0.0514 0.05503,0.12841 0,0.0807 -0.05503,0.13575 -0.05136,0.055 -0.135749,0.055 z"
         id="path5466" /></g><g
       aria-label="L"
       id="text5567"
       style="font-size:5.64444px;font-family:Montserrat;-inkscape-font-specification:Montserrat;stroke-width:0.529167;stroke-linecap:square;stroke-dasharray:0.529167, 1.5875"><path
         d="m 106.45317,100.64583 v -3.95111 h 0.41768 v 3.58986 h 2.21263 v 0.36125 z"
         id="path5569" /></g></g></svg>
