<?xml version="1.0" encoding="UTF-8" standalone="no"?>
<!-- Created with Inkscape (http://www.inkscape.org/) -->

<svg
   width="333.66119"
   height="303.91034"
   viewBox="0 0 88.281189 80.409607"
   version="1.1"
   id="svg5796"
   xml:space="preserve"
   inkscape:version="1.2.1 (8a69933317, 2022-10-28, custom)"
   sodipodi:docname="Machine_conduction_linéaire.svg"
   xmlns:inkscape="http://www.inkscape.org/namespaces/inkscape"
   xmlns:sodipodi="http://sodipodi.sourceforge.net/DTD/sodipodi-0.dtd"
   xmlns="http://www.w3.org/2000/svg"
   xmlns:svg="http://www.w3.org/2000/svg"><sodipodi:namedview
     id="namedview5798"
     pagecolor="#ffffff"
     bordercolor="#000000"
     borderopacity="0.25"
     inkscape:showpageshadow="2"
     inkscape:pageopacity="0.0"
     inkscape:pagecheckerboard="0"
     inkscape:deskcolor="#d1d1d1"
     inkscape:document-units="px"
     showgrid="false"
     inkscape:zoom="1.3556054"
     inkscape:cx="230.15547"
     inkscape:cy="174.4608"
     inkscape:window-width="1366"
     inkscape:window-height="704"
     inkscape:window-x="0"
     inkscape:window-y="27"
     inkscape:window-maximized="1"
     inkscape:current-layer="layer1" /><defs
     id="defs5793" /><g
     inkscape:label="Layer 1"
     inkscape:groupmode="layer"
     id="layer1"
     transform="translate(-60.798494,-152.69691)"><rect
       style="fill:none;stroke:#000000;stroke-width:0.529167;stroke-linecap:square;stroke-dasharray:none"
       id="rect5929"
       width="44.450001"
       height="68.262497"
       x="81.509071"
       y="164.57944" /><path
       style="fill:none;stroke:#000000;stroke-width:0.529167;stroke-linecap:square;stroke-dasharray:none"
       d="M 81.509073,198.71069 H 125.95908"
       id="path6294" /><path
       style="fill:none;stroke:#000000;stroke-width:0.529167;stroke-linecap:square;stroke-dasharray:none"
       d="M 120.03071,177.55778 H 148.8151"
       id="path6296" /><g
       aria-label="T1"
       id="text6300"
       style="font-size:4.23333px;font-family:Montserrat;-inkscape-font-specification:Montserrat;stroke-width:0.529167;stroke-linecap:square"><path
         d="m 112.46322,177.82236 v -2.6924 h -1.04139 v -0.27093 h 2.39606 v 0.27093 h -1.0414 v 2.6924 z"
         id="path1765" /><path
         d="m 114.74075,177.82236 v -2.83633 l 0.13547,0.14393 h -0.83397 v -0.27093 h 1.0033 v 2.96333 z"
         id="path1767" /></g><path
       style="fill:none;stroke:#000000;stroke-width:0.529167;stroke-linecap:square;stroke-dasharray:none"
       d="M 120.03071,182.84945 H 148.8151"
       id="path6302" /><g
       aria-label="T2"
       id="text6306"
       style="font-size:4.23333px;font-family:Montserrat;-inkscape-font-specification:Montserrat;stroke-width:0.529167;stroke-linecap:square"><path
         d="m 112.46322,183.11403 v -2.6924 h -1.04139 v -0.27093 h 2.39606 v 0.27093 h -1.0414 v 2.6924 z"
         id="path1774" /><path
         d="m 114.06384,183.11403 v -0.2159 l 1.2319,-1.2065 q 0.16933,-0.1651 0.254,-0.28787 0.0847,-0.127 0.1143,-0.23706 0.0296,-0.11007 0.0296,-0.20744 0,-0.25823 -0.1778,-0.4064 -0.17357,-0.14816 -0.51647,-0.14816 -0.26246,0 -0.46566,0.0804 -0.19897,0.0804 -0.3429,0.24977 l -0.2159,-0.18627 q 0.17356,-0.2032 0.4445,-0.31327 0.27093,-0.11006 0.60536,-0.11006 0.30057,0 0.5207,0.0974 0.22014,0.0931 0.33867,0.27517 0.12277,0.18203 0.12277,0.42757 0,0.14393 -0.0423,0.28363 -0.0381,0.1397 -0.14393,0.29633 -0.1016,0.1524 -0.30057,0.34714 l -1.1303,1.10913 -0.0847,-0.11853 h 1.83726 v 0.27093 z"
         id="path1776" /></g><path
       style="fill:none;stroke:#000000;stroke-width:0.529167;stroke-linecap:square;stroke-dasharray:none"
       d="M 120.03071,188.14112 H 148.8151"
       id="path6308" /><g
       aria-label="T3"
       id="text6312"
       style="font-size:4.23333px;font-family:Montserrat;-inkscape-font-specification:Montserrat;stroke-width:0.529167;stroke-linecap:square"><path
         d="m 112.46322,188.4057 v -2.6924 h -1.04139 v -0.27093 h 2.39606 v 0.27093 h -1.0414 v 2.6924 z"
         id="path1783" /><path
         d="m 114.98205,188.4311 q -0.32174,0 -0.6096,-0.1016 -0.28364,-0.10583 -0.4572,-0.2794 l 0.14816,-0.2413 q 0.14394,0.14817 0.38524,0.24553 0.24553,0.0974 0.5334,0.0974 0.3683,0 0.56303,-0.16087 0.19897,-0.16086 0.19897,-0.4318 0,-0.27093 -0.19474,-0.43179 -0.1905,-0.16087 -0.60536,-0.16087 h -0.21167 V 186.742 l 0.9144,-1.14723 0.0423,0.11853 h -1.651 v -0.27093 h 1.905 v 0.2159 l -0.9144,1.14723 -0.14816,-0.0974 h 0.1143 q 0.5334,0 0.79586,0.23706 0.2667,0.23707 0.2667,0.6096 0,0.24977 -0.11853,0.44873 -0.11853,0.19897 -0.35983,0.31327 -0.23707,0.1143 -0.5969,0.1143 z"
         id="path1785" /></g><path
       style="fill:none;stroke:#000000;stroke-width:0.529167;stroke-linecap:square;stroke-dasharray:none"
       d="M 120.03071,211.70172 H 148.8151"
       id="path6314" /><g
       aria-label="T6"
       id="text6318"
       style="font-size:4.23333px;font-family:Montserrat;-inkscape-font-specification:Montserrat;stroke-width:0.529167;stroke-linecap:square"><path
         d="m 112.46322,211.96631 v -2.6924 h -1.04139 v -0.27093 h 2.39606 v 0.27093 h -1.0414 v 2.6924 z"
         id="path1792" /><path
         d="m 115.18525,211.99171 q -0.3937,0 -0.66463,-0.17357 -0.27093,-0.1778 -0.41063,-0.508 -0.1397,-0.33443 -0.1397,-0.8001 0,-0.50376 0.16933,-0.84243 0.17356,-0.3429 0.47836,-0.51647 0.3048,-0.17356 0.70697,-0.17356 0.19897,0 0.381,0.0381 0.18203,0.0381 0.32173,0.12276 l -0.12276,0.24554 q -0.1143,-0.0762 -0.26247,-0.10584 -0.14817,-0.0339 -0.31327,-0.0339 -0.47836,0 -0.76623,0.3048 -0.28363,0.3048 -0.28363,0.91016 0,0.0931 0.008,0.23284 0.0127,0.13546 0.0508,0.27093 l -0.10583,-0.0804 q 0.0466,-0.22014 0.18203,-0.37254 0.13547,-0.15663 0.33867,-0.23706 0.2032,-0.0804 0.4445,-0.0804 0.29633,0 0.5207,0.11007 0.22437,0.11007 0.35137,0.30903 0.127,0.19897 0.127,0.4699 0,0.27517 -0.13124,0.4826 -0.13123,0.2032 -0.36406,0.3175 -0.2286,0.11007 -0.51647,0.11007 z m -0.0127,-0.25823 q 0.21167,0 0.37253,-0.0762 0.1651,-0.0804 0.25824,-0.22437 0.0931,-0.14817 0.0931,-0.3429 0,-0.2921 -0.2032,-0.46567 -0.19897,-0.17356 -0.54187,-0.17356 -0.2286,0 -0.39793,0.0847 -0.16933,0.0847 -0.2667,0.23284 -0.0974,0.14393 -0.0974,0.3302 0,0.16086 0.0889,0.30903 0.0889,0.14393 0.26247,0.23707 0.1778,0.0889 0.4318,0.0889 z"
         id="path1794" /></g><path
       style="fill:none;stroke:#000000;stroke-width:0.529167;stroke-linecap:square;stroke-dasharray:none"
       d="M 120.03071,216.99339 H 148.8151"
       id="path6320" /><g
       aria-label="T7"
       id="text6324"
       style="font-size:4.23333px;font-family:Montserrat;-inkscape-font-specification:Montserrat;stroke-width:0.529167;stroke-linecap:square"><path
         d="m 112.46322,217.25798 v -2.6924 h -1.04139 v -0.27093 h 2.39606 v 0.27093 h -1.0414 v 2.6924 z"
         id="path1801" /><path
         d="m 114.66031,217.25798 1.27847,-2.82786 0.0931,0.13546 h -1.83303 l 0.15663,-0.14816 v 0.70273 h -0.30056 v -0.8255 h 2.17593 v 0.2159 l -1.24037,2.74743 z"
         id="path1803" /></g><path
       style="fill:none;stroke:#000000;stroke-width:0.529167;stroke-linecap:square;stroke-dasharray:none"
       d="M 120.03071,222.28506 H 148.8151"
       id="path6326" /><g
       aria-label="T8"
       id="text6330"
       style="font-size:4.23333px;font-family:Montserrat;-inkscape-font-specification:Montserrat;stroke-width:0.529167;stroke-linecap:square"><path
         d="m 112.46322,222.54965 v -2.6924 h -1.04139 v -0.27093 h 2.39606 v 0.27093 h -1.0414 v 2.6924 z"
         id="path1810" /><path
         d="m 115.13869,222.57505 q -0.3556,0 -0.61384,-0.1016 -0.254,-0.1016 -0.3937,-0.2921 -0.13546,-0.19473 -0.13546,-0.4572 0,-0.254 0.13123,-0.4318 0.13547,-0.18203 0.38947,-0.2794 0.25823,-0.0974 0.6223,-0.0974 0.35983,0 0.61806,0.0974 0.25823,0.0974 0.3937,0.2794 0.1397,0.1778 0.1397,0.4318 0,0.26247 -0.1397,0.4572 -0.1397,0.1905 -0.39793,0.2921 -0.25824,0.1016 -0.61383,0.1016 z m 0,-0.25823 q 0.39369,0 0.61383,-0.16087 0.22436,-0.16086 0.22436,-0.43603 0,-0.27517 -0.22436,-0.4318 -0.22014,-0.16087 -0.61383,-0.16087 -0.3937,0 -0.61384,0.16087 -0.22013,0.15663 -0.22013,0.4318 0,0.27517 0.22013,0.43603 0.22014,0.16087 0.61384,0.16087 z m 0,-1.22767 q -0.3302,0 -0.56304,-0.0889 -0.2286,-0.0889 -0.35136,-0.254 -0.12277,-0.16933 -0.12277,-0.40216 0,-0.24554 0.127,-0.4191 0.13123,-0.1778 0.36407,-0.27094 0.23283,-0.0931 0.5461,-0.0931 0.31326,0 0.54609,0.0931 0.23707,0.0931 0.3683,0.27094 0.13124,0.17356 0.13124,0.4191 0,0.23283 -0.12277,0.40216 -0.12277,0.1651 -0.35983,0.254 -0.23283,0.0889 -0.56303,0.0889 z m 0,-0.2032 q 0.34713,0 0.54186,-0.14393 0.19473,-0.14393 0.19473,-0.38523 0,-0.254 -0.2032,-0.3937 -0.19896,-0.14394 -0.53339,-0.14394 -0.33444,0 -0.5334,0.14394 -0.19897,0.1397 -0.19897,0.38946 0,0.24554 0.1905,0.38947 0.19473,0.14393 0.54187,0.14393 z"
         id="path1812" /></g><g
       id="path6413"><path
         style="color:#000000;fill:#000000;stroke-width:0.264583;stroke-linecap:square;-inkscape-stroke:none"
         d="M 61.649891,221.56465 H 86.800738"
         id="path10497" /><path
         style="color:#000000;fill:#000000;stroke-linecap:square;-inkscape-stroke:none"
         d="m 61.517578,221.43164 v 0.26563 h 0.132813 25.15039 0.132813 v -0.26563 h -0.132813 -25.15039 z"
         id="path10499" /><g
         id="g10489"><path
           style="color:#000000;fill:#000000;-inkscape-stroke:none"
           d="m 86.166016,220.67773 -0.185547,0.1875 0.699218,0.69922 -0.699218,0.70117 0.185547,0.18555 0.888671,-0.88672 z"
           id="path10491" /></g></g><g
       id="path6443"><path
         style="color:#000000;fill:#000000;stroke-width:0.264583;stroke-linecap:square;-inkscape-stroke:none"
         d="M 101.36825,226.07575 H 76.217404"
         id="path10511" /><path
         style="color:#000000;fill:#000000;stroke-linecap:square;-inkscape-stroke:none"
         d="m 76.085937,225.94336 v 0.26562 h 0.13086 25.152343 0.13086 v -0.26562 h -0.13086 -25.152343 z"
         id="path10513" /><g
         id="g10503"><path
           style="color:#000000;fill:#000000;-inkscape-stroke:none"
           d="m 76.851562,225.1875 -0.886718,0.88867 0.886718,0.88672 0.1875,-0.1875 -0.701171,-0.69922 0.701171,-0.70117 z"
           id="path10505" /></g></g><g
       aria-label="Entrée eau"
       id="text7195"
       style="font-size:2.82222px;font-family:Montserrat;-inkscape-font-specification:Montserrat;stroke-width:0.264583;stroke-linecap:square"><path
         d="m 60.98476,219.57104 h 1.044222 v 0.1778 H 60.98476 Z m 0.02258,0.91158 h 1.188155 v 0.18062 h -1.396999 v -1.97556 h 1.354666 v 0.18063 h -1.145822 z"
         id="path1819" /><path
         d="m 63.400577,219.16746 q 0.180622,0 0.316089,0.0706 0.138289,0.0677 0.214489,0.20884 0.07902,0.14111 0.07902,0.3556 v 0.86078 h -0.200378 v -0.84102 q 0,-0.23425 -0.118533,-0.35278 -0.115711,-0.12136 -0.327378,-0.12136 -0.158044,0 -0.276577,0.0649 -0.115711,0.0621 -0.180622,0.18344 -0.06209,0.11853 -0.06209,0.28787 v 0.77893 h -0.200378 v -1.48167 h 0.191911 v 0.4064 l -0.03104,-0.0762 q 0.07055,-0.16086 0.225777,-0.25117 0.155223,-0.0931 0.369711,-0.0931 z"
         id="path1821" /><path
         d="m 65.020528,220.67735 q -0.208844,0 -0.321733,-0.11289 -0.112889,-0.11289 -0.112889,-0.31891 v -1.39135 h 0.200378 v 1.38006 q 0,0.12982 0.06491,0.20038 0.06773,0.0705 0.191911,0.0705 0.132644,0 0.220133,-0.0762 l 0.07056,0.14394 q -0.05927,0.0536 -0.143934,0.079 -0.08184,0.0254 -0.169333,0.0254 z m -0.699911,-1.32927 v -0.16651 h 0.917222 v 0.16651 z"
         id="path1823" /><path
         d="m 65.697856,220.66324 v -1.48167 h 0.191911 v 0.40358 l -0.01976,-0.0706 q 0.06209,-0.16933 0.208845,-0.25682 0.146755,-0.0903 0.364066,-0.0903 v 0.19474 q -0.01129,0 -0.02258,0 -0.01129,-0.003 -0.02258,-0.003 -0.234244,0 -0.366888,0.14394 -0.132645,0.14111 -0.132645,0.40357 v 0.75636 z"
         id="path1825" /><path
         d="m 67.422977,220.67735 q -0.231423,0 -0.4064,-0.096 -0.174978,-0.0988 -0.273756,-0.26811 -0.09878,-0.17215 -0.09878,-0.39229 0,-0.22013 0.09313,-0.38946 0.09596,-0.16933 0.259644,-0.26529 0.166511,-0.0988 0.372533,-0.0988 0.208845,0 0.369711,0.096 0.163689,0.0931 0.256822,0.26529 0.09313,0.16933 0.09313,0.39228 0,0.0141 -0.0028,0.0311 0,0.0141 0,0.031 h -1.289754 v -0.14957 h 1.18251 l -0.07902,0.0593 q 0,-0.16086 -0.07056,-0.28504 -0.06773,-0.127 -0.186266,-0.19756 -0.118534,-0.0705 -0.273756,-0.0705 -0.1524,0 -0.273755,0.0705 -0.121355,0.0706 -0.189089,0.19756 -0.06773,0.127 -0.06773,0.29069 v 0.031 q 0,0.16933 0.07338,0.29916 0.0762,0.127 0.208844,0.20037 0.135467,0.0706 0.307622,0.0706 0.135467,0 0.251178,-0.048 0.118533,-0.048 0.203199,-0.14675 l 0.112889,0.12982 q -0.09878,0.11853 -0.248355,0.18062 -0.146756,0.0621 -0.324555,0.0621 z m -0.239889,-1.7272 0.386644,-0.34995 h 0.268111 l -0.4572,0.34995 z"
         id="path1827" /><path
         d="m 69.127592,220.67735 q -0.231422,0 -0.4064,-0.096 -0.174977,-0.0988 -0.273755,-0.26811 -0.09878,-0.17215 -0.09878,-0.39229 0,-0.22013 0.09313,-0.38946 0.09595,-0.16933 0.259644,-0.26529 0.166511,-0.0988 0.372533,-0.0988 0.208844,0 0.369711,0.096 0.163689,0.0931 0.256822,0.26529 0.09313,0.16933 0.09313,0.39228 0,0.0141 -0.0028,0.0311 0,0.0141 0,0.031 h -1.289755 v -0.14957 h 1.18251 l -0.07902,0.0593 q 0,-0.16086 -0.07055,-0.28504 -0.06773,-0.127 -0.186267,-0.19756 -0.118533,-0.0705 -0.273755,-0.0705 -0.1524,0 -0.273755,0.0705 -0.121356,0.0706 -0.189089,0.19756 -0.06773,0.127 -0.06773,0.29069 v 0.031 q 0,0.16933 0.07338,0.29916 0.0762,0.127 0.208845,0.20037 0.135466,0.0706 0.307622,0.0706 0.135466,0 0.251177,-0.048 0.118533,-0.048 0.2032,-0.14675 l 0.112889,0.12982 q -0.09878,0.11853 -0.248356,0.18062 -0.146755,0.0621 -0.324555,0.0621 z"
         id="path1829" /><path
         d="m 71.571627,220.67735 q -0.231422,0 -0.4064,-0.096 -0.174977,-0.0988 -0.273755,-0.26811 -0.09878,-0.17215 -0.09878,-0.39229 0,-0.22013 0.09313,-0.38946 0.09595,-0.16933 0.259644,-0.26529 0.166511,-0.0988 0.372533,-0.0988 0.208844,0 0.369711,0.096 0.163689,0.0931 0.256822,0.26529 0.09313,0.16933 0.09313,0.39228 0,0.0141 -0.0028,0.0311 0,0.0141 0,0.031 h -1.289755 v -0.14957 h 1.182511 l -0.07902,0.0593 q 0,-0.16086 -0.07055,-0.28504 -0.06773,-0.127 -0.186267,-0.19756 -0.118533,-0.0705 -0.273755,-0.0705 -0.1524,0 -0.273755,0.0705 -0.121356,0.0706 -0.189089,0.19756 -0.06773,0.127 -0.06773,0.29069 v 0.031 q 0,0.16933 0.07338,0.29916 0.0762,0.127 0.208845,0.20037 0.135466,0.0706 0.307622,0.0706 0.135466,0 0.251177,-0.048 0.118533,-0.048 0.2032,-0.14675 l 0.112889,0.12982 q -0.09878,0.11853 -0.248356,0.18062 -0.146755,0.0621 -0.324555,0.0621 z"
         id="path1831" /><path
         d="m 73.533062,220.66324 v -0.32738 l -0.0085,-0.0536 v -0.54751 q 0,-0.18909 -0.107244,-0.29069 -0.104423,-0.1016 -0.313267,-0.1016 -0.143933,0 -0.273755,0.048 -0.129822,0.048 -0.220133,0.127 l -0.09031,-0.14958 q 0.112888,-0.096 0.270933,-0.14676 0.158044,-0.0536 0.333022,-0.0536 0.287866,0 0.443088,0.14394 0.158045,0.14111 0.158045,0.43179 v 0.92005 z m -0.510822,0.0141 q -0.166511,0 -0.290689,-0.0536 -0.121355,-0.0564 -0.186266,-0.1524 -0.06491,-0.0988 -0.06491,-0.22578 0,-0.11571 0.05362,-0.20884 0.05644,-0.096 0.180622,-0.1524 0.127,-0.0593 0.338666,-0.0593 h 0.510822 v 0.14958 h -0.505177 q -0.214489,0 -0.299156,0.0762 -0.08184,0.0762 -0.08184,0.18909 0,0.127 0.09878,0.2032 0.09878,0.0762 0.276577,0.0762 0.169333,0 0.290689,-0.0762 0.124178,-0.079 0.180622,-0.22578 l 0.04516,0.13829 q -0.05644,0.14675 -0.197556,0.23424 -0.138289,0.0875 -0.349955,0.0875 z"
         id="path1833" /><path
         d="m 74.882078,220.67735 q -0.189089,0 -0.3302,-0.0706 -0.141111,-0.0705 -0.220133,-0.21166 -0.0762,-0.14111 -0.0762,-0.35278 v -0.86078 h 0.200378 v 0.8382 q 0,0.23707 0.115711,0.35842 0.118533,0.11854 0.330199,0.11854 0.155223,0 0.268111,-0.0621 0.115711,-0.0649 0.174978,-0.18627 0.06209,-0.12135 0.06209,-0.29069 v -0.77611 h 0.200377 v 1.48167 h -0.191911 v -0.4064 l 0.03105,0.0734 q -0.07056,0.16369 -0.220133,0.25682 -0.146756,0.0903 -0.344311,0.0903 z"
         id="path1835" /></g><g
       aria-label="Sortie eau"
       id="text7943"
       style="font-size:2.82222px;font-family:Montserrat;-inkscape-font-specification:Montserrat;stroke-width:0.264583;stroke-linecap:square"><path
         d="m 88.394185,225.19128 q -0.220133,0 -0.423333,-0.0706 -0.200378,-0.0734 -0.310444,-0.18626 l 0.08184,-0.16087 q 0.104422,0.1016 0.2794,0.17216 0.1778,0.0677 0.372533,0.0677 0.186266,0 0.301977,-0.0452 0.118534,-0.048 0.172156,-0.127 0.05644,-0.079 0.05644,-0.17497 0,-0.11571 -0.06773,-0.18627 -0.06491,-0.0705 -0.172155,-0.11007 -0.107245,-0.0423 -0.237067,-0.0734 -0.129822,-0.031 -0.259644,-0.0649 -0.129822,-0.0367 -0.239889,-0.096 -0.107244,-0.0593 -0.174977,-0.15522 -0.06491,-0.0988 -0.06491,-0.25682 0,-0.14676 0.0762,-0.26812 0.07902,-0.12417 0.239889,-0.19755 0.160867,-0.0762 0.412044,-0.0762 0.166511,0 0.3302,0.048 0.163689,0.0452 0.282222,0.127 l -0.07056,0.16651 q -0.126999,-0.0847 -0.270933,-0.12418 -0.141111,-0.0395 -0.273755,-0.0395 -0.1778,0 -0.293511,0.048 -0.115711,0.048 -0.172155,0.12982 -0.05362,0.079 -0.05362,0.18062 0,0.11571 0.06491,0.18627 0.06773,0.0705 0.174977,0.11006 0.110067,0.0395 0.239889,0.0706 0.129822,0.031 0.256822,0.0677 0.129822,0.0367 0.237066,0.096 0.110067,0.0564 0.174978,0.1524 0.06773,0.0959 0.06773,0.25118 0,0.14393 -0.07902,0.26811 -0.07902,0.12135 -0.242711,0.19755 -0.160866,0.0734 -0.414866,0.0734 z"
         id="path1856" /><path
         d="m 90.146783,225.18846 q -0.214489,0 -0.386644,-0.096 -0.169333,-0.0988 -0.268111,-0.26811 -0.09878,-0.17215 -0.09878,-0.39229 0,-0.22295 0.09878,-0.39229 0.09878,-0.16933 0.268111,-0.26528 0.169333,-0.096 0.386644,-0.096 0.220133,0 0.389466,0.096 0.172156,0.0959 0.268111,0.26528 0.09878,0.16934 0.09878,0.39229 0,0.22014 -0.09878,0.39229 -0.09596,0.16933 -0.268111,0.26811 -0.172155,0.096 -0.389466,0.096 z m 0,-0.1778 q 0.160867,0 0.285044,-0.0706 0.124178,-0.0734 0.194733,-0.2032 0.07338,-0.13264 0.07338,-0.3048 0,-0.17497 -0.07338,-0.3048 -0.07055,-0.12982 -0.194733,-0.20037 -0.124177,-0.0734 -0.282222,-0.0734 -0.158044,0 -0.282222,0.0734 -0.124177,0.0705 -0.197555,0.20037 -0.07338,0.12983 -0.07338,0.3048 0,0.17216 0.07338,0.3048 0.07338,0.12982 0.197555,0.2032 0.124178,0.0706 0.2794,0.0706 z"
         id="path1858" /><path
         d="m 91.312357,225.17435 v -1.48167 h 0.191911 v 0.40358 l -0.01976,-0.0706 q 0.06209,-0.16933 0.208845,-0.25682 0.146755,-0.0903 0.364066,-0.0903 v 0.19473 q -0.01129,0 -0.02258,0 -0.01129,-0.003 -0.02258,-0.003 -0.234244,0 -0.366888,0.14393 -0.132645,0.14112 -0.132645,0.40358 v 0.75636 z"
         id="path1860" /><path
         d="m 92.954884,225.18846 q -0.208844,0 -0.321733,-0.11289 -0.112889,-0.11289 -0.112889,-0.31891 v -1.39136 h 0.200378 v 1.38007 q 0,0.12982 0.06491,0.20038 0.06773,0.0705 0.191911,0.0705 0.132644,0 0.220133,-0.0762 l 0.07056,0.14394 q -0.05927,0.0536 -0.143934,0.079 -0.08184,0.0254 -0.169333,0.0254 z m -0.69991,-1.32927 v -0.16651 h 0.917221 v 0.16651 z"
         id="path1862" /><path
         d="m 93.632213,225.17435 v -1.48167 h 0.200377 v 1.48167 z m 0.101599,-1.80905 q -0.06209,0 -0.104422,-0.0423 -0.04233,-0.0423 -0.04233,-0.1016 0,-0.0593 0.04233,-0.0988 0.04233,-0.0423 0.104422,-0.0423 0.06209,0 0.104423,0.0395 0.04233,0.0395 0.04233,0.0988 0,0.0621 -0.04233,0.10442 -0.03951,0.0423 -0.104423,0.0423 z"
         id="path1864" /><path
         d="m 95.020742,225.18846 q -0.231422,0 -0.4064,-0.096 -0.174977,-0.0988 -0.273755,-0.26811 -0.09878,-0.17215 -0.09878,-0.39229 0,-0.22013 0.09313,-0.38946 0.09596,-0.16934 0.259644,-0.26529 0.166511,-0.0988 0.372533,-0.0988 0.208844,0 0.369711,0.096 0.163688,0.0931 0.256822,0.26528 0.09313,0.16934 0.09313,0.39229 0,0.0141 -0.0028,0.0311 0,0.0141 0,0.031 h -1.289755 v -0.14958 h 1.18251 l -0.07902,0.0593 q 0,-0.16087 -0.07055,-0.28504 -0.06773,-0.127 -0.186267,-0.19756 -0.118533,-0.0705 -0.273755,-0.0705 -0.1524,0 -0.273756,0.0705 -0.121355,0.0706 -0.189088,0.19756 -0.06773,0.127 -0.06773,0.29069 v 0.031 q 0,0.16933 0.07338,0.29916 0.0762,0.12699 0.208844,0.20037 0.135467,0.0706 0.307622,0.0706 0.135467,0 0.251178,-0.048 0.118533,-0.048 0.2032,-0.14676 l 0.112889,0.12983 q -0.09878,0.11853 -0.248356,0.18062 -0.146755,0.0621 -0.324555,0.0621 z"
         id="path1866" /><path
         d="m 97.464778,225.18846 q -0.231423,0 -0.4064,-0.096 -0.174978,-0.0988 -0.273756,-0.26811 -0.09878,-0.17215 -0.09878,-0.39229 0,-0.22013 0.09313,-0.38946 0.09596,-0.16934 0.259644,-0.26529 0.166511,-0.0988 0.372533,-0.0988 0.208845,0 0.369711,0.096 0.163689,0.0931 0.256822,0.26528 0.09313,0.16934 0.09313,0.39229 0,0.0141 -0.0028,0.0311 0,0.0141 0,0.031 h -1.289754 v -0.14958 h 1.18251 l -0.07902,0.0593 q 0,-0.16087 -0.07056,-0.28504 -0.06773,-0.127 -0.186266,-0.19756 -0.118534,-0.0705 -0.273756,-0.0705 -0.1524,0 -0.273755,0.0705 -0.121355,0.0706 -0.189089,0.19756 -0.06773,0.127 -0.06773,0.29069 v 0.031 q 0,0.16933 0.07338,0.29916 0.0762,0.12699 0.208844,0.20037 0.135467,0.0706 0.307622,0.0706 0.135467,0 0.251178,-0.048 0.118533,-0.048 0.203199,-0.14676 l 0.112889,0.12983 q -0.09878,0.11853 -0.248355,0.18062 -0.146756,0.0621 -0.324555,0.0621 z"
         id="path1868" /><path
         d="m 99.426211,225.17435 v -0.32738 l -0.0085,-0.0536 v -0.54751 q 0,-0.18909 -0.107244,-0.29069 -0.104422,-0.1016 -0.313266,-0.1016 -0.143934,0 -0.273756,0.048 -0.129822,0.048 -0.220133,0.127 l -0.09031,-0.14958 q 0.112889,-0.096 0.270933,-0.14676 0.158044,-0.0536 0.333022,-0.0536 0.287867,0 0.443089,0.14393 0.158044,0.14111 0.158044,0.4318 v 0.92005 z m -0.510822,0.0141 q -0.166511,0 -0.290688,-0.0536 -0.121356,-0.0564 -0.186267,-0.1524 -0.06491,-0.0988 -0.06491,-0.22578 0,-0.11571 0.05362,-0.20885 0.05645,-0.0959 0.180622,-0.1524 0.127,-0.0593 0.338667,-0.0593 h 0.510821 v 0.14958 h -0.505177 q -0.214489,0 -0.299155,0.0762 -0.08185,0.0762 -0.08185,0.18908 0,0.127 0.09878,0.2032 0.09878,0.0762 0.276578,0.0762 0.169333,0 0.290688,-0.0762 0.124178,-0.079 0.180622,-0.22577 l 0.04516,0.13828 q -0.05645,0.14676 -0.197556,0.23425 -0.138288,0.0875 -0.349955,0.0875 z"
         id="path1870" /><path
         d="m 100.77523,225.18846 q -0.18909,0 -0.3302,-0.0706 -0.14111,-0.0705 -0.22014,-0.21166 -0.0762,-0.14111 -0.0762,-0.35278 v -0.86078 h 0.20038 v 0.8382 q 0,0.23707 0.11571,0.35842 0.11854,0.11854 0.3302,0.11854 0.15522,0 0.26811,-0.0621 0.11571,-0.0649 0.17498,-0.18627 0.0621,-0.12135 0.0621,-0.29069 v -0.77611 h 0.20038 v 1.48167 h -0.19191 v -0.4064 l 0.031,0.0734 q -0.0705,0.16369 -0.22013,0.25683 -0.14676,0.0903 -0.34431,0.0903 z"
         id="path1872" /></g><g
       id="path9456"><path
         style="color:#000000;fill:#000000;stroke-width:0.264583;stroke-linecap:square;-inkscape-stroke:none"
         d="m 87.845542,184.16216 v 9.25686"
         id="path10455" /><path
         style="color:#000000;fill:#000000;stroke-linecap:square;-inkscape-stroke:none"
         d="m 87.712891,184.0293 v 0.13281 9.25781 0.13086 h 0.265625 v -0.13086 -9.25781 -0.13281 z"
         id="path10457" /><g
         id="g10447"><path
           style="color:#000000;fill:#000000;-inkscape-stroke:none"
           d="m 87.144531,192.59766 -0.185547,0.1875 0.886719,0.88671 0.886719,-0.88671 -0.1875,-0.1875 -0.699219,0.70117 z"
           id="path10449" /></g></g><g
       id="path9504"><path
         style="color:#000000;fill:#000000;stroke-width:0.264583;stroke-linecap:square;-inkscape-stroke:none"
         d="m 87.845542,203.87007 v 9.25686"
         id="path10483" /><path
         style="color:#000000;fill:#000000;stroke-linecap:square;-inkscape-stroke:none"
         d="m 87.712891,203.73828 v 0.13086 9.25781 0.13282 h 0.265625 v -0.13282 -9.25781 -0.13086 z"
         id="path10485" /><g
         id="g10475"><path
           style="color:#000000;fill:#000000;-inkscape-stroke:none"
           d="m 87.144531,212.30664 -0.185547,0.18555 0.886719,0.88867 0.886719,-0.88867 -0.1875,-0.18555 -0.699219,0.69922 z"
           id="path10477" /></g></g><g
       aria-label="Q"
       id="text9510"
       style="font-size:2.82223px;font-family:Montserrat;-inkscape-font-specification:Montserrat;stroke-width:0.264583;stroke-linecap:square"><path
         d="m 90.829753,192.23858 q -0.222956,0 -0.414867,-0.0734 -0.18909,-0.0762 -0.330201,-0.21166 -0.13829,-0.13829 -0.217312,-0.31891 -0.0762,-0.18345 -0.0762,-0.40076 0,-0.21731 0.0762,-0.39794 0.07902,-0.18344 0.217312,-0.31891 0.141111,-0.13829 0.330201,-0.21167 0.189089,-0.0762 0.414867,-0.0762 0.222957,0 0.412046,0.0762 0.189089,0.0734 0.327379,0.20885 0.141111,0.13547 0.217311,0.31891 0.07902,0.18345 0.07902,0.40076 0,0.21731 -0.07902,0.40076 -0.0762,0.18344 -0.217311,0.31891 -0.13829,0.13546 -0.327379,0.21166 -0.189089,0.0734 -0.412046,0.0734 z m 0.646291,0.37536 q -0.09031,0 -0.174978,-0.0226 -0.08467,-0.0226 -0.172156,-0.0734 -0.08467,-0.048 -0.174978,-0.127 -0.09031,-0.079 -0.197557,-0.19191 l 0.228601,-0.0564 q 0.08749,0.10442 0.169334,0.17215 0.08467,0.0677 0.163689,0.0988 0.08185,0.0339 0.160867,0.0339 0.220134,0 0.375357,-0.18063 l 0.1016,0.12136 q -0.186267,0.22578 -0.479779,0.22578 z m -0.646291,-0.56162 q 0.177801,0 0.327379,-0.0593 0.152401,-0.0621 0.262468,-0.17498 0.112889,-0.11289 0.174978,-0.25964 0.06209,-0.14958 0.06209,-0.32456 0,-0.1778 -0.06209,-0.32456 -0.06209,-0.14958 -0.174978,-0.25964 -0.110067,-0.11289 -0.262468,-0.17216 -0.149578,-0.0621 -0.327379,-0.0621 -0.1778,0 -0.3302,0.0621 -0.152401,0.0593 -0.26529,0.17216 -0.110067,0.11006 -0.174978,0.25964 -0.06209,0.14676 -0.06209,0.32456 0,0.17498 0.06209,0.32456 0.06491,0.14675 0.174978,0.25964 0.112889,0.11289 0.26529,0.17498 0.1524,0.0593 0.3302,0.0593 z"
         id="path1893" /></g><g
       aria-label="Q"
       id="text9514"
       style="font-size:2.82223px;font-family:Montserrat;-inkscape-font-specification:Montserrat;stroke-width:0.264583;stroke-linecap:square"><path
         d="m 90.829753,211.94648 q -0.222956,0 -0.414867,-0.0734 -0.18909,-0.0762 -0.330201,-0.21167 -0.13829,-0.13829 -0.217312,-0.31891 -0.0762,-0.18345 -0.0762,-0.40076 0,-0.21731 0.0762,-0.39793 0.07902,-0.18345 0.217312,-0.31892 0.141111,-0.13829 0.330201,-0.21166 0.189089,-0.0762 0.414867,-0.0762 0.222957,0 0.412046,0.0762 0.189089,0.0734 0.327379,0.20884 0.141111,0.13547 0.217311,0.31891 0.07902,0.18345 0.07902,0.40076 0,0.21731 -0.07902,0.40076 -0.0762,0.18344 -0.217311,0.31891 -0.13829,0.13547 -0.327379,0.21167 -0.189089,0.0734 -0.412046,0.0734 z m 0.646291,0.37536 q -0.09031,0 -0.174978,-0.0226 -0.08467,-0.0226 -0.172156,-0.0734 -0.08467,-0.048 -0.174978,-0.127 -0.09031,-0.079 -0.197557,-0.19191 l 0.228601,-0.0564 q 0.08749,0.10442 0.169334,0.17215 0.08467,0.0677 0.163689,0.0988 0.08185,0.0339 0.160867,0.0339 0.220134,0 0.375357,-0.18062 l 0.1016,0.12135 q -0.186267,0.22578 -0.479779,0.22578 z m -0.646291,-0.56162 q 0.177801,0 0.327379,-0.0593 0.152401,-0.0621 0.262468,-0.17498 0.112889,-0.11289 0.174978,-0.25964 0.06209,-0.14958 0.06209,-0.32456 0,-0.1778 -0.06209,-0.32456 -0.06209,-0.14958 -0.174978,-0.25964 -0.110067,-0.11289 -0.262468,-0.17216 -0.149578,-0.0621 -0.327379,-0.0621 -0.1778,0 -0.3302,0.0621 -0.152401,0.0593 -0.26529,0.17216 -0.110067,0.11006 -0.174978,0.25964 -0.06209,0.14676 -0.06209,0.32456 0,0.17498 0.06209,0.32456 0.06491,0.14675 0.174978,0.25964 0.112889,0.11289 0.26529,0.17498 0.1524,0.0593 0.3302,0.0593 z"
         id="path1898" /></g><g
       id="path10311"><path
         style="color:#000000;fill:#000000;stroke-width:0.264583;stroke-linecap:square;-inkscape-stroke:none"
         d="m 93.460444,154.80476 v 9.25686"
         id="path10469" /><path
         style="color:#000000;fill:#000000;stroke-linecap:square;-inkscape-stroke:none"
         d="m 93.328125,154.67187 v 0.13282 9.25781 0.13086 h 0.263672 v -0.13086 -9.25781 -0.13282 z"
         id="path10471" /><g
         id="g10461"><path
           style="color:#000000;fill:#000000;-inkscape-stroke:none"
           d="m 92.759766,163.24023 -0.1875,0.1875 0.888671,0.88672 0.886719,-0.88672 -0.1875,-0.1875 -0.699219,0.70118 z"
           id="path10463" /></g></g><g
       aria-label="V, I"
       id="text10317"
       style="font-size:2.82223px;font-family:Montserrat;-inkscape-font-specification:Montserrat;stroke-width:0.264583;stroke-linecap:square"><path
         d="m 95.231098,154.67247 -0.874891,-1.97556 h 0.225778 l 0.818447,1.85985 h -0.124178 l 0.824091,-1.85985 h 0.211667 l -0.874891,1.97556 z"
         id="path1903" /><path
         d="m 96.373721,155.08452 0.124178,-0.52212 0.02258,0.12136 q -0.06491,0 -0.110067,-0.0423 -0.04233,-0.0423 -0.04233,-0.11007 0,-0.0677 0.04233,-0.11007 0.04516,-0.0423 0.107245,-0.0423 0.06491,0 0.104422,0.0452 0.04233,0.0452 0.04233,0.10725 0,0.0226 -0.0028,0.0452 -0.0028,0.0226 -0.01129,0.0508 -0.0085,0.0282 -0.02258,0.0677 l -0.118534,0.38947 z"
         id="path1905" /><path
         d="m 97.875145,154.67247 v -1.97556 h 0.208845 v 1.97556 z"
         id="path1907" /></g></g></svg>
