<?xml version="1.0" encoding="UTF-8" standalone="no"?>
<!-- Created with Inkscape (http://www.inkscape.org/) -->

<svg
   width="425.11969"
   height="342.59195"
   viewBox="0 0 112.47958 90.644119"
   version="1.1"
   id="svg5"
   sodipodi:docname="PageDeGarde_img_TP1.svg"
   inkscape:version="1.2.1 (8a69933317, 2022-10-28, custom)"
   xmlns:inkscape="http://www.inkscape.org/namespaces/inkscape"
   xmlns:sodipodi="http://sodipodi.sourceforge.net/DTD/sodipodi-0.dtd"
   xmlns="http://www.w3.org/2000/svg"
   xmlns:svg="http://www.w3.org/2000/svg">
  <sodipodi:namedview
     id="namedview7"
     pagecolor="#ffffff"
     bordercolor="#000000"
     borderopacity="0.25"
     inkscape:showpageshadow="2"
     inkscape:pageopacity="0.0"
     inkscape:pagecheckerboard="0"
     inkscape:deskcolor="#d1d1d1"
     inkscape:document-units="px"
     showgrid="false"
     inkscape:zoom="0.67780272"
     inkscape:cx="150.48627"
     inkscape:cy="118.76612"
     inkscape:window-width="1366"
     inkscape:window-height="704"
     inkscape:window-x="0"
     inkscape:window-y="27"
     inkscape:window-maximized="1"
     inkscape:current-layer="layer1" />
  <defs
     id="defs2" />
  <g
     inkscape:label="Layer 1"
     inkscape:groupmode="layer"
     id="layer1"
     transform="translate(-47.257342,-97.543374)">
    <path
       id="path1104"
       style="color:#000000;opacity:0.3;fill:#000000;stroke-linecap:square;-inkscape-stroke:none"
       d="m 117.96489,108.94529 v 0.13074 5.16041 h -7.41608 -0.26562 -5.2834 -0.13281 v 0.26561 h 0.13281 5.2834 v 5.02554 h -5.2834 -0.13281 v 0.26561 h 0.13281 12.9651 v 5.02709 h -12.9651 -0.13281 v 0.26355 h 0.13281 8.62893 v 5.0276 h -8.62893 -0.13281 v 0.26561 h 0.13281 18.12138 v 5.02554 h -18.12138 -0.13281 v 0.26561 h 0.13281 6.07818 v 5.02709 h -6.07818 -0.13281 v 0.26355 h 0.13281 12.9651 v 5.0276 h -12.9651 -0.13281 v 0.26561 h 0.13281 4.8302 v 5.02554 h -4.8302 -0.13281 v 0.26561 h 0.13281 12.9651 v 5.02709 h -12.9651 -0.13281 v 0.26355 h 0.13281 4.79299 v 5.0276 h -4.79299 -0.13281 v 0.26561 h 0.13281 9.71724 v 5.02554 h -9.71724 -0.13281 v 0.26561 h 0.13281 12.9651 v 5.02709 h -12.9651 -0.13281 v 0.26355 h 0.13281 7.80314 v 5.0276 h -7.80314 -0.13281 v 0.26561 h 0.13281 18.64847 v 5.02554 h -7.74578 -0.26561 -10.63708 -0.13281 v 0.26561 h 0.13281 10.63708 v 4.63073 0.13074 h 0.26561 v -0.13074 -4.63073 h 15.29106 0.13281 v -0.26561 h -0.13281 -7.27966 v -5.02554 h 7.27966 0.13281 v -0.26561 h -0.13281 -18.12499 v -5.0276 h 18.12499 0.13281 v -0.26355 h -0.13281 -12.9651 v -5.02709 h 8.18555 0.26355 4.516 0.13281 v -0.26561 h -0.13281 -4.516 v -5.02554 h 4.516 0.13281 v -0.26561 h -0.13281 -4.516 -0.26355 -4.01371 v -5.0276 h 8.79326 0.13281 v -0.26355 h -0.13281 -4.89841 v -5.02709 h 4.89841 0.13281 v -0.26561 h -0.13281 -12.9651 v -5.02554 h 12.9651 0.13281 v -0.26561 h -0.13281 -12.9651 v -5.0276 h 12.9651 0.13281 v -0.26355 h -0.13281 -3.78943 v -5.02709 h 3.78943 0.13281 v -0.26561 h -0.13281 -7.80676 v -5.02554 h 7.80676 0.13281 v -0.26561 h -0.13281 -17.30075 v -5.0276 h 17.30075 0.13281 v -0.26355 h -0.13281 -12.9651 v -5.02709 h 12.9651 0.13281 v -0.26561 h -0.13281 -5.0276 v -5.02554 h 5.0276 0.13281 v -0.26561 h -0.13281 -5.0276 -0.26355 -7.67395 v -5.16041 -0.13074 z m -7.41608,5.55676 h 7.41608 0.26355 7.67395 v 5.02554 h -7.67395 -0.26355 -7.41608 z m 0.79323,21.16615 h 15.79852 v 5.02709 h -15.79852 z m -1.24644,10.58385 h 7.86929 v 5.02554 h -7.86929 z m 8.13284,5.29115 h 7.80107 v 5.02709 h -7.80107 z m -8.17159,5.29064 h 12.07781 v 5.0276 h -12.07781 z m 4.92579,5.29321 h 11.43135 v 5.02554 h -11.43135 z" />
    <rect
       style="fill:none;stroke:#000000;stroke-width:0.529167;stroke-linecap:square;stroke-dasharray:none"
       id="rect184"
       width="52.387501"
       height="78.845833"
       x="78.806252"
       y="109.07708" />
    <path
       style="fill:none;stroke:#000000;stroke-width:0.529167;stroke-linecap:square;stroke-dasharray:none"
       d="m 105,109.07708 v 78.84583"
       id="path952" />
    <g
       id="g1058">
      <path
         style="opacity:0.3;fill:none;stroke:#000000;stroke-width:0.264583;stroke-linecap:square;stroke-dasharray:none"
         d="M 78.806251,114.36875 H 105"
         id="path954" />
      <path
         style="opacity:0.3;fill:none;stroke:#000000;stroke-width:0.264583;stroke-linecap:square;stroke-dasharray:none"
         d="M 78.806251,119.66042 H 105"
         id="path956" />
      <path
         style="opacity:0.3;fill:none;stroke:#000000;stroke-width:0.264583;stroke-linecap:square;stroke-dasharray:none"
         d="M 78.806251,124.95209 H 105"
         id="path958" />
      <path
         style="opacity:0.3;fill:none;stroke:#000000;stroke-width:0.264583;stroke-linecap:square;stroke-dasharray:none"
         d="M 78.806251,130.24376 H 105"
         id="path960" />
      <path
         style="opacity:0.3;fill:none;stroke:#000000;stroke-width:0.264583;stroke-linecap:square;stroke-dasharray:none"
         d="M 78.806251,135.53543 H 105"
         id="path962" />
      <path
         style="opacity:0.3;fill:none;stroke:#000000;stroke-width:0.264583;stroke-linecap:square;stroke-dasharray:none"
         d="M 78.806251,140.8271 H 105"
         id="path964" />
      <path
         style="opacity:0.3;fill:none;stroke:#000000;stroke-width:0.264583;stroke-linecap:square;stroke-dasharray:none"
         d="M 78.806251,146.11877 H 105"
         id="path966" />
      <path
         style="opacity:0.3;fill:none;stroke:#000000;stroke-width:0.264583;stroke-linecap:square;stroke-dasharray:none"
         d="M 78.806251,151.41044 H 105"
         id="path968" />
      <path
         style="opacity:0.3;fill:none;stroke:#000000;stroke-width:0.264583;stroke-linecap:square;stroke-dasharray:none"
         d="M 78.806251,156.70211 H 105"
         id="path970" />
      <path
         style="opacity:0.3;fill:none;stroke:#000000;stroke-width:0.264583;stroke-linecap:square;stroke-dasharray:none"
         d="M 78.806251,161.99378 H 105"
         id="path972" />
      <path
         style="opacity:0.3;fill:none;stroke:#000000;stroke-width:0.264583;stroke-linecap:square;stroke-dasharray:none"
         d="M 78.806251,167.28545 H 105"
         id="path974" />
      <path
         style="opacity:0.3;fill:none;stroke:#000000;stroke-width:0.264583;stroke-linecap:square;stroke-dasharray:none"
         d="M 78.806251,172.57712 H 105"
         id="path976" />
      <path
         style="opacity:0.3;fill:none;stroke:#000000;stroke-width:0.264583;stroke-linecap:square;stroke-dasharray:none"
         d="M 78.806251,177.86879 H 105"
         id="path978" />
      <path
         style="opacity:0.3;fill:none;stroke:#000000;stroke-width:0.264583;stroke-linecap:square;stroke-dasharray:none"
         d="M 78.806251,183.16046 H 105"
         id="path980" />
    </g>
    <g
       id="path1285">
      <path
         style="color:#000000;fill:#000000;stroke-linecap:square;-inkscape-stroke:none"
         d="m 47.257812,147.9707 v 1.0586 h 0.529297 110.937501 0.5293 v -1.0586 h -0.5293 -110.937501 z"
         id="path5230" />
      <g
         id="g5222">
        <path
           style="color:#000000;fill:#000000;-inkscape-stroke:none"
           d="m 156.1875,144.95117 -0.74805,0.74805 2.80078,2.80078 -2.80078,2.80078 0.74805,0.74805 3.54883,-3.54883 z"
           id="path5224" />
      </g>
    </g>
    <g
       aria-label="T1"
       id="text3400"
       style="font-size:8.46667px;font-family:Oswald;-inkscape-font-specification:Oswald;stroke-width:1.05833;stroke-linecap:square">
      <path
         d="m 57.431746,118.13039 v -5.38481 h -2.082801 v -0.54186 h 4.792136 v 0.54186 H 58.05828 v 5.38481 z"
         style="-inkscape-font-specification:Montserrat"
         id="path1477" />
      <path
         d="m 61.986801,118.13039 v -5.67267 l 0.270934,0.28786 h -1.667934 v -0.54186 h 2.006601 v 5.92667 z"
         style="-inkscape-font-specification:Montserrat"
         id="path1479" />
    </g>
    <g
       aria-label="T2"
       id="text3454"
       style="font-size:8.46667px;font-family:Oswald;-inkscape-font-specification:Oswald;stroke-width:1.05833;stroke-linecap:square">
      <path
         d="m 149.2952,184.01569 v -5.38481 h -2.08281 v -0.54186 h 4.79214 v 0.54186 h -2.0828 v 5.38481 z"
         style="-inkscape-font-specification:Montserrat"
         id="path1486" />
      <path
         d="m 152.49643,184.01569 v -0.4318 l 2.4638,-2.41301 q 0.33866,-0.3302 0.508,-0.57573 0.16933,-0.254 0.2286,-0.47413 0.0593,-0.22014 0.0593,-0.41487 0,-0.51647 -0.3556,-0.8128 -0.34713,-0.29633 -1.03293,-0.29633 -0.52493,0 -0.93133,0.16086 -0.39794,0.16087 -0.6858,0.49954 l -0.4318,-0.37254 q 0.34713,-0.4064 0.889,-0.62653 0.54186,-0.22013 1.21073,-0.22013 0.60113,0 1.0414,0.19473 0.44027,0.18627 0.67733,0.55033 0.24554,0.36407 0.24554,0.85514 0,0.28786 -0.0847,0.56726 -0.0762,0.2794 -0.28787,0.59267 -0.2032,0.3048 -0.60113,0.69427 l -2.2606,2.21827 -0.16933,-0.23707 h 3.67453 v 0.54187 z"
         style="-inkscape-font-specification:Montserrat"
         id="path1488" />
    </g>
    <g
       id="path3456">
      <path
         style="color:#000000;fill:#000000;stroke-linecap:square;-inkscape-stroke:none"
         d="m 56.607422,119.18945 v 0.5293 h 0.263672 13.1875 l 7.912109,4.56641 0.228516,0.13281 0.265625,-0.45703 -0.230469,-0.13281 -8.035156,-4.63868 H 56.871094 Z"
         id="path5242" />
      <g
         id="g5234">
        <path
           style="color:#000000;fill:#000000;-inkscape-stroke:none"
           d="m 77.892578,121.88672 -0.511719,0.13672 0.513672,1.91211 -1.914062,0.51367 0.136718,0.50976 2.423829,-0.64843 z"
           id="path5236" />
      </g>
    </g>
    <g
       id="path3508">
      <path
         style="color:#000000;fill:#000000;stroke-linecap:square;-inkscape-stroke:none"
         d="m 131.80078,180.39844 -0.26562,0.45898 0.23046,0.13281 8.03516,4.63868 h 13.32813 0.26367 v -0.5293 h -0.26367 -13.1875 l -7.91211,-4.56836 z"
         id="path5218" />
      <g
         id="g5210">
        <path
           style="color:#000000;fill:#000000;-inkscape-stroke:none"
           d="m 133.88281,179.85742 -2.42383,0.65039 0.64844,2.42383 0.51172,-0.13672 -0.51367,-1.91406 1.91406,-0.51172 z"
           id="path5212" />
      </g>
    </g>
    <g
       aria-label="ð“"
       id="text5014"
       style="font-size:10.5432px;font-family:Montserrat;-inkscape-font-specification:Montserrat;stroke-width:0.529168;stroke-linecap:square">
      <path
         d="m 151.85246,142.86326 c 1.64474,-0.0949 3.3211,-1.36007 3.3211,-3.12079 0,-1.26518 -1.0754,-1.97158 -2.2457,-2.01375 l 0.3901,-1.64474 h -0.30575 l -0.50608,1.64474 c -1.69745,0.0633 -3.54251,1.43387 -3.54251,3.24731 0,1.19138 0.96997,1.82397 2.06647,1.88723 l -0.60097,2.08755 h 0.96998 z m 1.81343,-3.79555 c 0,0.99106 -0.57988,3.36328 -1.76072,3.4898 l 0.96998,-4.53358 c 0.60096,0.0422 0.79074,0.50607 0.79074,1.04378 z m -1.25464,-1.04378 -1.28627,4.53358 c -0.51662,-0.0527 -0.6326,-0.53771 -0.6326,-0.98052 0,-1.0965 0.56934,-3.44763 1.91887,-3.55306 z"
         id="path1495" />
    </g>
    <g
       aria-label="T1 &gt; T2"
       id="text5157"
       style="font-size:8.46667px;font-family:Montserrat;-inkscape-font-specification:Montserrat;stroke-width:0.529167;stroke-linecap:square">
      <path
         d="m 93.582312,103.52084 v -5.384799 h -2.0828 v -0.541867 h 4.792135 v 0.541867 h -2.082801 v 5.384799 z"
         id="path1500" />
      <path
         d="m 98.137368,103.52084 v -5.672665 l 0.270933,0.287866 h -1.667934 v -0.541867 h 2.006601 v 5.926666 z"
         id="path1502" />
      <path
         d="m 102.53155,102.31011 v -0.52493 l 3.46286,-1.36314 v 0.27094 l -3.46286,-1.363138 v -0.524934 l 3.683,1.473202 v 0.5588 z"
         id="path1504" />
      <path
         d="m 111.14213,103.52084 v -5.384799 h -2.0828 v -0.541867 h 4.79214 v 0.541867 h -2.0828 v 5.384799 z"
         id="path1506" />
      <path
         d="m 114.34336,103.52084 v -0.4318 l 2.46381,-2.413 q 0.33866,-0.3302 0.508,-0.57573 0.16933,-0.254001 0.2286,-0.474135 0.0593,-0.220133 0.0593,-0.414867 0,-0.516466 -0.3556,-0.8128 -0.34713,-0.296333 -1.03293,-0.296333 -0.52493,0 -0.93133,0.160866 -0.39794,0.160867 -0.68581,0.499534 l -0.4318,-0.372534 q 0.34714,-0.4064 0.889,-0.626533 0.54187,-0.220134 1.21074,-0.220134 0.60113,0 1.0414,0.194734 0.44027,0.186267 0.67733,0.550333 0.24554,0.364067 0.24554,0.855134 0,0.287867 -0.0847,0.567267 -0.0762,0.2794 -0.28787,0.592668 -0.2032,0.3048 -0.60113,0.69427 l -2.2606,2.21826 -0.16934,-0.23706 h 3.67454 v 0.54186 z"
         id="path1508" />
    </g>
  </g>
</svg>
