<?xml version="1.0" encoding="UTF-8"?>
<!-- Created with Inkscape (http://www.inkscape.org/) -->
<svg width="485" height="612" style="enable-background:new" version="1.1" xmlns="http://www.w3.org/2000/svg" xmlns:cc="http://creativecommons.org/ns#" xmlns:dc="http://purl.org/dc/elements/1.1/" xmlns:rdf="http://www.w3.org/1999/02/22-rdf-syntax-ns#">
 <defs>
  <filter id="a" x="-.018417" y="-.036832" width="1.0368" height="1.0737" color-interpolation-filters="sRGB">
   <feBlend in2="BackgroundImage" mode="darken"/>
  </filter>
  <clipPath id="b">
   <path d="m32.749 332.91c-7.0897 0-12.797 5.352-12.797 12v306.81c3.9908-0.84094 8.4051-1.5993 10.931-1.4688 5.3986 0.27896 7.8561 3.5421 12.064 3.4688 4.208-0.0734 6.4965-3.5822 11.931-3.9062 5.4343-0.32401 13.612 3.9435 19.596 3.9062 5.9841-0.0372 10.081-3.261 15.463-3.2812 5.3825-0.0203 9.7221 3.3451 16.063 3.2812 6.3412-0.0638 15.514-5.2686 21.029-4.7188 5.5151 0.54988 5.7868 4.315 10.498 4.7188 4.7109 0.4038 10.676-4.1245 16.13-4.0938 5.4543 0.0307 10.41 4.0391 15.397 4.0938 4.9872 0.0546 8.1147-3.1227 13.497-3.2812 5.3825-0.15852 11.384 3.4903 18.03 3.2812 6.646-0.20902 15.233-5.718 20.796-5.1562 5.5622 0.56175 6.3926 4.7012 10.731 5.1562 4.3385 0.45506 8.3146-3.1386 13.697-3.2812s11.396 3.2162 17.83 3.2812c6.4335 0.065 14.747-3.5985 20.129-3.2812 5.3818 0.31722 6.6574 3.2092 11.431 3.2812 4.7736 0.0721 10.676-4.1245 16.13-4.0938 5.4543 0.0307 10.831 4.038 15.397 4.0938 4.5657 0.0557 5.6596-2.3703 10.998-2.6562 5.3381-0.28598 13.473 3.0487 20.529 2.6562 7.0563-0.39241 15.434-5.7473 20.996-5.1562 5.5617 0.59107 6.2401 4.6576 10.531 5.1562 4.291 0.4986 8.2968-2.9284 13.664-3.0625 5.3669-0.13405 11.545 3.0513 17.863 3.0625 6.3177 0.0112 14.08-3.5446 19.463-3.2812s7.3913 3.0655 12.064 3.2812c4.6728 0.21571 9.8913-2.6274 15.23-2.6562 5.3388-0.0288 10.762 2.8984 16.297 2.6562 5.4234-0.23725 10.464-3.9717 15.797-4.0938v-304.72c0-6.648-5.7076-12-12.797-12h-454.6z" style="color:#000000;enable-background:accumulate;fill:#a6cbd1"/>
  </clipPath>
 </defs>
 <metadata>
  <rdf:RDF>
   <cc:Work rdf:about="">
    <dc:format>image/svg+xml</dc:format>
    <dc:type rdf:resource="http://purl.org/dc/dcmitype/StillImage"/>
   </cc:Work>
  </rdf:RDF>
 </metadata>
 <g transform="translate(0 -440.36)" style="filter:url(#a)">
  <path d="m202.53 749.27c-5.5509 0.14313-13.509 4.9915-19.739 5.1875-6.646 0.20902-12.628-3.4398-18.01-3.2812-5.3825 0.15852-8.5204 3.3358-13.508 3.2812-4.9872-0.0546-9.9457-4.063-15.4-4.0938-5.4542-0.0307-11.407 4.4976-16.118 4.0938-4.711-0.4038-4.9908-4.1689-10.506-4.7188-5.5151-0.54988-14.703 4.655-21.044 4.7188-6.3412 0.0639-10.67-3.3016-16.052-3.2812-5.3825 0.0203-9.4811 3.244-15.465 3.2812-5.9841 0.0372-14.174-4.2303-19.609-3.9062-5.4343 0.32401-7.7008 3.8328-11.909 3.9062-4.208 0.0734-6.6734-3.1898-12.072-3.4688-2.526-0.13052-6.9392 0.62781-10.93 1.4688v285.87c0 6.6546 5.7001 12.031 12.79 12.031h454.62c7.0897 0 12.79-5.3767 12.79-12.031v-287.97c-5.3324 0.12208-10.368 3.8565-15.791 4.0938-5.5349 0.24213-10.975-2.685-16.314-2.6562-5.3388 0.0288-10.564 2.872-15.237 2.6562s-6.6572-3.0179-12.039-3.2812-13.161 3.2924-19.478 3.2812c-6.3177-0.0112-12.48-3.1966-17.847-3.0625-5.367 0.13405-9.3797 3.5611-13.671 3.0625s-4.9768-4.5652-10.539-5.1562c-5.5617-0.59107-13.923 4.7638-20.979 5.1562s-15.217-2.9422-20.555-2.6562c-5.3381 0.28598-6.4297 2.712-10.995 2.6562s-9.9457-4.063-15.4-4.0938c-5.4543-0.0307-11.344 4.1658-16.118 4.0938s-6.0377-2.964-11.419-3.2812c-5.3818-0.31722-13.697 3.3462-20.131 3.2812-6.4335-0.065-12.465-3.4239-17.847-3.2812-5.3825 0.14269-9.3648 3.7363-13.703 3.2812-4.3385-0.45506-5.1394-4.5945-10.702-5.1562-0.34764-0.0351-0.70663-0.0408-1.0767-0.0313z" style="color:#000000;enable-background:accumulate;fill:#ccb0ac"/>
  <path d="m14.797 442.83c-7.0897 0-12.797 5.352-12.797 12v298.81c3.9908-0.84094 8.4051-1.5993 10.931-1.4688 5.3986 0.27896 7.8561 3.5421 12.064 3.4688 4.208-0.0734 6.4965-3.5822 11.931-3.9062 5.4343-0.32401 13.612 3.9435 19.596 3.9062 5.9841-0.0372 10.081-3.261 15.463-3.2812 5.3825-0.0203 9.7221 3.3451 16.063 3.2812 6.3412-0.0638 15.514-5.2686 21.029-4.7188 5.5151 0.54988 5.7868 4.315 10.498 4.7188 4.7109 0.4038 10.676-4.1245 16.13-4.0938 5.4543 0.0307 10.41 4.0391 15.397 4.0938 4.9872 0.0546 8.1147-3.1227 13.497-3.2812 5.3825-0.15852 11.384 3.4903 18.03 3.2812 6.646-0.20902 15.233-5.718 20.796-5.1562 5.5622 0.56175 6.3926 4.7012 10.731 5.1562 4.3385 0.45506 8.3146-3.1386 13.697-3.2812s11.396 3.2162 17.83 3.2812c6.4335 0.065 14.747-3.5985 20.129-3.2812 5.3818 0.31722 6.6574 3.2092 11.431 3.2812 4.7736 0.0721 10.676-4.1245 16.13-4.0938 5.4543 0.0307 10.831 4.038 15.397 4.0938 4.5657 0.0557 5.6596-2.3703 10.998-2.6562 5.3381-0.28598 13.473 3.0487 20.529 2.6562 7.0563-0.39241 15.434-5.7473 20.996-5.1562 5.5617 0.59107 6.2401 4.6576 10.531 5.1562 4.291 0.4986 8.2968-2.9284 13.664-3.0625 5.3669-0.13405 11.545 3.0513 17.863 3.0625 6.3177 0.0112 14.08-3.5446 19.463-3.2812s7.3913 3.0655 12.064 3.2812c4.6728 0.21571 9.8913-2.6274 15.23-2.6562 5.3388-0.0288 10.762 2.8984 16.297 2.6562 5.4234-0.23725 10.464-3.9717 15.797-4.0938v-296.72c0-6.648-5.7076-12-12.797-12z" style="color:#000000;enable-background:accumulate;fill:#c7dde0"/>
  <path d="m347.25 470.42c-4.1888 0.0654-7.9405 3.9362-7.875 8.125v100.31h-189.44c-20.815 0-41.111 10.828-56.469 26.812s-26.031 37.497-26.031 60.25v65.938h16v-65.938c0-17.657 8.644-35.711 21.562-49.156 12.918-13.446 29.867-21.906 44.938-21.906h197.44c4.1887-4.2e-4 7.9996-3.8113 8-8v-108.31c0.0334-2.1361-0.83179-4.272-2.3424-5.7826-1.5106-1.5106-3.6465-2.3758-5.7826-2.3424" style="block-progression:tb;color:#000000;enable-background:accumulate;fill:#f79696;text-indent:0;text-transform:none"/>
  <path d="m67.434 759.05v180.47c0.97083 0.67273 1.625 1.7919 1.625 3.0625s-0.65417 2.3585-1.625 3.0312v5.9062c0.97083 0.67273 1.625 1.7919 1.625 3.0625s-0.65417 2.3585-1.625 3.0312v5.9062c0.97083 0.67273 1.625 1.7919 1.625 3.0625s-0.65417 2.3585-1.625 3.0312v5.9062c0.97083 0.67273 1.625 1.7919 1.625 3.0625s-0.65417 2.3585-1.625 3.0312v5.9062c0.97083 0.67273 1.625 1.7919 1.625 3.0625s-0.65417 2.3585-1.625 3.0312v5.9062c0.97083 0.67277 1.625 1.792 1.625 3.0625 0 1.1736-0.55837 2.1919-1.4062 2.875a8.0008 8.0008 0 0 0 15.562 0.094c-0.90751-0.6797-1.5-1.7476-1.5-2.9687 0-1.3116 0.69458-2.4608 1.7188-3.125v-5.7812c-1.0242-0.66418-1.7188-1.7822-1.7188-3.0938 0-1.3116 0.69458-2.4608 1.7188-3.125v-5.7812c-1.0242-0.66418-1.7188-1.7822-1.7188-3.0938 0-1.3116 0.69458-2.4608 1.7188-3.125v-5.7812c-1.0242-0.66418-1.7188-1.7822-1.7188-3.0938 0-1.3116 0.69458-2.4608 1.7188-3.125v-5.7812c-1.0242-0.66418-1.7188-1.7822-1.7188-3.0938 0-1.3116 0.69458-2.4608 1.7188-3.125v-5.7812c-1.0242-0.66418-1.7188-1.7822-1.7188-3.0938 0-1.3116 0.69458-2.4608 1.7188-3.125v-180.41h-16z" style="block-progression:tb;color:#000000;enable-background:accumulate;fill:#f79696;text-indent:0;text-transform:none"/>
  <g transform="translate(-16.151 100.74)" style="fill:#ff5e70;stroke-linecap:round;stroke-linejoin:round;stroke:#ab2840">
   <path d="m79.357 837.41c2.7657 1.8199 7.0327 3.3539 9.3438 4.3438-2.2822 0.69483-6.4312 2.5341-9.3438 4.375 0.33734-0.94564 0.58079-1.8981 0.71875-2.8438h-34.969a1.5066 1.5066 0 1 1-0.28125-3 1.5002 1.5002 0 0 1 0.28125 0h35.031c-0.11638-0.96327-0.37681-1.9117-0.78125-2.875z" style="block-progression:tb;color:#000000;enable-background:accumulate;fill:#ff5e70;stroke-linecap:round;stroke-linejoin:round;stroke-width:.2;stroke:#ab2840;text-indent:0;text-transform:none"/>
   <path d="m79.357 849.5c2.7657 1.8199 7.0327 3.3851 9.3438 4.375-2.2822 0.69483-6.4312 2.5028-9.3438 4.3438 0.34097-0.95583 0.58169-1.8879 0.71875-2.8438h-34.969a1.5066 1.5066 0 1 1-0.28125-3 1.5002 1.5002 0 0 1 0.28125 0h35.031c-0.11742-0.9566-0.37961-1.9184-0.78125-2.875z" style="block-progression:tb;color:#000000;enable-background:accumulate;fill:#ff5e70;stroke-linecap:round;stroke-linejoin:round;stroke-width:.2;stroke:#ab2840;text-indent:0;text-transform:none"/>
   <path d="m79.357 861.59c2.7657 1.8199 7.0327 3.3851 9.3438 4.375-2.2822 0.69483-6.4312 2.5341-9.3438 4.375 0.34097-0.95583 0.58169-1.9192 0.71875-2.875h-34.969a1.5066 1.5066 0 1 1-0.28125-3 1.5002 1.5002 0 0 1 0.28125 0h35.031c-0.11742-0.9566-0.37961-1.9184-0.78125-2.875z" style="block-progression:tb;color:#000000;enable-background:accumulate;fill:#ff5e70;stroke-linecap:round;stroke-linejoin:round;stroke-width:.2;stroke:#ab2840;text-indent:0;text-transform:none"/>
   <path d="m79.357 873.44c2.7657 1.8199 7.0327 3.3851 9.3438 4.375-2.2822 0.69483-6.4312 2.5028-9.3438 4.3438 0.33958-0.95193 0.58134-1.8918 0.71875-2.8438h-34.969a1.5066 1.5066 0 1 1-0.28125-3 1.5002 1.5002 0 0 1 0.28125 0h35.031c-0.11742-0.9566-0.37961-1.9184-0.78125-2.875z" style="block-progression:tb;color:#000000;enable-background:accumulate;fill:#ff5e70;stroke-linecap:round;stroke-linejoin:round;stroke-width:.2;stroke:#ab2840;text-indent:0;text-transform:none"/>
   <path d="m79.357 885.44c2.7657 1.8199 7.0327 3.3851 9.3438 4.375-2.2822 0.69483-6.4312 2.5341-9.3438 4.375 0.33734-0.94564 0.58079-1.8981 0.71875-2.8438h-34.969a1.5066 1.5066 0 1 1-0.28125-3 1.5002 1.5002 0 0 1 0.28125 0h35.031c-0.11582-0.96686-0.3753-1.9394-0.78125-2.9062z" style="block-progression:tb;color:#000000;enable-background:accumulate;fill:#ff5e70;stroke-linecap:round;stroke-linejoin:round;stroke-width:.2;stroke:#ab2840;text-indent:0;text-transform:none"/>
   <path d="m79.357 897.38c2.7657 1.8199 7.0327 3.3851 9.3438 4.375-2.2822 0.69483-6.4312 2.5028-9.3438 4.3438 0.33734-0.94564 0.58079-1.8981 0.71875-2.8438h-34.969a1.5066 1.5066 0 1 1-0.28125-3 1.5002 1.5002 0 0 1 0.28125 0h35.031c-0.11742-0.9566-0.37961-1.9184-0.78125-2.875z" style="block-progression:tb;color:#000000;enable-background:accumulate;fill:#ff5e70;stroke-linecap:round;stroke-linejoin:round;stroke-width:.2;stroke:#ab2840;text-indent:0;text-transform:none"/>
  </g>
  <g transform="translate(-19.773 100.74)" style="fill:#ff5e70;stroke-linecap:round;stroke-linejoin:round;stroke:#ab2840">
   <path d="m107.25 837.41c-2.7657 1.8199-7.0327 3.3539-9.3438 4.3438 2.2822 0.69483 6.4312 2.5341 9.3438 4.375-0.33734-0.94564-0.58079-1.8981-0.71875-2.8438h34.969a1.5066 1.5066 0 1 0 0.28125-3 1.5002 1.5002 0 0 0-0.28125 0h-35.031c0.11638-0.96327 0.37681-1.9117 0.78125-2.875z" style="block-progression:tb;color:#000000;enable-background:accumulate;fill:#ff5e70;stroke-linecap:round;stroke-linejoin:round;stroke-width:.2;stroke:#ab2840;text-indent:0;text-transform:none"/>
   <path d="m107.25 849.5c-2.7657 1.8199-7.0327 3.3851-9.3438 4.375 2.2822 0.69483 6.4312 2.5028 9.3438 4.3438-0.34097-0.95583-0.58169-1.8879-0.71875-2.8438h34.969a1.5066 1.5066 0 1 0 0.28125-3 1.5002 1.5002 0 0 0-0.28125 0h-35.031c0.11742-0.9566 0.37961-1.9184 0.78125-2.875z" style="block-progression:tb;color:#000000;enable-background:accumulate;fill:#ff5e70;stroke-linecap:round;stroke-linejoin:round;stroke-width:.2;stroke:#ab2840;text-indent:0;text-transform:none"/>
   <path d="m107.25 861.59c-2.7657 1.8199-7.0327 3.3851-9.3438 4.375 2.2822 0.69483 6.4312 2.5341 9.3438 4.375-0.34097-0.95583-0.58169-1.9192-0.71875-2.875h34.969a1.5066 1.5066 0 1 0 0.28125-3 1.5002 1.5002 0 0 0-0.28125 0h-35.031c0.11742-0.9566 0.37961-1.9184 0.78125-2.875z" style="block-progression:tb;color:#000000;enable-background:accumulate;fill:#ff5e70;stroke-linecap:round;stroke-linejoin:round;stroke-width:.2;stroke:#ab2840;text-indent:0;text-transform:none"/>
   <path d="m107.25 873.44c-2.7657 1.8199-7.0327 3.3851-9.3438 4.375 2.2822 0.69483 6.4312 2.5028 9.3438 4.3438-0.33958-0.95193-0.58134-1.8918-0.71875-2.8438h34.969a1.5066 1.5066 0 1 0 0.28125-3 1.5002 1.5002 0 0 0-0.28125 0h-35.031c0.11742-0.9566 0.37961-1.9184 0.78125-2.875z" style="block-progression:tb;color:#000000;enable-background:accumulate;fill:#ff5e70;stroke-linecap:round;stroke-linejoin:round;stroke-width:.2;stroke:#ab2840;text-indent:0;text-transform:none"/>
   <path d="m107.25 885.44c-2.7657 1.8199-7.0327 3.3851-9.3438 4.375 2.2822 0.69483 6.4312 2.5341 9.3438 4.375-0.33734-0.94564-0.58079-1.8981-0.71875-2.8438h34.969a1.5066 1.5066 0 1 0 0.28125-3 1.5002 1.5002 0 0 0-0.28125 0h-35.031c0.11582-0.96686 0.3753-1.9394 0.78125-2.9062z" style="block-progression:tb;color:#000000;enable-background:accumulate;fill:#ff5e70;stroke-linecap:round;stroke-linejoin:round;stroke-width:.2;stroke:#ab2840;text-indent:0;text-transform:none"/>
   <path d="m107.25 897.38c-2.7657 1.8199-7.0327 3.3851-9.3438 4.375 2.2822 0.69483 6.4312 2.5028 9.3438 4.3438-0.33734-0.94564-0.58079-1.8981-0.71875-2.8438h34.969a1.5066 1.5066 0 1 0 0.28125-3 1.5002 1.5002 0 0 0-0.28125 0h-35.031c0.11742-0.9566 0.37961-1.9184 0.78125-2.875z" style="block-progression:tb;color:#000000;enable-background:accumulate;fill:#ff5e70;stroke-linecap:round;stroke-linejoin:round;stroke-width:.2;stroke:#ab2840;text-indent:0;text-transform:none"/>
  </g>
  <g transform="translate(-17.784 100.74)" clip-path="url(#b)">
   <path d="m18.637 377.13c15.415 19.248 79.364 29.659 114.36 14.187" style="fill:none;stroke-linecap:round;stroke-width:.60611px;stroke:#666666"/>
   <path d="m13.667 382.35c8.7325 14.154 49.56 25.27 74.546 8.9265" style="fill:none;stroke-linecap:round;stroke-width:.60611px;stroke:#666666"/>
  </g>
  <path d="m339.37 478.55v100.31h-189.44c-20.815 0-41.111 10.828-56.469 26.812-15.357 15.984-26.031 37.497-26.031 60.25v65.938h16v-65.938c0-17.657 8.644-35.711 21.562-49.156 12.918-13.446 29.867-21.906 44.938-21.906h197.44c4.1887-4.2e-4 7.9996-3.8113 8-8v-108.31" style="block-progression:tb;color:#000000;enable-background:accumulate;fill:none;stroke-linecap:round;stroke-linejoin:round;stroke:#666666;text-indent:0;text-transform:none"/>
  <path d="m356.65 629.52c-2.702 0.0216-5.4914 0.0625-8.4062 0.0625a8.0008 8.0008 0 1 0 0 16c11.968 0 21.356 0.0397 25.656 1.4062 2.1499 0.68328 2.8261 1.2394 3.4375 2.1562s1.3438 2.8104 1.3438 6.7188v76h16v-76c0-5.9176-1.128-11.24-4.0312-15.594s-7.4012-7.0995-11.906-8.5312c-6.7576-2.1477-13.988-2.2835-22.094-2.2188z" style="block-progression:tb;color:#000000;enable-background:accumulate;fill:#a2c1f3;stroke-linecap:round;stroke-linejoin:round;stroke:#666666;text-indent:0;text-transform:none"/>
  <path d="m69.437 573.25h43.555" style="fill:none;stroke-linecap:round;stroke-linejoin:round;stroke-width:.60611px;stroke:#000000"/>
  <path d="m77.603 572.91 14.972-107.19" style="fill:none;stroke-linecap:round;stroke-linejoin:round;stroke-width:.90916;stroke:#333333"/>
  <path d="m77.422 573.29 15.341-8.8571-12.967-7.4867 12.973-7.4897-11.074-6.3935 10.931-6.3112-9.2505-5.3408 9.5297-5.502-8.2732-4.7766 8.2229-4.7475-6.859-3.9601 6.8694-3.9661-5.963-3.4428 5.8742-3.3915-4.9182-2.8395 5.0286-2.9032-4.1435-2.3923 4.0758-2.3532-3.4012-1.9637 3.3424-1.9297-2.7218-1.5714 2.6508-1.5305-2.3732-1.3702 2.3698-1.3682-1.9981-1.1536 2.0154-1.1636-1.7246-0.99569 1.7598-1.7598-1.3292-1.3292 1.3565-1.3565-1.0532-1.0533 1.0373-1.0373-0.67016-1.1608 0.69626-0.69625-0.56869-0.56869 0.57451-0.57451-0.44684-0.44684" style="fill:none;stroke-linecap:round;stroke-linejoin:round;stroke-width:.606;stroke:#333333"/>
  <path d="m89.431 487.07-3.963-3.963-3.946 3.946-2.3061-2.3061-2.3915 2.3915" style="fill:none;stroke-linecap:round;stroke-linejoin:round;stroke-width:.60611px;stroke:#333333"/>
  <path d="m108.06 572.9-14.972-107.19" style="fill:none;stroke-linecap:round;stroke-linejoin:round;stroke-width:.90916;stroke:#333333"/>
  <path d="m108.24 573.29-15.341-8.8571 12.967-7.4867-12.973-7.4897 11.074-6.3935-10.931-6.3112 9.2505-5.3408-9.5297-5.502 8.2732-4.7766-8.2229-4.7475 6.859-3.96-6.8694-3.9661 5.9631-3.4428-5.8742-3.3915 4.9182-2.8395-5.0286-2.9032 4.1435-2.3923-4.0758-2.3532 3.4012-1.9637-3.3424-1.9297 2.7218-1.5714-2.6509-1.5305 2.3732-1.3702-2.3698-1.3682 1.9981-1.1536-2.0154-1.1636 1.7246-0.9957-1.7598-1.7598 1.3292-1.3293-1.3565-1.3565 1.0533-1.0533-1.0373-1.0373 0.67015-1.1608-0.69625-0.69626 0.56869-0.56869-0.57451-0.5745 0.44683-0.44684" style="fill:none;stroke-linecap:round;stroke-linejoin:round;stroke-width:.60611px;stroke:#333333"/>
  <path d="m96.232 487.06 3.963-3.963 3.946 3.946 2.3061-2.3061 2.3915 2.3915" style="fill:none;stroke-linecap:round;stroke-linejoin:round;stroke-width:.60611px;stroke:#333333"/>
  <path d="m114.84 487.36v0.65625a1.0213 0.32042 0 0 0-0.65625 0.3125 1.0213 0.32042 0 0 0 0.65625 0.3125v0.1875a1.0213 0.32042 0 0 0-0.65625 0.3125 1.0213 0.32042 0 0 0 0.65625 0.3125v0.1875a1.0213 0.32042 0 0 0-0.65625 0.3125 1.0213 0.32042 0 0 0 0.65625 0.3125v0.1875a1.0213 0.32042 0 0 0-0.65625 0.3125 1.0213 0.32042 0 0 0 0.65625 0.3125v0.1875a1.0213 0.32042 0 0 0-0.65625 0.3125 1.0213 0.32042 0 0 0 0.65625 0.3125v0.21875a1.0213 0.32042 0 0 0-0.65625 0.28125 1.0213 0.32042 0 1 0 2.0312 0 1.0213 0.32042 0 0 0-0.65625-0.28125v-0.21875a1.0213 0.32042 0 0 0 0.65625-0.3125 1.0213 0.32042 0 0 0-0.65625-0.28125v-0.21875a1.0213 0.32042 0 0 0 0.65625-0.3125 1.0213 0.32042 0 0 0-0.65625-0.28125v-0.21875a1.0213 0.32042 0 0 0 0.65625-0.3125 1.0213 0.32042 0 0 0-0.65625-0.28125v-0.21875a1.0213 0.32042 0 0 0 0.65625-0.3125 1.0213 0.32042 0 0 0-0.65625-0.28125v-0.21875a1.0213 0.32042 0 0 0 0.65625-0.3125 1.0213 0.32042 0 0 0-0.65625-0.28125v-0.6875h-0.71875z" style="fill:#a09a66;stroke-width:.06;stroke:#333333"/>
  <path d="m70.094 487.36v0.65625a1.0213 0.32042 0 0 0-0.65625 0.3125 1.0213 0.32042 0 0 0 0.65625 0.3125v0.1875a1.0213 0.32042 0 0 0-0.65625 0.3125 1.0213 0.32042 0 0 0 0.65625 0.3125v0.1875a1.0213 0.32042 0 0 0-0.65625 0.3125 1.0213 0.32042 0 0 0 0.65625 0.3125v0.1875a1.0213 0.32042 0 0 0-0.65625 0.3125 1.0213 0.32042 0 0 0 0.65625 0.3125v0.1875a1.0213 0.32042 0 0 0-0.65625 0.3125 1.0213 0.32042 0 0 0 0.65625 0.3125v0.21875a1.0213 0.32042 0 0 0-0.65625 0.28125 1.0213 0.32042 0 1 0 2.0312 0 1.0213 0.32042 0 0 0-0.65625-0.28125v-0.21875a1.0213 0.32042 0 0 0 0.65625-0.3125 1.0213 0.32042 0 0 0-0.65625-0.28125v-0.21875a1.0213 0.32042 0 0 0 0.65625-0.3125 1.0213 0.32042 0 0 0-0.65625-0.28125v-0.21875a1.0213 0.32042 0 0 0 0.65625-0.3125 1.0213 0.32042 0 0 0-0.65625-0.28125v-0.21875a1.0213 0.32042 0 0 0 0.65625-0.3125 1.0213 0.32042 0 0 0-0.65625-0.28125v-0.21875a1.0213 0.32042 0 0 0 0.65625-0.3125 1.0213 0.32042 0 0 0-0.65625-0.28125v-0.6875h-0.71875z" style="fill:#a09a66;stroke-width:.06;stroke:#333333"/>
  <path d="m70.44 491.97c7.7328 11.475 79.182 53.028 130.52 51.404" style="fill:none;stroke-linecap:round;stroke-width:.60611px;stroke:#666666"/>
  <path d="m378.68 759.05v180.47c0.97083 0.67273 1.625 1.7919 1.625 3.0625s-0.65417 2.3585-1.625 3.0312v5.9062c0.97083 0.67273 1.625 1.7919 1.625 3.0625s-0.65417 2.3585-1.625 3.0312v5.9062c0.97083 0.67273 1.625 1.7919 1.625 3.0625s-0.65417 2.3585-1.625 3.0312v5.9062c0.97083 0.67273 1.625 1.7919 1.625 3.0625s-0.65417 2.3585-1.625 3.0312v5.9062c0.97083 0.67273 1.625 1.7919 1.625 3.0625s-0.65417 2.3585-1.625 3.0312v5.9062c0.97083 0.67277 1.625 1.792 1.625 3.0625 0 1.1736-0.55837 2.1919-1.4062 2.875a8.0008 8.0008 0 0 0 15.562 0.094c-0.90751-0.6797-1.5-1.7476-1.5-2.9687 0-1.3116 0.69458-2.4608 1.7188-3.125v-5.7812c-1.0242-0.66418-1.7188-1.7822-1.7188-3.0938 0-1.3116 0.69458-2.4608 1.7188-3.125v-5.7812c-1.0242-0.66418-1.7188-1.7822-1.7188-3.0938 0-1.3116 0.69458-2.4608 1.7188-3.125v-5.7812c-1.0242-0.66418-1.7188-1.7822-1.7188-3.0938 0-1.3116 0.69458-2.4608 1.7188-3.125v-5.7812c-1.0242-0.66418-1.7188-1.7822-1.7188-3.0938 0-1.3116 0.69458-2.4608 1.7188-3.125v-5.7812c-1.0242-0.66418-1.7188-1.7822-1.7188-3.0938 0-1.3116 0.69458-2.4608 1.7188-3.125v-180.41h-16z" style="block-progression:tb;color:#000000;enable-background:accumulate;fill:#a2c1f3;text-indent:0;text-transform:none"/>
  <g transform="translate(345.49 100.74)" style="fill:#699def;stroke-linecap:round;stroke-linejoin:round;stroke:#556680">
   <path d="m79.357 837.41c2.7657 1.8199 7.0327 3.3539 9.3438 4.3438-2.2822 0.69483-6.4312 2.5341-9.3438 4.375 0.33734-0.94564 0.58079-1.8981 0.71875-2.8438h-34.969a1.5066 1.5066 0 1 1-0.28125-3 1.5002 1.5002 0 0 1 0.28125 0h35.031c-0.11638-0.96327-0.37681-1.9117-0.78125-2.875z" style="block-progression:tb;color:#000000;enable-background:accumulate;fill:#699def;stroke-linecap:round;stroke-linejoin:round;stroke-width:.2;stroke:#556680;text-indent:0;text-transform:none"/>
   <path d="m79.357 849.5c2.7657 1.8199 7.0327 3.3851 9.3438 4.375-2.2822 0.69483-6.4312 2.5028-9.3438 4.3438 0.34097-0.95583 0.58169-1.8879 0.71875-2.8438h-34.969a1.5066 1.5066 0 1 1-0.28125-3 1.5002 1.5002 0 0 1 0.28125 0h35.031c-0.11742-0.9566-0.37961-1.9184-0.78125-2.875z" style="block-progression:tb;color:#000000;enable-background:accumulate;fill:#699def;stroke-linecap:round;stroke-linejoin:round;stroke-width:.2;stroke:#556680;text-indent:0;text-transform:none"/>
   <path d="m79.357 861.59c2.7657 1.8199 7.0327 3.3851 9.3438 4.375-2.2822 0.69483-6.4312 2.5341-9.3438 4.375 0.34097-0.95583 0.58169-1.9192 0.71875-2.875h-34.969a1.5066 1.5066 0 1 1-0.28125-3 1.5002 1.5002 0 0 1 0.28125 0h35.031c-0.11742-0.9566-0.37961-1.9184-0.78125-2.875z" style="block-progression:tb;color:#000000;enable-background:accumulate;fill:#699def;stroke-linecap:round;stroke-linejoin:round;stroke-width:.2;stroke:#556680;text-indent:0;text-transform:none"/>
   <path d="m79.357 873.44c2.7657 1.8199 7.0327 3.3851 9.3438 4.375-2.2822 0.69483-6.4312 2.5028-9.3438 4.3438 0.33958-0.95193 0.58134-1.8918 0.71875-2.8438h-34.969a1.5066 1.5066 0 1 1-0.28125-3 1.5002 1.5002 0 0 1 0.28125 0h35.031c-0.11742-0.9566-0.37961-1.9184-0.78125-2.875z" style="block-progression:tb;color:#000000;enable-background:accumulate;fill:#699def;stroke-linecap:round;stroke-linejoin:round;stroke-width:.2;stroke:#556680;text-indent:0;text-transform:none"/>
   <path d="m79.357 885.44c2.7657 1.8199 7.0327 3.3851 9.3438 4.375-2.2822 0.69483-6.4312 2.5341-9.3438 4.375 0.33734-0.94564 0.58079-1.8981 0.71875-2.8438h-34.969a1.5066 1.5066 0 1 1-0.28125-3 1.5002 1.5002 0 0 1 0.28125 0h35.031c-0.11582-0.96686-0.3753-1.9394-0.78125-2.9062z" style="block-progression:tb;color:#000000;enable-background:accumulate;fill:#699def;stroke-linecap:round;stroke-linejoin:round;stroke-width:.2;stroke:#556680;text-indent:0;text-transform:none"/>
   <path d="m79.357 897.38c2.7657 1.8199 7.0327 3.3851 9.3438 4.375-2.2822 0.69483-6.4312 2.5028-9.3438 4.3438 0.33734-0.94564 0.58079-1.8981 0.71875-2.8438h-34.969a1.5066 1.5066 0 1 1-0.28125-3 1.5002 1.5002 0 0 1 0.28125 0h35.031c-0.11742-0.9566-0.37961-1.9184-0.78125-2.875z" style="block-progression:tb;color:#000000;enable-background:accumulate;fill:#699def;stroke-linecap:round;stroke-linejoin:round;stroke-width:.2;stroke:#556680;text-indent:0;text-transform:none"/>
  </g>
  <path d="m67.434 759.05v180.47c0.97083 0.67273 1.625 1.7919 1.625 3.0625s-0.65417 2.3585-1.625 3.0312v5.9062c0.97083 0.67273 1.625 1.7919 1.625 3.0625s-0.65417 2.3585-1.625 3.0312v5.9062c0.97083 0.67273 1.625 1.7919 1.625 3.0625s-0.65417 2.3585-1.625 3.0312v5.9062c0.97083 0.67273 1.625 1.7919 1.625 3.0625s-0.65417 2.3585-1.625 3.0312v5.9062c0.97083 0.67273 1.625 1.7919 1.625 3.0625s-0.65417 2.3585-1.625 3.0312v5.9062c0.97083 0.67277 1.625 1.792 1.625 3.0625 0 1.1736-0.55837 2.1919-1.4062 2.875a8.0008 8.0008 0 0 0 15.562 0.094c-0.90751-0.6797-1.5-1.7476-1.5-2.9687 0-1.3116 0.69458-2.4608 1.7188-3.125v-5.7812c-1.0242-0.66418-1.7188-1.7822-1.7188-3.0938 0-1.3116 0.69458-2.4608 1.7188-3.125v-5.7812c-1.0242-0.66418-1.7188-1.7822-1.7188-3.0938 0-1.3116 0.69458-2.4608 1.7188-3.125v-5.7812c-1.0242-0.66418-1.7188-1.7822-1.7188-3.0938 0-1.3116 0.69458-2.4608 1.7188-3.125v-5.7812c-1.0242-0.66418-1.7188-1.7822-1.7188-3.0938 0-1.3116 0.69458-2.4608 1.7188-3.125v-5.7812c-1.0242-0.66418-1.7188-1.7822-1.7188-3.0938 0-1.3116 0.69458-2.4608 1.7188-3.125v-180.41h-16z" style="block-progression:tb;color:#000000;enable-background:accumulate;fill:none;stroke-linecap:round;stroke-linejoin:round;stroke:#666666;text-indent:0;text-transform:none"/>
  <g transform="translate(241.45 100.74)" style="fill:#699def;stroke-linecap:round;stroke-linejoin:round;stroke:#556680">
   <path d="m107.25 837.41c-2.7657 1.8199-7.0327 3.3539-9.3438 4.3438 2.2822 0.69483 6.4312 2.5341 9.3438 4.375-0.33734-0.94564-0.58079-1.8981-0.71875-2.8438h34.969a1.5066 1.5066 0 1 0 0.28125-3 1.5002 1.5002 0 0 0-0.28125 0h-35.031c0.11638-0.96327 0.37681-1.9117 0.78125-2.875z" style="block-progression:tb;color:#000000;enable-background:accumulate;fill:#699def;stroke-linecap:round;stroke-linejoin:round;stroke-width:.2;stroke:#556680;text-indent:0;text-transform:none"/>
   <path d="m107.25 849.5c-2.7657 1.8199-7.0327 3.3851-9.3438 4.375 2.2822 0.69483 6.4312 2.5028 9.3438 4.3438-0.34097-0.95583-0.58169-1.8879-0.71875-2.8438h34.969a1.5066 1.5066 0 1 0 0.28125-3 1.5002 1.5002 0 0 0-0.28125 0h-35.031c0.11742-0.9566 0.37961-1.9184 0.78125-2.875z" style="block-progression:tb;color:#000000;enable-background:accumulate;fill:#699def;stroke-linecap:round;stroke-linejoin:round;stroke-width:.2;stroke:#556680;text-indent:0;text-transform:none"/>
   <path d="m107.25 861.59c-2.7657 1.8199-7.0327 3.3851-9.3438 4.375 2.2822 0.69483 6.4312 2.5341 9.3438 4.375-0.34097-0.95583-0.58169-1.9192-0.71875-2.875h34.969a1.5066 1.5066 0 1 0 0.28125-3 1.5002 1.5002 0 0 0-0.28125 0h-35.031c0.11742-0.9566 0.37961-1.9184 0.78125-2.875z" style="block-progression:tb;color:#000000;enable-background:accumulate;fill:#699def;stroke-linecap:round;stroke-linejoin:round;stroke-width:.2;stroke:#556680;text-indent:0;text-transform:none"/>
   <path d="m107.25 873.44c-2.7657 1.8199-7.0327 3.3851-9.3438 4.375 2.2822 0.69483 6.4312 2.5028 9.3438 4.3438-0.33958-0.95193-0.58134-1.8918-0.71875-2.8438h34.969a1.5066 1.5066 0 1 0 0.28125-3 1.5002 1.5002 0 0 0-0.28125 0h-35.031c0.11742-0.9566 0.37961-1.9184 0.78125-2.875z" style="block-progression:tb;color:#000000;enable-background:accumulate;fill:#699def;stroke-linecap:round;stroke-linejoin:round;stroke-width:.2;stroke:#556680;text-indent:0;text-transform:none"/>
   <path d="m107.25 885.44c-2.7657 1.8199-7.0327 3.3851-9.3438 4.375 2.2822 0.69483 6.4312 2.5341 9.3438 4.375-0.33734-0.94564-0.58079-1.8981-0.71875-2.8438h34.969a1.5066 1.5066 0 1 0 0.28125-3 1.5002 1.5002 0 0 0-0.28125 0h-35.031c0.11582-0.96686 0.3753-1.9394 0.78125-2.9062z" style="block-progression:tb;color:#000000;enable-background:accumulate;fill:#699def;stroke-linecap:round;stroke-linejoin:round;stroke-width:.2;stroke:#556680;text-indent:0;text-transform:none"/>
   <path d="m107.25 897.38c-2.7657 1.8199-7.0327 3.3851-9.3438 4.375 2.2822 0.69483 6.4312 2.5028 9.3438 4.3438-0.33734-0.94564-0.58079-1.8981-0.71875-2.8438h34.969a1.5066 1.5066 0 1 0 0.28125-3 1.5002 1.5002 0 0 0-0.28125 0h-35.031c0.11742-0.9566 0.37961-1.9184 0.78125-2.875z" style="block-progression:tb;color:#000000;enable-background:accumulate;fill:#699def;stroke-linecap:round;stroke-linejoin:round;stroke-width:.2;stroke:#556680;text-indent:0;text-transform:none"/>
  </g>
  <path d="m378.68 759.05v180.47c0.97083 0.67273 1.625 1.7919 1.625 3.0625s-0.65417 2.3585-1.625 3.0312v5.9062c0.97083 0.67273 1.625 1.7919 1.625 3.0625s-0.65417 2.3585-1.625 3.0312v5.9062c0.97083 0.67273 1.625 1.7919 1.625 3.0625s-0.65417 2.3585-1.625 3.0312v5.9062c0.97083 0.67273 1.625 1.7919 1.625 3.0625s-0.65417 2.3585-1.625 3.0312v5.9062c0.97083 0.67273 1.625 1.7919 1.625 3.0625s-0.65417 2.3585-1.625 3.0312v5.9062c0.97083 0.67277 1.625 1.792 1.625 3.0625 0 1.1736-0.55837 2.1919-1.4062 2.875a8.0008 8.0008 0 0 0 15.562 0.094c-0.90751-0.6797-1.5-1.7476-1.5-2.9687 0-1.3116 0.69458-2.4608 1.7188-3.125v-5.7812c-1.0242-0.66418-1.7188-1.7822-1.7188-3.0938 0-1.3116 0.69458-2.4608 1.7188-3.125v-5.7812c-1.0242-0.66418-1.7188-1.7822-1.7188-3.0938 0-1.3116 0.69458-2.4608 1.7188-3.125v-5.7812c-1.0242-0.66418-1.7188-1.7822-1.7188-3.0938 0-1.3116 0.69458-2.4608 1.7188-3.125v-5.7812c-1.0242-0.66418-1.7188-1.7822-1.7188-3.0938 0-1.3116 0.69458-2.4608 1.7188-3.125v-5.7812c-1.0242-0.66418-1.7188-1.7822-1.7188-3.0938 0-1.3116 0.69458-2.4608 1.7188-3.125v-180.41h-16z" style="block-progression:tb;color:#000000;enable-background:accumulate;fill:none;stroke-linecap:round;stroke-linejoin:round;stroke:#666666;text-indent:0;text-transform:none"/>
  <path d="m79.794 675.29c-1.8199-2.7657-3.3539-7.0327-4.3438-9.3438-0.69483 2.2822-2.5341 6.4312-4.375 9.3438 0.94564-0.33734 1.8981-0.58079 2.8438-0.71875v34.969a1.5066 1.5066 0 1 0 3 0.28125 1.5002 1.5002 0 0 0 0-0.28125v-35.031c0.96327 0.11638 1.9117 0.37681 2.875 0.78125z" style="block-progression:tb;color:#000000;enable-background:accumulate;fill:none;stroke-linecap:round;stroke-linejoin:round;stroke:#ab2840;text-indent:0;text-transform:none"/>
  <path d="m310.9 591.22c2.7657-1.8199 7.0327-3.3539 9.3438-4.3438-2.2822-0.69483-6.4312-2.5341-9.3438-4.375 0.33734 0.94564 0.58079 1.8981 0.71875 2.8438h-34.969a1.5066 1.5066 0 1 0-0.28125 3 1.5002 1.5002 0 0 0 0.28125 0h35.031c-0.11638 0.96327-0.37681 1.9117-0.78125 2.875z" style="block-progression:tb;color:#000000;enable-background:accumulate;fill:none;stroke-linecap:round;stroke-linejoin:round;stroke:#ab2840;text-indent:0;text-transform:none"/>
  <path d="m351.73 467.34c-1.8199-2.7657-3.3539-7.0327-4.3438-9.3438-0.69483 2.2822-2.5341 6.4312-4.375 9.3438 0.94564-0.33734 1.8981-0.58079 2.8438-0.71875v34.969a1.5066 1.5066 0 1 0 3 0.28125 1.5002 1.5002 0 0 0 0-0.28125v-35.031c0.96327 0.11638 1.9117 0.37681 2.875 0.78125z" style="block-progression:tb;color:#000000;enable-background:accumulate;fill:#f79696;stroke-linecap:round;stroke-linejoin:round;stroke:#ab2840;text-indent:0;text-transform:none"/>
  <path d="m391.04 701.84c-1.8199 2.7657-3.3539 7.0327-4.3438 9.3438-0.69484-2.2822-2.5341-6.4312-4.375-9.3438 0.94564 0.33734 1.8981 0.58079 2.8438 0.71875v-34.969a1.5066 1.5066 0 1 1 3-0.28125 1.5002 1.5002 0 0 1 0 0.28125v35.031c0.96327-0.11638 1.9117-0.37681 2.875-0.78125z" style="block-progression:tb;color:#000000;enable-background:accumulate;fill:none;stroke-linecap:round;stroke-linejoin:round;stroke:#556680;text-indent:0;text-transform:none"/>
  <path d="m391.04 855.65c-1.8199 2.7657-3.3539 7.0327-4.3438 9.3438-0.69484-2.2822-2.5341-6.4312-4.375-9.3438 0.94564 0.33734 1.8981 0.58079 2.8438 0.71875v-34.969a1.5066 1.5066 0 1 1 3-0.28125 1.5002 1.5002 0 0 1 0 0.28125v35.031c0.96327-0.11638 1.9117-0.37681 2.875-0.78125z" style="block-progression:tb;color:#000000;enable-background:accumulate;fill:none;stroke-linecap:round;stroke-linejoin:round;stroke:#556680;text-indent:0;text-transform:none"/>
  <path d="m79.794 829.09c-1.8199-2.7657-3.3539-7.0327-4.3438-9.3438-0.69483 2.2822-2.5341 6.4312-4.375 9.3438 0.94564-0.33734 1.8981-0.58079 2.8438-0.71875v34.969a1.5066 1.5066 0 1 0 3 0.28125 1.5002 1.5002 0 0 0 0-0.28125v-35.031c0.96327 0.11638 1.9117 0.37681 2.875 0.78125z" style="block-progression:tb;color:#000000;enable-background:accumulate;fill:none;stroke-linecap:round;stroke-linejoin:round;stroke:#ab2840;text-indent:0;text-transform:none"/>
  <path d="m61.278 731.87 12.344 13.594-12.344 13.594h28.312l-12.344-13.594 12.344-13.594h-28.312z" style="color:#000000;enable-background:accumulate;fill:#999999;stroke-linecap:round;stroke-linejoin:round;stroke-width:.88583;stroke:#4d4d4d"/>
  <path d="m372.52 731.87 12.344 13.594-12.344 13.594h28.312l-12.344-13.594 12.344-13.594h-28.312z" style="color:#000000;enable-background:accumulate;fill:#999999;stroke-linecap:round;stroke-linejoin:round;stroke-width:.88583;stroke:#4d4d4d"/>
  <g transform="translate(-137.78 100.74)">
   <path d="m485.15 448.54c5.4565 1e-3 9.8799 1.6603 9.8799 3.7065 0 2.0462-4.4234 3.705-9.8799 3.7054-5.4565 3.6e-4 -9.8799 1.6591-9.8799 3.7053 0 2.0462 4.4234 3.7054 9.8799 3.7064s9.8799 1.6603 9.8799 3.7065c0 2.0462-4.4234 3.705-9.8799 3.704s-9.8799 1.6578-9.8799 3.704 4.4234 3.7055 9.8799 3.7065 9.8799 1.6603 9.8799 3.7065c0 2.0462-4.4234 3.705-9.8799 3.7054-5.4565 3.6e-4 -9.8799 1.6591-9.8799 3.7053 0 2.0462 4.4234 3.7054 9.8799 3.7064s9.8799 1.6603 9.8799 3.7065c0 2.0462-4.4234 3.705-9.8799 3.7053s-9.8799 1.659-9.8799 3.7052 4.4234 3.7055 9.8799 3.7065 9.8799 1.6603 9.8799 3.7065c0 2.0462-4.4234 3.705-9.8799 3.7054-5.4565 3.6e-4 -9.8799 1.6591-9.8799 3.7053 0 2.0462 4.4234 3.7054 9.8799 3.7064s9.8799 1.6603 9.8799 3.7065c0 2.0462-4.4234 3.705-9.8799 3.704s-9.8799 1.6578-9.8799 3.704 4.4234 3.7055 9.8799 3.7065 9.8799 1.6603 9.8799 3.7065-4.4234 3.705-9.8799 3.7054c-5.4565 3.6e-4 -9.8799 1.6591-9.8799 3.7053 0 2.0462 4.4234 3.7055 9.8799 3.7064 4.6434 1e-3 8.5387 1.2027 9.5964 2.823l-19.996 1e-3c-4.432 0-8-3.568-8-8v-93.408c0-4.432 3.568-7.9991 8-8l0.79617-1.6e-4c1.0599 1.6204 4.957 2.8235 9.6032 2.8244z" style="color:#000000;enable-background:accumulate;fill:#f79696"/>
   <path d="m475.56 445.72c1.0599 1.6204 4.9476 2.8116 9.5938 2.8125 5.4565 1e-3 9.875 1.6725 9.875 3.7188 0 2.0462-4.4185 3.7184-9.875 3.7188-5.4565 3.6e-4 -9.875 1.6413-9.875 3.6875 0 2.0462 4.4185 3.7178 9.875 3.7188s9.875 1.6413 9.875 3.6875c0 2.0462-4.4185 3.7198-9.875 3.7188s-9.875 1.6413-9.875 3.6875 4.4185 3.7178 9.875 3.7188 9.875 1.6725 9.875 3.7188c0 2.0462-4.4185 3.6872-9.875 3.6875-5.4565 3.6e-4 -9.875 1.6725-9.875 3.7188 0 2.0462 4.4185 3.6865 9.875 3.6875s9.875 1.6725 9.875 3.7188c0 2.0462-4.4185 3.7185-9.875 3.7188s-9.875 1.6413-9.875 3.6875 4.4185 3.7178 9.875 3.7188 9.875 1.6413 9.875 3.6875c0 2.0462-4.4185 3.7184-9.875 3.7188-5.4565 3.6e-4 -9.875 1.6413-9.875 3.6875 0 2.0462 4.4185 3.7178 9.875 3.7188s9.875 1.6725 9.875 3.7188c0 2.0462-4.4185 3.6885-9.875 3.6875s-9.875 1.6726-9.875 3.7188 4.4185 3.6865 9.875 3.6875 9.875 1.6725 9.875 3.7188-4.4185 3.6872-9.875 3.6875c-5.4565 3.6e-4 -9.875 1.6725-9.875 3.7188 0 2.0462 4.4185 3.7178 9.875 3.7188 4.6434 1e-3 8.536 1.1922 9.5938 2.8125h0.8125c4.432 0 8-3.568 8-8v-93.406c0-4.432-3.568-8-8-8h-20z" style="color:#000000;enable-background:accumulate;fill:#a2c1f3"/>
   <rect transform="rotate(-90)" x="-555.13" y="466.75" width="109.41" height="36.799" rx="8" ry="8" style="color:#000000;enable-background:accumulate;fill-opacity:.4;fill:#ffffff"/>
   <rect transform="rotate(-90)" x="-555.13" y="466.75" width="109.41" height="36.799" rx="8" ry="8" style="color:#000000;enable-background:accumulate;fill:none;stroke-linecap:round;stroke-linejoin:round;stroke-width:.88583;stroke:#666666"/>
  </g>
  <path d="m115.18 492.04c8.7372 10.73 31.396 41.186 84.976 41.956" style="fill:none;stroke-linecap:round;stroke-width:.60611px;stroke:#666666"/>
  <path d="m214.62 520.17c-4.432 0-8 3.568-8 8v21.125c0 4.432 3.568 8 8 8h11.281v11h-11.281c-4.432 0-8 3.568-8 8v21.125c0 4.432 3.568 8 8 8h25.375c4.432 0 8-3.568 8-8v-21.125c0-4.432-3.568-8-8-8h-11.25v-11h11.25c4.432 0 8-3.568 8-8v-21.125c0-4.432-3.568-8-8-8h-25.375z" style="color:#000000;enable-background:accumulate;fill-opacity:.4;fill:#ffffff"/>
  <path d="m206.62 532.93-6.4375 0.0625h-0.0937c-0.52406-0.0254-1.0238 0.42898-1.0484 0.95308-0.0246 0.5241 0.43052 1.0232 0.95466 1.0469 0.0279 2e-3 0.0656-2e-3 0.0937 0 1.9802 0.1493 4.5735 0.10552 6.5938 0l-0.0625-2.0625z" style="block-progression:tb;color:#000000;enable-background:accumulate;fill:#333333;text-indent:0;text-transform:none"/>
  <path d="m206.62 542.4-6.4375 0.0625h-0.0937c-0.52406-0.0254-1.0238 0.42898-1.0484 0.95308-0.0246 0.5241 0.43052 1.0232 0.95466 1.0469 0.0279 2e-3 0.0656-2e-3 0.0937 0 1.9802 0.1493 4.5735 0.10552 6.5938 0l-0.0625-2.0625z" style="block-progression:tb;color:#000000;enable-background:accumulate;fill:#333333;text-indent:0;text-transform:none"/>
  <g transform="matrix(5.7776 0 0 5.7776 -659.05 -5160.8)" style="stroke-width:.17308;stroke:#4d4d4d">
   <path d="m150.58 994.81c0 1.5678 1.271 2.8388 2.8388 2.8388s2.8388-1.271 2.8388-2.8388-1.271-2.8388-2.8388-2.8388-2.8388 1.271-2.8388 2.8388z" style="color:#000000;enable-background:accumulate;fill:none;stroke-linecap:round;stroke-linejoin:round;stroke-width:.17308;stroke:#4d4d4d"/>
   <g transform="translate(113.05 -.1538)" style="stroke-width:.17308;stroke:#4d4d4d">
    <path d="m40.365 994.96c0.34057 0.92156-0.63681 1.7554-1.7796 1.7796" style="color:#000000;enable-background:accumulate;fill:#f79696;stroke-linecap:round;stroke-linejoin:round;stroke-width:.17308;stroke:#4d4d4d"/>
    <path d="m40.367 994.96c-0.41082 0.89246-1.6915 0.79094-2.5167 0" style="color:#000000;enable-background:accumulate;fill:#f79696;stroke-linecap:round;stroke-linejoin:round;stroke-width:.17308;stroke:#4d4d4d"/>
    <path d="m40.365 994.97c-0.92156 0.34057-1.7554-0.6368-1.7796-1.7796" style="color:#000000;enable-background:accumulate;fill:#f79696;stroke-linecap:round;stroke-linejoin:round;stroke-width:.17308;stroke:#4d4d4d"/>
    <path d="m40.362 994.97c-0.89246-0.41082-0.79094-1.6915 1e-6 -2.5167" style="color:#000000;enable-background:accumulate;fill:#ffabab;stroke-linecap:round;stroke-linejoin:round;stroke-width:.17308;stroke:#4d4d4d"/>
    <path d="m40.359 994.97c-0.34057-0.92156 0.63681-1.7554 1.7796-1.7796" style="color:#000000;enable-background:accumulate;fill:#ffabab;stroke-linecap:round;stroke-linejoin:round;stroke-width:.17308;stroke:#4d4d4d"/>
    <path d="m40.358 994.96c0.41082-0.89246 1.6915-0.79093 2.5167 0" style="color:#000000;enable-background:accumulate;fill:#ffabab;stroke-linecap:round;stroke-linejoin:round;stroke-width:.17308;stroke:#4d4d4d"/>
    <path d="m40.359 994.96c0.92156-0.34056 1.7554 0.63681 1.7796 1.7796" style="color:#000000;enable-background:accumulate;fill:#ffabab;stroke-linecap:round;stroke-linejoin:round;stroke-width:.17308;stroke:#4d4d4d"/>
    <path d="m40.362 994.96c0.89246 0.41082 0.79094 1.6915 0 2.5167" style="color:#000000;enable-background:accumulate;fill:#ffabab;stroke-linecap:round;stroke-linejoin:round;stroke-width:.17308;stroke:#4d4d4d"/>
    <path d="m40.365 994.96c0.34057 0.92156-0.63681 1.7554-1.7796 1.7796" style="color:#000000;enable-background:accumulate;fill:none;stroke-linecap:round;stroke-linejoin:round;stroke-width:.17308;stroke:#4d4d4d"/>
   </g>
  </g>
  <path d="m214.62 520.17c-4.432 0-8 3.568-8 8v21.125c0 4.432 3.568 8 8 8h11.281v11h-11.281c-4.432 0-8 3.568-8 8v21.125c0 4.432 3.568 8 8 8h25.375c4.432 0 8-3.568 8-8v-21.125c0-4.432-3.568-8-8-8h-11.25v-11h11.25c4.432 0 8-3.568 8-8v-21.125c0-4.432-3.568-8-8-8h-25.375z" style="color:#000000;enable-background:accumulate;fill:none;stroke-linecap:round;stroke-linejoin:round;stroke-width:.886;stroke:#666666"/>
  <g transform="translate(-17.784 180.74)">
   <path transform="matrix(.41285 0 0 .41482 154.71 193.16)" d="m251.75 397.38c0 9.0583-7.3432 16.401-16.402 16.401s-16.401-7.3432-16.401-16.401c8.9e-4 -9.0583-7.3423-16.402-16.401-16.402s-16.401 7.3432-16.401 16.402" style="color:#000000;enable-background:accumulate;fill:none;filter:url(#a);stroke-linecap:round;stroke-linejoin:round;stroke-width:2.4164;stroke:#4d4d4d"/>
   <path transform="matrix(.78875 0 0 .78875 124.96 93.798)" d="m173.11 334.96a20.794 20.794 0 1 1-41.589 0 20.794 20.794 0 1 1 41.589 0z" style="color:#000000;enable-background:accumulate;fill:none;stroke-linecap:round;stroke-linejoin:round;stroke-width:1.2678;stroke:#4d4d4d"/>
  </g>
  <path d="m92.986 487.2h23.197l-20.759-5.5623h-2.5411" style="fill:none;stroke-linecap:round;stroke-linejoin:round;stroke-width:.60611px;stroke:#333333"/>
  <path d="m92.677 487.21h-23.197l20.759-5.5623h2.5411" style="fill:none;stroke-linecap:round;stroke-linejoin:round;stroke-width:.60611px;stroke:#333333"/>
  <text x="369.35226" y="591.10132" style="fill:#000000;font-family:'Liberation Sans';font-size:18px;letter-spacing:0px;line-height:0%;word-spacing:0px" xml:space="preserve"><tspan x="369.35226" y="591.10132" style="font-family:'Liberation Sans';font-size:18px;line-height:125%">Condenser</tspan></text>
  <text x="195.25375" y="620.90143" style="fill:#000000;font-family:'Liberation Sans';font-size:18px;letter-spacing:0px;line-height:0%;word-spacing:0px" xml:space="preserve"><tspan x="195.25375" y="620.90143" style="font-family:'Liberation Sans';font-size:18px;line-height:125%">Turbine</tspan></text>
  <text x="186.82846" y="516.39185" style="fill:#000000;font-family:'Liberation Sans';font-size:18px;letter-spacing:0px;line-height:0%;word-spacing:0px" xml:space="preserve"><tspan x="186.82846" y="516.39185" style="font-family:'Liberation Sans';font-size:18px;line-height:125%">Generator</tspan></text>
  <text x="93.357384" y="744.48846" style="fill:#000000;font-family:'Liberation Sans';font-size:18px;letter-spacing:0px;line-height:0%;word-spacing:0px" xml:space="preserve"><tspan x="93.357384" y="744.48846" style="font-family:'Liberation Sans';font-size:18px;line-height:125%">Wellhead</tspan></text>
  <text x="294.74323" y="744.48846" style="fill:#000000;font-family:'Liberation Sans';font-size:18px;letter-spacing:0px;line-height:0%;word-spacing:0px" xml:space="preserve"><tspan x="294.74323" y="744.48846" style="font-family:'Liberation Sans';font-size:18px;line-height:125%">Wellhead</tspan></text>
  <text x="168.70824" y="768.48846" style="fill:#000000;font-family:'Liberation Sans';font-size:18px;letter-spacing:0px;line-height:0%;word-spacing:0px" xml:space="preserve"><tspan x="168.70824" y="768.48846" style="font-family:'Liberation Sans';font-size:18px;line-height:125%">Ground surface</tspan></text>
  <text x="283.50842" y="912.57343" style="fill:#000000;font-family:'Liberation Sans';font-size:18px;letter-spacing:0px;line-height:0%;word-spacing:0px" xml:space="preserve"><tspan x="283.50842" y="912.57343" style="font-family:'Liberation Sans';font-size:18px;line-height:125%">Subsurface</tspan><tspan x="283.50842" y="930.07343" style="font-family:'Liberation Sans';font-size:18px;line-height:125%">injection</tspan></text>
  <g transform="translate(39.831 231.57)">
   <text x="192.17003" y="810.67847" style="fill:#000000;font-family:'Liberation Sans';font-size:18px;letter-spacing:0px;line-height:0%;word-spacing:0px" xml:space="preserve"><tspan x="192.17003" y="810.67847" style="font-family:'Liberation Sans';font-size:18px;line-height:125%">Water</tspan></text>
   <text x="191.59581" y="793.22565" style="fill:#000000;font-family:'Liberation Sans';font-size:18px;letter-spacing:0px;line-height:0%;word-spacing:0px" xml:space="preserve"><tspan x="191.59581" y="793.22565" style="font-family:'Liberation Sans';font-size:18px;line-height:125%">Steam</tspan></text>
   <rect x="151.04" y="780.75" width="37.508" height="11.489" rx="8" ry="8" style="color:#000000;enable-background:accumulate;fill:#f79696;stroke-linecap:round;stroke-linejoin:round;stroke-width:.88583;stroke:#666666"/>
   <rect x="151.04" y="799.39" width="37.508" height="11.489" rx="8" ry="8" style="color:#000000;enable-background:accumulate;fill:#a2c1f3;stroke-linecap:round;stroke-linejoin:round;stroke-width:.88583;stroke:#666666"/>
  </g>
 </g>
</svg>
