<?xml version="1.0" encoding="UTF-8" standalone="no"?>
<!-- Created with Inkscape (http://www.inkscape.org/) -->

<svg
   width="84.892273mm"
   height="28.823032mm"
   viewBox="0 0 84.892273 28.823032"
   version="1.1"
   id="svg379"
   inkscape:version="1.2.2 (b0a8486541, 2022-12-01, custom)"
   sodipodi:docname="Couplage_serie.svg"
   xmlns:inkscape="http://www.inkscape.org/namespaces/inkscape"
   xmlns:sodipodi="http://sodipodi.sourceforge.net/DTD/sodipodi-0.dtd"
   xmlns="http://www.w3.org/2000/svg"
   xmlns:svg="http://www.w3.org/2000/svg">
  <sodipodi:namedview
     id="namedview381"
     pagecolor="#ffffff"
     bordercolor="#000000"
     borderopacity="0.25"
     inkscape:showpageshadow="2"
     inkscape:pageopacity="0.0"
     inkscape:pagecheckerboard="0"
     inkscape:deskcolor="#d1d1d1"
     inkscape:document-units="mm"
     showgrid="false"
     inkscape:zoom="1.3556055"
     inkscape:cx="174.82963"
     inkscape:cy="103.64373"
     inkscape:window-width="1366"
     inkscape:window-height="704"
     inkscape:window-x="0"
     inkscape:window-y="27"
     inkscape:window-maximized="1"
     inkscape:current-layer="layer1"
     inkscape:lockguides="false" />
  <defs
     id="defs376" />
  <g
     inkscape:label="Layer 1"
     inkscape:groupmode="layer"
     id="layer1"
     transform="translate(-71.156297,-115.21588)">
    <g
       id="path6295"
       transform="matrix(2.101172,0,0,2.101172,51.269032,-116.00184)"
       style="stroke-width:0.475925">
      <path
         style="color:#000000;fill:#ffffff;stroke-width:0.377765;stroke-linecap:square;-inkscape-stroke:none"
         d="M 9.861881,117.77523 H 49.106524"
         id="path9587" />
      <path
         style="color:#000000;fill:#0000ff;stroke-width:0.475925;stroke-linecap:square;-inkscape-stroke:none"
         d="m 9.4648438,117.37891 v 0.79297 h 0.3964843 39.2460939 0.396484 v -0.79297 H 49.107422 9.8613281 Z"
         id="path9589" />
      <g
         id="g9579"
         style="stroke-width:0.475925">
        <path
           style="color:#000000;fill:#0000ff;stroke-width:0.475925;-inkscape-stroke:none"
           d="m 47.205078,115.11328 -0.5625,0.56055 2.101563,2.10156 -2.101563,2.09961 0.5625,0.5625 2.662109,-2.66211 z"
           id="path9581" />
      </g>
    </g>
    <ellipse
       style="fill:#ffffff;stroke:#000000;stroke-width:0.529167;stroke-linecap:square;stroke-dasharray:none"
       id="ellipse6297"
       cx="103.70969"
       cy="131.46417"
       rx="6.4773312"
       ry="6.4786057" />
    <g
       id="g6301"
       style="stroke-width:0.962411"
       transform="matrix(1.0390565,0,0,1.0390622,38.353685,25.42688)">
      <path
         style="fill:none;stroke:#000000;stroke-width:0.509275;stroke-linecap:square;stroke-dasharray:none"
         d="m 62.899369,96.00036 6.067366,6.23736 -6.067366,5.96829"
         id="path6299"
         sodipodi:nodetypes="ccc" />
    </g>
    <g
       aria-label="P1"
       id="text768"
       style="font-size:7.56864px;font-family:Montserrat;-inkscape-font-specification:Montserrat;text-align:center;text-anchor:middle;stroke-width:0.793752;stroke-linecap:square"
       transform="translate(0,-22.950403)">
      <path
         d="m 100.49302,144.03891 v -5.29805 h 1.98298 q 0.67361,0 1.158,0.21949 0.4844,0.21192 0.74173,0.62063 0.2649,0.40114 0.2649,0.97636 0,0.56007 -0.2649,0.96878 -0.25733,0.40114 -0.74173,0.62063 -0.48439,0.21949 -1.158,0.21949 h -1.67267 l 0.24977,-0.2649 v 1.93757 z m 0.56008,-1.89216 -0.24977,-0.27247 h 1.65754 q 0.7947,0 1.20341,-0.34059 0.41627,-0.34816 0.41627,-0.97635 0,-0.63577 -0.41627,-0.98393 -0.40871,-0.34816 -1.20341,-0.34816 h -1.65754 l 0.24977,-0.2649 z"
         id="path824" />
      <path
         d="m 106.38141,144.03891 v -5.07099 l 0.2422,0.25733 h -1.49103 v -0.48439 h 1.79377 v 5.29805 z"
         id="path826" />
    </g>
    <g
       aria-label="P2"
       id="text822"
       style="font-size:7.56864px;font-family:Montserrat;-inkscape-font-specification:Montserrat;text-align:center;text-anchor:middle;stroke-width:0.793752;stroke-linecap:square"
       transform="translate(-0.12488285,-22.950403)">
      <path
         d="m 126.7741,144.03891 v -5.29805 h 1.98298 q 0.67361,0 1.158,0.21949 0.4844,0.21192 0.74173,0.62063 0.2649,0.40114 0.2649,0.97636 0,0.56007 -0.2649,0.96878 -0.25733,0.40114 -0.74173,0.62063 -0.48439,0.21949 -1.158,0.21949 h -1.67267 l 0.24977,-0.2649 v 1.93757 z m 0.56008,-1.89216 -0.24977,-0.27247 h 1.65753 q 0.79471,0 1.20342,-0.34059 0.41627,-0.34816 0.41627,-0.97635 0,-0.63577 -0.41627,-0.98393 -0.40871,-0.34816 -1.20342,-0.34816 h -1.65753 l 0.24977,-0.2649 z"
         id="path833" />
      <path
         d="m 131.60287,144.03891 v -0.386 l 2.20247,-2.15706 q 0.30275,-0.29518 0.45412,-0.51467 0.15138,-0.22706 0.20436,-0.42384 0.053,-0.19679 0.053,-0.37087 0,-0.46169 -0.31789,-0.72659 -0.31031,-0.2649 -0.92337,-0.2649 -0.46926,0 -0.83255,0.1438 -0.35573,0.14381 -0.61306,0.44655 l -0.386,-0.33302 q 0.31031,-0.36329 0.79471,-0.56008 0.48439,-0.19678 1.08231,-0.19678 0.53737,0 0.93094,0.17408 0.39357,0.16651 0.6055,0.49196 0.21949,0.32545 0.21949,0.76443 0,0.25734 -0.0757,0.5071 -0.0681,0.24977 -0.25733,0.52981 -0.18165,0.27247 -0.53738,0.62063 l -2.02082,1.98298 -0.15138,-0.21192 h 3.28479 v 0.48439 z"
         id="path835" />
    </g>
    <ellipse
       style="fill:#ffffff;stroke:#000000;stroke-width:0.529167;stroke-linecap:square;stroke-dasharray:none"
       id="ellipse582"
       cx="130.92171"
       cy="131.46417"
       rx="6.4773312"
       ry="6.4786057" />
    <g
       id="g586"
       style="stroke-width:0.962411"
       transform="matrix(1.0390565,0,0,1.0390622,65.565709,25.42688)">
      <path
         style="fill:none;stroke:#000000;stroke-width:0.509275;stroke-linecap:square;stroke-dasharray:none"
         d="m 62.899369,96.00036 6.067366,6.23736 -6.067366,5.96829"
         id="path584"
         sodipodi:nodetypes="ccc" />
    </g>
  </g>
</svg>
