<?xml version="1.0" encoding="UTF-8" standalone="no"?>
<!-- Created with Inkscape (http://www.inkscape.org/) -->

<svg
   width="81.603302mm"
   height="48.285702mm"
   viewBox="0 0 81.603302 48.285702"
   version="1.1"
   id="svg925"
   inkscape:version="1.2.2 (b0a8486541, 2022-12-01, custom)"
   sodipodi:docname="Couplage_parallele.svg"
   xmlns:inkscape="http://www.inkscape.org/namespaces/inkscape"
   xmlns:sodipodi="http://sodipodi.sourceforge.net/DTD/sodipodi-0.dtd"
   xmlns="http://www.w3.org/2000/svg"
   xmlns:svg="http://www.w3.org/2000/svg">
  <sodipodi:namedview
     id="namedview927"
     pagecolor="#ffffff"
     bordercolor="#000000"
     borderopacity="0.25"
     inkscape:showpageshadow="2"
     inkscape:pageopacity="0.0"
     inkscape:pagecheckerboard="0"
     inkscape:deskcolor="#d1d1d1"
     inkscape:document-units="mm"
     showgrid="false"
     inkscape:zoom="1.3556055"
     inkscape:cx="205.81209"
     inkscape:cy="95.529267"
     inkscape:window-width="1366"
     inkscape:window-height="704"
     inkscape:window-x="0"
     inkscape:window-y="27"
     inkscape:window-maximized="1"
     inkscape:current-layer="layer1" />
  <defs
     id="defs922" />
  <g
     inkscape:label="Layer 1"
     inkscape:groupmode="layer"
     id="layer1"
     transform="translate(-59.804895,-112.84667)">
    <path
       style="fill:none;stroke:#0000ff;stroke-width:0.793751;stroke-linecap:square;stroke-dasharray:none"
       d="M 71.260751,150.97252 V 136.98951 123.0065 h 55.116129 v 27.96602 z"
       id="path7083"
       sodipodi:nodetypes="cccccc" />
    <path
       style="fill:#ffffff;stroke:#0000ff;stroke-width:0.793751;stroke-linecap:square;stroke-dasharray:none"
       d="m 60.201771,136.98951 h 11.05898"
       id="path6305"
       sodipodi:nodetypes="cc" />
    <g
       id="path1685">
      <path
         style="color:#000000;fill:#ffffff;stroke-width:0.793751;stroke-linecap:square;-inkscape-stroke:none"
         d="M 126.37688,136.98951 H 140.6482"
         id="path1916" />
      <path
         style="color:#000000;fill:#0000ff;stroke-linecap:square;-inkscape-stroke:none"
         d="m 125.98047,136.5918 v 0.79492 h 0.39648 14.27149 0.39648 v -0.79492 h -0.39648 -14.27149 z"
         id="path1918" />
      <g
         id="g1908">
        <path
           style="color:#000000;fill:#0000ff;-inkscape-stroke:none"
           d="m 138.74609,134.32812 -0.56054,0.56055 2.09961,2.09961 -2.09961,2.10156 0.56054,0.5625 2.66211,-2.66211 z"
           id="path1910" />
      </g>
    </g>
    <g
       aria-label="P1"
       id="text1955"
       style="font-size:7.24722px;font-family:Montserrat;-inkscape-font-specification:Montserrat;text-align:center;text-anchor:middle;stroke-width:0.793749;stroke-linecap:square">
      <path
         d="m 105.47011,119.97652 v -5.07306 h 1.89877 q 0.645,0 1.10882,0.21017 0.46383,0.20292 0.71023,0.59427 0.25365,0.38411 0.25365,0.9349 0,0.53629 -0.25365,0.92764 -0.2464,0.3841 -0.71023,0.59427 -0.46382,0.21017 -1.10882,0.21017 h -1.60164 l 0.23916,-0.25365 v 1.85529 z m 0.53629,-1.81181 -0.23916,-0.2609 h 1.58714 q 0.76096,0 1.15231,-0.32612 0.3986,-0.33338 0.3986,-0.93489 0,-0.60877 -0.3986,-0.94214 -0.39135,-0.33338 -1.15231,-0.33338 h -1.58714 l 0.23916,-0.25365 z"
         id="path327" />
      <path
         d="m 111.10843,119.97652 v -4.85564 l 0.23191,0.2464 h -1.4277 v -0.46382 h 1.71759 v 5.07306 z"
         id="path329" />
    </g>
    <g
       aria-label="P2"
       id="text1959"
       style="font-size:7.24722px;font-family:Montserrat;-inkscape-font-specification:Montserrat;text-align:center;text-anchor:middle;stroke-width:0.793749;stroke-linecap:square">
      <path
         d="m 104.73814,148.44127 v -5.07306 h 1.89877 q 0.645,0 1.10883,0.21017 0.46382,0.20293 0.71022,0.59428 0.25366,0.3841 0.25366,0.93489 0,0.53629 -0.25366,0.92764 -0.2464,0.3841 -0.71022,0.59427 -0.46383,0.21017 -1.10883,0.21017 h -1.60163 l 0.23915,-0.25365 v 1.85529 z m 0.53629,-1.81181 -0.23915,-0.2609 h 1.58714 q 0.76095,0 1.1523,-0.32612 0.3986,-0.33337 0.3986,-0.93489 0,-0.60877 -0.3986,-0.94214 -0.39135,-0.33337 -1.1523,-0.33337 h -1.58714 l 0.23915,-0.25366 z"
         id="path336" />
      <path
         d="m 109.36185,148.44127 v -0.36961 l 2.10894,-2.06546 q 0.28989,-0.28264 0.43483,-0.49281 0.14495,-0.21741 0.19568,-0.40584 0.0507,-0.18843 0.0507,-0.35512 0,-0.44208 -0.30439,-0.69573 -0.29713,-0.25365 -0.88416,-0.25365 -0.44933,0 -0.79719,0.1377 -0.34062,0.13769 -0.58703,0.42758 l -0.3696,-0.31888 q 0.29713,-0.34786 0.76095,-0.53629 0.46383,-0.18843 1.03636,-0.18843 0.51455,0 0.8914,0.16669 0.37686,0.15944 0.57978,0.47107 0.21017,0.31163 0.21017,0.73197 0,0.2464 -0.0725,0.48556 -0.0652,0.23916 -0.24641,0.50731 -0.17393,0.2609 -0.51455,0.59427 l -1.93501,1.89877 -0.14494,-0.20292 h 3.14529 v 0.46382 z"
         id="path338" />
    </g>
    <ellipse
       style="fill:#ffffff;stroke:#000000;stroke-width:0.529167;stroke-linecap:square;stroke-dasharray:none"
       id="ellipse6297"
       cx="92.341484"
       cy="123.0065"
       rx="6.4773312"
       ry="6.4786057" />
    <g
       id="g6301"
       style="stroke-width:0.962411"
       transform="matrix(1.0390565,0,0,1.0390622,26.985483,16.969213)">
      <path
         style="fill:none;stroke:#000000;stroke-width:0.509275;stroke-linecap:square;stroke-dasharray:none"
         d="m 62.899369,96.00036 6.067366,6.23736 -6.067366,5.96829"
         id="path6299"
         sodipodi:nodetypes="ccc" />
    </g>
    <ellipse
       style="fill:#ffffff;stroke:#000000;stroke-width:0.529167;stroke-linecap:square;stroke-dasharray:none"
       id="ellipse648"
       cx="92.341484"
       cy="150.97252"
       rx="6.4773312"
       ry="6.4786057" />
    <g
       id="g652"
       style="stroke-width:0.962411"
       transform="matrix(1.0390565,0,0,1.0390622,26.985483,44.935233)">
      <path
         style="fill:none;stroke:#000000;stroke-width:0.509275;stroke-linecap:square;stroke-dasharray:none"
         d="m 62.899369,96.00036 6.067366,6.23736 -6.067366,5.96829"
         id="path650"
         sodipodi:nodetypes="ccc" />
    </g>
  </g>
</svg>
