<?xml version="1.0" encoding="UTF-8" standalone="no"?>
<!-- Created with Inkscape (http://www.inkscape.org/) -->

<svg
   width="793.70081"
   height="256.41174"
   viewBox="0 0 210 67.842273"
   version="1.1"
   id="svg5"
   inkscape:version="1.2.2 (b0a8486541, 2022-12-01, custom)"
   sodipodi:docname="pdg_couplage.svg"
   xmlns:inkscape="http://www.inkscape.org/namespaces/inkscape"
   xmlns:sodipodi="http://sodipodi.sourceforge.net/DTD/sodipodi-0.dtd"
   xmlns="http://www.w3.org/2000/svg"
   xmlns:svg="http://www.w3.org/2000/svg">
  <sodipodi:namedview
     id="namedview7"
     pagecolor="#ffffff"
     bordercolor="#000000"
     borderopacity="0.25"
     inkscape:showpageshadow="2"
     inkscape:pageopacity="0.0"
     inkscape:pagecheckerboard="0"
     inkscape:deskcolor="#d1d1d1"
     inkscape:document-units="px"
     showgrid="false"
     showguides="true"
     inkscape:zoom="1.9171155"
     inkscape:cx="91.282971"
     inkscape:cy="137.96769"
     inkscape:window-width="1366"
     inkscape:window-height="704"
     inkscape:window-x="0"
     inkscape:window-y="27"
     inkscape:window-maximized="1"
     inkscape:current-layer="layer1" />
  <defs
     id="defs2" />
  <g
     inkscape:label="Layer 1"
     inkscape:groupmode="layer"
     id="layer1"
     transform="translate(-2.1413801e-8,-90.256413)">
    <g
       id="path6196">
      <path
         style="color:#000000;fill:#ffffff;stroke-width:0.79375;stroke-linecap:square;-inkscape-stroke:none"
         d="M 9.861881,102.91684 H 49.106524"
         id="path9573" />
      <path
         style="color:#000000;fill:#0000ff;stroke-linecap:square;-inkscape-stroke:none"
         d="m 9.4648438,102.51953 v 0.79492 h 0.3964843 39.2460939 0.396484 v -0.79492 H 49.107422 9.8613281 Z"
         id="path9575" />
      <g
         id="g9565">
        <path
           style="color:#000000;fill:#0000ff;-inkscape-stroke:none"
           d="m 47.205078,100.25586 -0.5625,0.56055 2.101563,2.09961 -2.101563,2.10156 0.5625,0.56055 2.662109,-2.66211 z"
           id="path9567" />
      </g>
    </g>
    <g
       id="g2518"
       transform="matrix(0.71692898,0,0,0.71693119,-20.136574,29.753325)"
       style="stroke-width:1.39484">
      <ellipse
         style="fill:#ffffff;stroke:#000000;stroke-width:0.738101;stroke-linecap:square;stroke-dasharray:none"
         id="path186"
         cx="62.899368"
         cy="102.05096"
         rx="6.2338586"
         ry="6.2350512" />
      <g
         id="g6130"
         style="stroke-width:1.39484">
        <path
           style="fill:none;stroke:#000000;stroke-width:0.738101;stroke-linecap:square;stroke-dasharray:none"
           d="m 62.899369,96.024333 6.067366,6.026627 -6.067366,5.96829"
           id="path242"
           sodipodi:nodetypes="ccc" />
      </g>
    </g>
    <g
       id="path6295">
      <path
         style="color:#000000;fill:#ffffff;stroke-width:0.79375;stroke-linecap:square;-inkscape-stroke:none"
         d="M 9.861881,117.77523 H 49.106524"
         id="path9587" />
      <path
         style="color:#000000;fill:#0000ff;stroke-linecap:square;-inkscape-stroke:none"
         d="m 9.4648438,117.37891 v 0.79297 h 0.3964843 39.2460939 0.396484 v -0.79297 H 49.107422 9.8613281 Z"
         id="path9589" />
      <g
         id="g9579">
        <path
           style="color:#000000;fill:#0000ff;-inkscape-stroke:none"
           d="m 47.205078,115.11328 -0.5625,0.56055 2.101563,2.10156 -2.101563,2.09961 0.5625,0.5625 2.662109,-2.66211 z"
           id="path9581" />
      </g>
    </g>
    <g
       id="g6303"
       transform="matrix(0.71692898,0,0,0.71693119,-20.136574,44.61172)"
       style="stroke-width:1.39484">
      <ellipse
         style="fill:#ffffff;stroke:#000000;stroke-width:0.738101;stroke-linecap:square;stroke-dasharray:none"
         id="ellipse6297"
         cx="62.899368"
         cy="102.05096"
         rx="6.2338586"
         ry="6.2350512" />
      <g
         id="g6301"
         style="stroke-width:1.39484">
        <path
           style="fill:none;stroke:#000000;stroke-width:0.738101;stroke-linecap:square;stroke-dasharray:none"
           d="m 62.899369,96.024333 6.067366,6.026627 -6.067366,5.96829"
           id="path6299"
           sodipodi:nodetypes="ccc" />
      </g>
    </g>
    <g
       id="g6321"
       transform="matrix(0.71692898,0,0,0.71693119,-7.126256,44.61172)"
       style="stroke-width:1.39484">
      <ellipse
         style="fill:#ffffff;stroke:#000000;stroke-width:0.738101;stroke-linecap:square;stroke-dasharray:none"
         id="ellipse6315"
         cx="62.899368"
         cy="102.05096"
         rx="6.2338586"
         ry="6.2350512" />
      <g
         id="g6319"
         style="stroke-width:1.39484">
        <path
           style="fill:none;stroke:#000000;stroke-width:0.738101;stroke-linecap:square;stroke-dasharray:none"
           d="m 62.899369,96.024333 6.067366,6.026627 -6.067366,5.96829"
           id="path6317"
           sodipodi:nodetypes="ccc" />
      </g>
    </g>
    <path
       style="fill:none;stroke:#0000ff;stroke-width:0.79375;stroke-linecap:square;stroke-dasharray:none"
       d="m 14.951152,145.43825 v -6.40231 -6.40231 h 25.364054 v 12.80462 z"
       id="path7083"
       sodipodi:nodetypes="cccccc" />
    <path
       style="fill:#ffffff;stroke:#0000ff;stroke-width:0.79375;stroke-linecap:square;stroke-dasharray:none"
       d="m 9.861881,139.03594 h 5.089271"
       id="path6305"
       sodipodi:nodetypes="cc" />
    <g
       id="g6313"
       transform="matrix(0.71692898,0,0,0.71693119,-20.136574,59.470115)"
       style="stroke-width:1.39484">
      <ellipse
         style="fill:#ffffff;stroke:#000000;stroke-width:0.738101;stroke-linecap:square;stroke-dasharray:none"
         id="ellipse6307"
         cx="62.899368"
         cy="102.05096"
         rx="6.2338586"
         ry="6.2350512" />
      <g
         id="g6311"
         style="stroke-width:1.39484">
        <path
           style="fill:none;stroke:#000000;stroke-width:0.738101;stroke-linecap:square;stroke-dasharray:none"
           d="m 62.899369,96.024333 6.067366,6.026627 -6.067366,5.96829"
           id="path6309"
           sodipodi:nodetypes="ccc" />
      </g>
    </g>
    <g
       id="g6331"
       transform="matrix(0.71692898,0,0,0.71693119,-20.136574,72.274736)"
       style="stroke-width:1.39484">
      <ellipse
         style="fill:#ffffff;stroke:#000000;stroke-width:0.738101;stroke-linecap:square;stroke-dasharray:none"
         id="ellipse6325"
         cx="62.899368"
         cy="102.05096"
         rx="6.2338586"
         ry="6.2350512" />
      <g
         id="g6329"
         style="stroke-width:1.39484">
        <path
           style="fill:none;stroke:#000000;stroke-width:0.738101;stroke-linecap:square;stroke-dasharray:none"
           d="m 62.899369,96.024333 6.067366,6.026627 -6.067366,5.96829"
           id="path6327"
           sodipodi:nodetypes="ccc" />
      </g>
    </g>
    <g
       id="path7141">
      <path
         style="color:#000000;fill:#ffffff;stroke-width:0.79375;stroke-linecap:square;-inkscape-stroke:none"
         d="m 40.315206,139.03594 h 8.791318"
         id="path9601" />
      <path
         style="color:#000000;fill:#0000ff;stroke-linecap:square;-inkscape-stroke:none"
         d="m 39.917969,138.63867 v 0.79492 h 0.396484 8.792969 0.396484 v -0.79492 h -0.396484 -8.792969 z"
         id="path9603" />
      <g
         id="g9593">
        <path
           style="color:#000000;fill:#0000ff;-inkscape-stroke:none"
           d="m 47.205078,136.375 -0.5625,0.56055 2.101563,2.09961 -2.101563,2.10156 0.5625,0.56055 2.662109,-2.66211 z"
           id="path9595" />
      </g>
    </g>
    <rect
       style="fill:none;stroke:#000000;stroke-width:0.529167;stroke-linecap:square;stroke-dasharray:none"
       id="rect7253"
       width="58.802067"
       height="67.313103"
       x="0.26458353"
       y="90.520996"
       ry="2.3039474" />
    <rect
       style="fill:none;stroke:#000000;stroke-width:0.529167;stroke-linecap:square;stroke-dasharray:none"
       id="rect7478"
       width="42.709641"
       height="22.938204"
       x="83.64518"
       y="112.04815"
       ry="0" />
    <g
       aria-label="CHOIX"
       id="text7534"
       style="font-size:7.05556px;font-family:Montserrat;-inkscape-font-specification:Montserrat;text-align:center;text-anchor:middle;stroke-width:0.529167;stroke-linecap:square">
      <path
         d="m 95.859533,126.05724 q -0.564445,0 -1.051278,-0.18344 -0.479779,-0.1905 -0.839612,-0.52917 -0.352778,-0.34572 -0.550334,-0.81139 -0.197556,-0.46567 -0.197556,-1.016 0,-0.55033 0.197556,-1.016 0.197556,-0.46567 0.557389,-0.80433 0.359834,-0.34573 0.839612,-0.52917 0.479778,-0.1905 1.051279,-0.1905 0.606778,0 1.107722,0.21167 0.500945,0.20461 0.846668,0.61383 l -0.592667,0.55739 q -0.268112,-0.28928 -0.599723,-0.43039 -0.331611,-0.14817 -0.719667,-0.14817 -0.388056,0 -0.712612,0.127 -0.3175,0.127 -0.557389,0.35984 -0.232833,0.23283 -0.366889,0.55033 -0.127,0.3175 -0.127,0.6985 0,0.381 0.127,0.6985 0.134056,0.3175 0.366889,0.55033 0.239889,0.23284 0.557389,0.35984 0.324556,0.127 0.712612,0.127 0.388056,0 0.719667,-0.14111 0.331611,-0.14817 0.599723,-0.4445 l 0.592667,0.56444 q -0.345723,0.40217 -0.846668,0.61384 -0.500944,0.21166 -1.114778,0.21166 z"
         style="-inkscape-font-specification:'Montserrat Semi-Bold'"
         id="path9352" />
      <path
         d="m 102.17425,121.04779 h 0.91723 v 4.9389 h -0.91723 z m -2.554108,4.9389 h -0.917223 v -4.9389 h 0.917223 z m 2.624668,-2.11667 h -2.702279 v -0.78317 h 2.702279 z"
         style="-inkscape-font-specification:'Montserrat Semi-Bold'"
         id="path9354" />
      <path
         d="m 106.73214,126.05724 q -0.57855,0 -1.06539,-0.1905 -0.48683,-0.1905 -0.84666,-0.52916 -0.35984,-0.34573 -0.55739,-0.80434 -0.19756,-0.46567 -0.19756,-1.016 0,-0.55033 0.19756,-1.00894 0.19755,-0.46567 0.55739,-0.80434 0.35983,-0.34572 0.84666,-0.53622 0.48684,-0.1905 1.05834,-0.1905 0.57855,0 1.05833,0.1905 0.48683,0.1905 0.84667,0.53622 0.35983,0.33867 0.55739,0.80434 0.19755,0.45861 0.19755,1.00894 0,0.55033 -0.19755,1.016 -0.19756,0.46567 -0.55739,0.80434 -0.35984,0.33866 -0.84667,0.52916 -0.47978,0.1905 -1.05128,0.1905 z m -0.007,-0.80433 q 0.37394,0 0.69144,-0.127 0.3175,-0.127 0.55034,-0.35984 0.23283,-0.23988 0.35983,-0.55033 0.13405,-0.3175 0.13405,-0.6985 0,-0.381 -0.13405,-0.69144 -0.127,-0.3175 -0.35983,-0.55034 -0.23284,-0.23989 -0.55034,-0.36689 -0.3175,-0.127 -0.69144,-0.127 -0.37395,0 -0.69145,0.127 -0.31044,0.127 -0.55033,0.36689 -0.23284,0.23284 -0.36689,0.55034 -0.127,0.31044 -0.127,0.69144 0,0.37395 0.127,0.69145 0.13405,0.3175 0.36689,0.55738 0.23283,0.23284 0.55033,0.35984 0.3175,0.127 0.69145,0.127 z"
         style="-inkscape-font-specification:'Montserrat Semi-Bold'"
         id="path9356" />
      <path
         d="m 110.35869,125.98669 v -4.9389 h 0.91723 v 4.9389 z"
         style="-inkscape-font-specification:'Montserrat Semi-Bold'"
         id="path9358" />
      <path
         d="m 112.00968,125.98669 2.08139,-2.86456 v 0.69144 l -1.98261,-2.76578 h 1.03717 l 1.47461,2.04612 -0.42333,0.007 1.4605,-2.05317 h 0.99483 l -1.9685,2.7164 v -0.66323 l 2.0955,2.88573 h -1.05833 l -1.55223,-2.17312 h 0.41628 l -1.53105,2.17312 z"
         style="-inkscape-font-specification:'Montserrat Semi-Bold'"
         id="path9360" />
    </g>
    <path
       style="fill:none;stroke:#ff2a2a;stroke-width:0.529167;stroke-linecap:square;stroke-dasharray:none"
       d="m 157.20563,135.35753 c 8.98704,1.62219 17.27239,6.27724 24.73382,14.49346"
       id="path8708"
       sodipodi:nodetypes="cc" />
    <path
       style="fill:none;stroke:#44aa00;stroke-width:0.529167;stroke-linecap:square;stroke-dasharray:none"
       d="m 157.20563,118.23446 c 15.10334,5.52176 21.5253,17.39384 24.73382,31.61653"
       id="path8650"
       sodipodi:nodetypes="cc" />
    <path
       style="fill:none;stroke:#0000ff;stroke-width:0.529167;stroke-linecap:square;stroke-dasharray:none"
       d="m 157.20563,135.35753 c 15.06421,0.83289 29.14179,5.99191 42.45706,14.49346"
       id="path8652"
       sodipodi:nodetypes="cc" />
    <rect
       style="fill:none;stroke:#000000;stroke-width:0.529167;stroke-linecap:square;stroke-dasharray:none"
       id="rect7586"
       width="58.802067"
       height="67.313103"
       x="150.93335"
       y="90.520996"
       ry="2.3039474" />
    <g
       id="path7588">
      <path
         style="color:#000000;fill:#000000;stroke-width:0.529167;stroke-linecap:square;-inkscape-stroke:none"
         d="M 157.20563,149.85099 V 100.38336"
         id="path9643" />
      <path
         style="color:#000000;fill:#000000;stroke-linecap:square;-inkscape-stroke:none"
         d="m 156.94141,100.11914 v 0.26367 49.46875 0.26367 h 0.52929 v -0.26367 -49.46875 -0.26367 z"
         id="path9645" />
      <g
         id="g9635">
        <path
           style="color:#000000;fill:#000000;-inkscape-stroke:none"
           d="m 157.20508,99.876953 -1.77344,1.775387 0.37305,0.37305 1.40039,-1.40039 1.40039,1.40039 0.375,-0.37305 z"
           id="path9637" />
      </g>
    </g>
    <g
       id="path7590">
      <path
         style="color:#000000;fill:#000000;stroke-width:0.529167;stroke-linecap:square;-inkscape-stroke:none"
         d="m 157.20563,149.85099 h 49.46763"
         id="path9657" />
      <path
         style="color:#000000;fill:#000000;stroke-linecap:square;-inkscape-stroke:none"
         d="m 156.94141,149.58594 v 0.52929 h 0.26367 49.46875 0.26367 v -0.52929 h -0.26367 -49.46875 z"
         id="path9659" />
      <g
         id="g9649">
        <path
           style="color:#000000;fill:#000000;-inkscape-stroke:none"
           d="m 205.4043,148.07617 -0.37305,0.375 1.40039,1.40039 -1.40039,1.40039 0.37305,0.37305 1.77539,-1.77344 z"
           id="path9651" />
      </g>
    </g>
    <g
       aria-label="Q"
       id="text7882"
       style="font-size:4.23333px;font-family:Montserrat;-inkscape-font-specification:Montserrat;text-align:center;text-anchor:middle;stroke-width:0.529167;stroke-linecap:square">
      <path
         d="m 204.3949,146.63426 q -0.33444,0 -0.6223,-0.11007 -0.28364,-0.1143 -0.4953,-0.3175 -0.20744,-0.20743 -0.32597,-0.47837 -0.1143,-0.27516 -0.1143,-0.60113 0,-0.32597 0.1143,-0.5969 0.11853,-0.27517 0.32597,-0.47836 0.21166,-0.20744 0.4953,-0.3175 0.28363,-0.1143 0.6223,-0.1143 0.33443,0 0.61806,0.1143 0.28363,0.11006 0.49107,0.31326 0.21166,0.2032 0.32596,0.47837 0.11854,0.27516 0.11854,0.60113 0,0.32597 -0.11854,0.60113 -0.1143,0.27517 -0.32596,0.47837 -0.20744,0.2032 -0.49107,0.3175 -0.28363,0.11007 -0.61806,0.11007 z m 0.96943,0.56303 q -0.13547,0 -0.26247,-0.0339 -0.127,-0.0339 -0.25823,-0.11006 -0.127,-0.072 -0.26247,-0.1905 -0.13546,-0.11854 -0.29633,-0.28787 l 0.3429,-0.0847 q 0.13123,0.15664 0.254,0.25824 0.127,0.1016 0.24553,0.14816 0.12277,0.0508 0.2413,0.0508 0.3302,0 0.56303,-0.27093 l 0.1524,0.18203 q -0.2794,0.33867 -0.71966,0.33867 z m -0.96943,-0.84243 q 0.2667,0 0.49106,-0.0889 0.2286,-0.0931 0.3937,-0.26247 0.16933,-0.16933 0.26247,-0.38947 0.0931,-0.22436 0.0931,-0.48683 0,-0.2667 -0.0931,-0.48683 -0.0931,-0.22437 -0.26247,-0.38947 -0.1651,-0.16933 -0.3937,-0.25823 -0.22436,-0.0931 -0.49106,-0.0931 -0.2667,0 -0.4953,0.0931 -0.2286,0.0889 -0.39794,0.25823 -0.1651,0.1651 -0.26246,0.38947 -0.0931,0.22013 -0.0931,0.48683 0,0.26247 0.0931,0.48683 0.0974,0.22014 0.26246,0.38947 0.16934,0.16933 0.39794,0.26247 0.2286,0.0889 0.4953,0.0889 z"
         id="path9373" />
    </g>
    <g
       aria-label="H"
       id="text7886"
       style="font-size:4.23333px;font-family:Montserrat;-inkscape-font-specification:Montserrat;text-align:center;text-anchor:middle;stroke-width:0.529167;stroke-linecap:square">
      <path
         d="m 161.92026,96.913561 h 0.30903 v 2.963331 h -0.30903 z m -1.8542,2.963331 h -0.31327 v -2.963331 h 0.31327 z m 1.88383,-1.367365 h -1.9177 V 98.23436 h 1.9177 z"
         id="path9378" />
    </g>
    <rect
       style="fill:none;stroke:#000000;stroke-width:0.264583;stroke-linecap:square;stroke-dasharray:none"
       id="rect8762"
       width="24.719898"
       height="14.509476"
       x="181.16368"
       y="100.45322" />
    <path
       style="fill:none;stroke:#44aa00;stroke-width:0.529167;stroke-linecap:square;stroke-dasharray:none"
       d="m 197.71645,102.83164 h 5.47696"
       id="path8764" />
    <path
       style="fill:none;stroke:#0000ff;stroke-width:0.529167;stroke-linecap:square;stroke-dasharray:none"
       d="m 197.71645,107.70937 h 5.47696"
       id="path8766" />
    <path
       style="fill:none;stroke:#ff2a2a;stroke-width:0.529167;stroke-linecap:square;stroke-dasharray:none"
       d="m 197.71645,112.58569 h 5.47696"
       id="path8768" />
    <g
       aria-label="Série"
       id="text8824"
       style="font-size:2.82222px;font-family:Montserrat;-inkscape-font-specification:Montserrat;text-align:center;text-anchor:middle;fill:none;stroke:#ff2a2a;stroke-width:0.264583;stroke-linecap:square">
      <path
         d="m 184.45535,103.88715 q -0.22014,0 -0.42334,-0.0706 -0.20037,-0.0734 -0.31044,-0.18626 l 0.0818,-0.16087 q 0.10443,0.1016 0.2794,0.17216 0.1778,0.0677 0.37254,0.0677 0.18626,0 0.30198,-0.0452 0.11853,-0.048 0.17215,-0.127 0.0564,-0.079 0.0564,-0.17497 0,-0.11571 -0.0677,-0.18627 -0.0649,-0.0706 -0.17215,-0.11007 -0.10725,-0.0423 -0.23707,-0.0734 -0.12982,-0.031 -0.25964,-0.0649 -0.12983,-0.0367 -0.23989,-0.096 -0.10725,-0.0593 -0.17498,-0.15522 -0.0649,-0.0988 -0.0649,-0.25682 0,-0.14676 0.0762,-0.26812 0.079,-0.12417 0.23989,-0.19755 0.16086,-0.0762 0.41204,-0.0762 0.16651,0 0.3302,0.048 0.16369,0.0452 0.28222,0.127 l -0.0705,0.16651 q -0.127,-0.0847 -0.27094,-0.12418 -0.14111,-0.0395 -0.27375,-0.0395 -0.1778,0 -0.29351,0.048 -0.11571,0.048 -0.17216,0.12982 -0.0536,0.079 -0.0536,0.18062 0,0.11571 0.0649,0.18627 0.0677,0.0706 0.17498,0.11006 0.11007,0.0395 0.23989,0.0706 0.12982,0.031 0.25682,0.0677 0.12982,0.0367 0.23707,0.096 0.11006,0.0564 0.17497,0.1524 0.0677,0.096 0.0677,0.25118 0,0.14393 -0.079,0.26811 -0.079,0.12135 -0.24271,0.19755 -0.16086,0.0734 -0.41486,0.0734 z"
         style="fill:#000000;stroke:none"
         id="path9383" />
      <path
         d="m 186.23335,103.88433 q -0.23143,0 -0.4064,-0.096 -0.17498,-0.0988 -0.27376,-0.26811 -0.0988,-0.17215 -0.0988,-0.39229 0,-0.22013 0.0931,-0.38946 0.0959,-0.16934 0.25964,-0.26529 0.16651,-0.0988 0.37253,-0.0988 0.20885,0 0.36971,0.096 0.16369,0.0931 0.25683,0.26528 0.0931,0.16934 0.0931,0.39229 0,0.0141 -0.003,0.031 0,0.0141 0,0.031 h -1.28976 v -0.14958 h 1.18251 l -0.079,0.0593 q 0,-0.16087 -0.0705,-0.28504 -0.0677,-0.127 -0.18627,-0.19756 -0.11853,-0.0705 -0.27376,-0.0705 -0.1524,0 -0.27375,0.0705 -0.12136,0.0706 -0.18909,0.19756 -0.0677,0.127 -0.0677,0.29068 v 0.031 q 0,0.16933 0.0734,0.29915 0.0762,0.127 0.20885,0.20038 0.13546,0.0706 0.30762,0.0706 0.13547,0 0.25118,-0.048 0.11853,-0.048 0.2032,-0.14676 l 0.11289,0.12983 q -0.0988,0.11853 -0.24836,0.18062 -0.14675,0.0621 -0.32455,0.0621 z m -0.23989,-1.7272 0.38664,-0.34996 h 0.26811 l -0.4572,0.34996 z"
         style="fill:#000000;stroke:none"
         id="path9385" />
      <path
         d="m 187.30861,103.87022 v -1.48167 h 0.19191 v 0.40358 l -0.0198,-0.0706 q 0.0621,-0.16933 0.20885,-0.25682 0.14675,-0.0903 0.36406,-0.0903 v 0.19473 q -0.0113,0 -0.0226,0 -0.0113,-0.003 -0.0226,-0.003 -0.23425,0 -0.36689,0.14393 -0.13265,0.14111 -0.13265,0.40358 v 0.75636 z"
         style="fill:#000000;stroke:none"
         id="path9387" />
      <path
         d="m 188.41849,103.87022 v -1.48167 h 0.20037 v 1.48167 z m 0.1016,-1.80905 q -0.0621,0 -0.10443,-0.0423 -0.0423,-0.0423 -0.0423,-0.1016 0,-0.0593 0.0423,-0.0988 0.0423,-0.0423 0.10443,-0.0423 0.0621,0 0.10442,0.0395 0.0423,0.0395 0.0423,0.0988 0,0.0621 -0.0423,0.10442 -0.0395,0.0423 -0.10442,0.0423 z"
         style="fill:#000000;stroke:none"
         id="path9389" />
      <path
         d="m 189.80702,103.88433 q -0.23143,0 -0.4064,-0.096 -0.17498,-0.0988 -0.27376,-0.26811 -0.0988,-0.17215 -0.0988,-0.39229 0,-0.22013 0.0931,-0.38946 0.096,-0.16934 0.25964,-0.26529 0.16651,-0.0988 0.37253,-0.0988 0.20885,0 0.36971,0.096 0.16369,0.0931 0.25683,0.26528 0.0931,0.16934 0.0931,0.39229 0,0.0141 -0.003,0.031 0,0.0141 0,0.031 h -1.28976 v -0.14958 h 1.18251 l -0.079,0.0593 q 0,-0.16087 -0.0705,-0.28504 -0.0677,-0.127 -0.18627,-0.19756 -0.11853,-0.0705 -0.27376,-0.0705 -0.1524,0 -0.27375,0.0705 -0.12136,0.0706 -0.18909,0.19756 -0.0677,0.127 -0.0677,0.29068 v 0.031 q 0,0.16933 0.0734,0.29915 0.0762,0.127 0.20885,0.20038 0.13546,0.0706 0.30762,0.0706 0.13547,0 0.25118,-0.048 0.11853,-0.048 0.2032,-0.14676 l 0.11289,0.12983 q -0.0988,0.11853 -0.24836,0.18062 -0.14675,0.0621 -0.32455,0.0621 z"
         style="fill:#000000;stroke:none"
         id="path9391" />
    </g>
    <g
       aria-label="Paralléle"
       id="text8828"
       style="font-size:2.82222px;font-family:Montserrat;-inkscape-font-specification:Montserrat;text-align:center;text-anchor:middle;stroke-width:0.264583;stroke-linecap:square">
      <path
         d="m 183.72158,108.74936 v -1.97555 h 0.73942 q 0.25118,0 0.4318,0.0818 0.18062,0.079 0.27658,0.23142 0.0988,0.14958 0.0988,0.36407 0,0.20884 -0.0988,0.36124 -0.096,0.14958 -0.27658,0.23142 -0.18062,0.0818 -0.4318,0.0818 h -0.62371 l 0.0931,-0.0988 v 0.72249 z m 0.20884,-0.70556 -0.0931,-0.1016 h 0.61807 q 0.29633,0 0.44873,-0.127 0.15522,-0.12982 0.15522,-0.36406 0,-0.23707 -0.15522,-0.36689 -0.1524,-0.12982 -0.44873,-0.12982 h -0.61807 l 0.0931,-0.0988 z"
         id="path9404" />
      <path
         d="m 186.59177,108.74936 v -0.32738 l -0.008,-0.0536 v -0.54751 q 0,-0.18909 -0.10724,-0.29069 -0.10443,-0.1016 -0.31327,-0.1016 -0.14393,0 -0.27375,0.048 -0.12983,0.048 -0.22014,0.127 l -0.0903,-0.14958 q 0.11289,-0.096 0.27093,-0.14676 0.15805,-0.0536 0.33303,-0.0536 0.28786,0 0.44308,0.14394 0.15805,0.14111 0.15805,0.4318 v 0.92004 z m -0.51082,0.0141 q -0.16651,0 -0.29069,-0.0536 -0.12136,-0.0564 -0.18627,-0.1524 -0.0649,-0.0988 -0.0649,-0.22578 0,-0.11571 0.0536,-0.20884 0.0564,-0.096 0.18062,-0.1524 0.127,-0.0593 0.33867,-0.0593 h 0.51082 v 0.14958 h -0.50517 q -0.21449,0 -0.29916,0.0762 -0.0818,0.0762 -0.0818,0.18909 0,0.127 0.0988,0.2032 0.0988,0.0762 0.27658,0.0762 0.16933,0 0.29069,-0.0762 0.12418,-0.079 0.18062,-0.22578 l 0.0452,0.13829 q -0.0564,0.14675 -0.19756,0.23424 -0.13829,0.0875 -0.34995,0.0875 z"
         id="path9406" />
      <path
         d="m 187.32836,108.74936 v -1.48167 h 0.19191 v 0.40358 l -0.0198,-0.0706 q 0.0621,-0.16934 0.20884,-0.25683 0.14676,-0.0903 0.36407,-0.0903 v 0.19474 q -0.0113,0 -0.0226,0 -0.0113,-0.003 -0.0226,-0.003 -0.23424,0 -0.36689,0.14394 -0.13264,0.14111 -0.13264,0.40357 v 0.75636 z"
         id="path9408" />
      <path
         d="m 189.25546,108.74936 v -0.32738 l -0.008,-0.0536 v -0.54751 q 0,-0.18909 -0.10724,-0.29069 -0.10442,-0.1016 -0.31327,-0.1016 -0.14393,0 -0.27375,0.048 -0.12983,0.048 -0.22014,0.127 l -0.0903,-0.14958 q 0.11289,-0.096 0.27094,-0.14676 0.15804,-0.0536 0.33302,-0.0536 0.28786,0 0.44309,0.14394 0.15804,0.14111 0.15804,0.4318 v 0.92004 z m -0.51082,0.0141 q -0.16651,0 -0.29069,-0.0536 -0.12136,-0.0564 -0.18627,-0.1524 -0.0649,-0.0988 -0.0649,-0.22578 0,-0.11571 0.0536,-0.20884 0.0564,-0.096 0.18063,-0.1524 0.127,-0.0593 0.33866,-0.0593 h 0.51082 v 0.14958 h -0.50517 q -0.21449,0 -0.29916,0.0762 -0.0818,0.0762 -0.0818,0.18909 0,0.127 0.0988,0.2032 0.0988,0.0762 0.27658,0.0762 0.16934,0 0.29069,-0.0762 0.12418,-0.079 0.18062,-0.22578 l 0.0452,0.13829 q -0.0564,0.14675 -0.19756,0.23424 -0.13829,0.0875 -0.34995,0.0875 z"
         id="path9410" />
      <path
         d="m 189.99205,108.74936 v -2.09409 h 0.20038 v 2.09409 z"
         id="path9412" />
      <path
         d="m 190.75123,108.74936 v -2.09409 h 0.20038 v 2.09409 z"
         id="path9414" />
      <path
         d="m 192.13976,108.76347 c -0.15428,0 -0.28975,-0.032 -0.4064,-0.096 -0.11665,-0.0659 -0.20791,-0.15524 -0.27376,-0.26811 -0.0659,-0.11477 -0.0988,-0.24553 -0.0988,-0.39228 0,-0.14676 0.031,-0.27658 0.0931,-0.38947 0.064,-0.11289 0.15055,-0.20132 0.25964,-0.26529 0.11101,-0.0659 0.23519,-0.0988 0.37254,-0.0988 0.13923,0 0.26246,0.032 0.36971,0.096 0.10913,0.0621 0.19473,0.1505 0.25682,0.26529 0.0621,0.11289 0.0931,0.24365 0.0931,0.39229 0,0.009 -0.001,0.0197 -0.003,0.031 v 0.031 h -1.28975 v -0.14957 h 1.18251 l -0.079,0.0593 c 0,-0.10724 -0.0235,-0.20225 -0.0706,-0.28504 -0.0451,-0.0847 -0.10722,-0.15052 -0.18627,-0.19756 -0.079,-0.047 -0.17027,-0.0705 -0.27375,-0.0705 -0.1016,0 -0.19285,0.0235 -0.27376,0.0705 -0.0809,0.0471 -0.14393,0.11292 -0.18909,0.19756 -0.0451,0.0847 -0.0677,0.18156 -0.0677,0.29069 v 0.031 c 0,0.11289 0.0245,0.21261 0.0734,0.29916 0.0508,0.0847 0.12041,0.15146 0.20884,0.20037 0.0903,0.0471 0.19285,0.0706 0.30762,0.0706 0.0903,0 0.17404,-0.016 0.25118,-0.048 0.079,-0.032 0.14675,-0.0809 0.2032,-0.14675 l 0.11289,0.12982 c -0.0659,0.079 -0.14865,0.13923 -0.24836,0.18062 -0.0978,0.0414 -0.20602,0.0621 -0.32455,0.0621 z m -0.23989,-2.07715 0.38664,0.34995 h 0.26812 l -0.4572,-0.34995 z"
         id="path9416"
         sodipodi:nodetypes="cccsccsccscccccccsscsssccsccccccccccc" />
      <path
         d="m 193.21502,108.74936 v -2.09409 h 0.20038 v 2.09409 z"
         id="path9418" />
      <path
         d="m 194.60355,108.76347 q -0.23142,0 -0.4064,-0.096 -0.17498,-0.0988 -0.27376,-0.26811 -0.0988,-0.17215 -0.0988,-0.39228 0,-0.22014 0.0931,-0.38947 0.096,-0.16933 0.25964,-0.26529 0.16652,-0.0988 0.37254,-0.0988 0.20884,0 0.36971,0.096 0.16369,0.0931 0.25682,0.26529 0.0931,0.16933 0.0931,0.39229 0,0.0141 -0.003,0.031 0,0.0141 0,0.031 h -1.28975 v -0.14957 h 1.18251 l -0.079,0.0593 q 0,-0.16086 -0.0705,-0.28504 -0.0677,-0.127 -0.18627,-0.19756 -0.11853,-0.0705 -0.27375,-0.0705 -0.1524,0 -0.27376,0.0705 -0.12135,0.0706 -0.18909,0.19756 -0.0677,0.127 -0.0677,0.29069 v 0.031 q 0,0.16934 0.0734,0.29916 0.0762,0.127 0.20884,0.20037 0.13547,0.0706 0.30762,0.0706 0.13547,0 0.25118,-0.048 0.11853,-0.048 0.2032,-0.14675 l 0.11289,0.12982 q -0.0988,0.11853 -0.24836,0.18062 -0.14675,0.0621 -0.32455,0.0621 z"
         id="path9420" />
    </g>
    <g
       aria-label="Rien"
       id="text8832"
       style="font-size:2.82222px;font-family:Montserrat;-inkscape-font-specification:Montserrat;text-align:center;text-anchor:middle;stroke-width:0.264583;stroke-linecap:square">
      <path
         d="m 183.72158,113.62568 v -1.97556 h 0.73942 q 0.25118,0 0.4318,0.0819 0.18062,0.079 0.27658,0.23142 0.0988,0.14958 0.0988,0.36407 0,0.20884 -0.0988,0.36124 -0.096,0.14958 -0.27658,0.23142 -0.18062,0.079 -0.4318,0.079 h -0.62371 l 0.0931,-0.096 v 0.72249 z m 1.34902,0 -0.508,-0.71684 h 0.22578 l 0.51082,0.71684 z m -1.14018,-0.70556 -0.0931,-0.0988 h 0.61807 q 0.29633,0 0.44873,-0.12983 0.15522,-0.12982 0.15522,-0.36406 0,-0.23707 -0.15522,-0.36689 -0.1524,-0.12982 -0.44873,-0.12982 h -0.61807 l 0.0931,-0.0988 z"
         id="path9441" />
      <path
         d="m 185.71971,113.62568 v -1.48167 h 0.20038 v 1.48167 z m 0.1016,-1.80904 q -0.0621,0 -0.10442,-0.0423 -0.0423,-0.0423 -0.0423,-0.1016 0,-0.0593 0.0423,-0.0988 0.0423,-0.0423 0.10442,-0.0423 0.0621,0 0.10442,0.0395 0.0423,0.0395 0.0423,0.0988 0,0.0621 -0.0423,0.10442 -0.0395,0.0423 -0.10442,0.0423 z"
         id="path9443" />
      <path
         d="m 187.10824,113.63979 q -0.23142,0 -0.4064,-0.096 -0.17498,-0.0988 -0.27376,-0.26811 -0.0988,-0.17215 -0.0988,-0.39228 0,-0.22014 0.0931,-0.38947 0.096,-0.16933 0.25964,-0.26529 0.16651,-0.0988 0.37254,-0.0988 0.20884,0 0.36971,0.096 0.16369,0.0931 0.25682,0.26529 0.0931,0.16933 0.0931,0.39229 0,0.0141 -0.003,0.031 0,0.0141 0,0.031 h -1.28975 v -0.14957 h 1.18251 l -0.079,0.0593 q 0,-0.16086 -0.0705,-0.28504 -0.0677,-0.127 -0.18627,-0.19756 -0.11853,-0.0705 -0.27375,-0.0705 -0.1524,0 -0.27376,0.0705 -0.12135,0.0706 -0.18909,0.19756 -0.0677,0.127 -0.0677,0.29069 v 0.031 q 0,0.16933 0.0734,0.29916 0.0762,0.127 0.20884,0.20037 0.13547,0.0706 0.30762,0.0706 0.13547,0 0.25118,-0.048 0.11853,-0.048 0.2032,-0.14675 l 0.11289,0.12982 q -0.0988,0.11853 -0.24836,0.18062 -0.14675,0.0621 -0.32455,0.0621 z"
         id="path9445" />
      <path
         d="m 188.93985,112.1299 q 0.18063,0 0.31609,0.0706 0.13829,0.0677 0.21449,0.20884 0.079,0.14111 0.079,0.3556 v 0.86078 h -0.20037 v -0.84102 q 0,-0.23425 -0.11854,-0.35278 -0.11571,-0.12136 -0.32737,-0.12136 -0.15805,0 -0.27658,0.0649 -0.11571,0.0621 -0.18062,0.18344 -0.0621,0.11853 -0.0621,0.28787 v 0.77893 h -0.20038 v -1.48167 h 0.19191 v 0.4064 l -0.031,-0.0762 q 0.0705,-0.16086 0.22577,-0.25117 0.15523,-0.0931 0.36971,-0.0931 z"
         id="path9447" />
    </g>
    <g
       id="path9055">
      <path
         style="color:#000000;fill:#000000;stroke-width:0.79375;stroke-linecap:square;-inkscape-stroke:none"
         d="M 59.066652,124.17755 H 82.872827"
         id="path9615" />
      <path
         style="color:#000000;fill:#000000;stroke-linecap:square;-inkscape-stroke:none"
         d="m 58.669922,123.78125 v 0.79297 h 0.396484 23.806641 0.396484 v -0.79297 H 82.873047 59.066406 Z"
         id="path9617" />
      <g
         id="g9607">
        <path
           style="color:#000000;fill:#000000;-inkscape-stroke:none"
           d="m 80.970703,121.51563 -0.560547,0.56054 2.09961,2.10156 -2.09961,2.09961 0.560547,0.5625 2.662109,-2.66211 z"
           id="path9609" />
      </g>
    </g>
    <g
       id="path9057">
      <path
         style="color:#000000;fill:#000000;stroke-width:0.79375;stroke-linecap:square;-inkscape-stroke:none"
         d="m 126.35482,123.51725 h 23.81501"
         id="path9629" />
      <path
         style="color:#000000;fill:#000000;stroke-linecap:square;-inkscape-stroke:none"
         d="m 125.95703,123.12109 v 0.79297 h 0.39844 23.81445 0.39649 v -0.79297 h -0.39649 -23.81445 z"
         id="path9631" />
      <g
         id="g9621">
        <path
           style="color:#000000;fill:#000000;-inkscape-stroke:none"
           d="m 148.26758,120.85547 -0.56055,0.56055 2.09961,2.10156 -2.09961,2.09961 0.56055,0.5625 2.66211,-2.66211 z"
           id="path9623" />
      </g>
    </g>
    <g
       aria-label="P1"
       id="text408"
       style="font-size:3.0554px;font-family:Montserrat;-inkscape-font-specification:Montserrat;text-align:center;text-anchor:middle;stroke-width:0.793751;stroke-linecap:square">
      <path
         d="m 19.694823,97.652985 v -2.13878 h 0.800514 q 0.271931,0 0.467477,0.08861 0.195545,0.08555 0.299429,0.250543 0.106939,0.161936 0.106939,0.394147 0,0.226099 -0.106939,0.391091 -0.103884,0.161936 -0.299429,0.250543 -0.195546,0.08861 -0.467477,0.08861 h -0.675243 l 0.100828,-0.106939 v 0.782183 z m 0.226099,-0.76385 -0.100828,-0.109995 h 0.669133 q 0.320817,0 0.485808,-0.137493 0.168047,-0.140548 0.168047,-0.394146 0,-0.256654 -0.168047,-0.397202 -0.164991,-0.140549 -0.485808,-0.140549 h -0.669133 l 0.100828,-0.106939 z"
         id="path530" />
      <path
         d="m 22.071919,97.652985 v -2.047118 l 0.09777,0.103883 h -0.601914 v -0.195545 h 0.72413 v 2.13878 z"
         id="path532" />
    </g>
    <g
       aria-label="P1"
       id="text516"
       style="font-size:3.0554px;font-family:Montserrat;-inkscape-font-specification:Montserrat;text-align:center;text-anchor:middle;stroke-width:0.793751;stroke-linecap:square">
      <path
         d="m 19.694823,112.51138 v -2.13878 h 0.800514 q 0.271931,0 0.467477,0.0886 0.195545,0.0856 0.299429,0.25054 0.106939,0.16194 0.106939,0.39415 0,0.2261 -0.106939,0.39109 -0.103884,0.16194 -0.299429,0.25054 -0.195546,0.0886 -0.467477,0.0886 h -0.675243 l 0.100828,-0.10694 v 0.78218 z m 0.226099,-0.76385 -0.100828,-0.10999 h 0.669133 q 0.320817,0 0.485808,-0.13749 0.168047,-0.14055 0.168047,-0.39415 0,-0.25665 -0.168047,-0.3972 -0.164991,-0.14055 -0.485808,-0.14055 h -0.669133 l 0.100828,-0.10694 z"
         id="path539" />
      <path
         d="m 22.071919,112.51138 v -2.04711 l 0.09777,0.10388 h -0.601914 v -0.19555 h 0.72413 v 2.13878 z"
         id="path541" />
    </g>
    <g
       aria-label="P1"
       id="text520"
       style="font-size:3.0554px;font-family:Montserrat;-inkscape-font-specification:Montserrat;text-align:center;text-anchor:middle;stroke-width:0.793751;stroke-linecap:square">
      <path
         d="M 29.684042,127.93878 V 125.8 h 0.800515 q 0.271931,0 0.467476,0.0886 0.195546,0.0855 0.299429,0.25054 0.106939,0.16194 0.106939,0.39415 0,0.2261 -0.106939,0.39109 -0.103883,0.16194 -0.299429,0.25054 -0.195545,0.0886 -0.467476,0.0886 h -0.675243 l 0.100828,-0.10694 v 0.78218 z m 0.2261,-0.76385 -0.100828,-0.10999 h 0.669132 q 0.320817,0 0.485809,-0.1375 0.168047,-0.14054 0.168047,-0.39414 0,-0.25666 -0.168047,-0.3972 -0.164992,-0.14055 -0.485809,-0.14055 h -0.669132 l 0.100828,-0.10694 z"
         id="path557" />
      <path
         d="m 32.061139,127.93878 v -2.04712 l 0.09777,0.10389 H 31.556998 V 125.8 h 0.72413 v 2.13878 z"
         id="path559" />
    </g>
    <g
       aria-label="P2"
       id="text524"
       style="font-size:3.0554px;font-family:Montserrat;-inkscape-font-specification:Montserrat;text-align:center;text-anchor:middle;stroke-width:0.793751;stroke-linecap:square">
      <path
         d="m 29.383027,140.70357 v -2.13878 h 0.800515 q 0.271931,0 0.467476,0.0886 0.195546,0.0856 0.299429,0.25055 0.106939,0.16193 0.106939,0.39414 0,0.2261 -0.106939,0.39109 -0.103883,0.16194 -0.299429,0.25055 -0.195545,0.0886 -0.467476,0.0886 h -0.675243 l 0.100828,-0.10693 v 0.78218 z m 0.2261,-0.76385 -0.100828,-0.11 h 0.669132 q 0.320817,0 0.485809,-0.13749 0.168047,-0.14055 0.168047,-0.39415 0,-0.25665 -0.168047,-0.3972 -0.164992,-0.14055 -0.485809,-0.14055 h -0.669132 l 0.100828,-0.10694 z"
         id="path566" />
      <path
         d="m 31.332365,140.70357 v -0.15583 l 0.889121,-0.87079 q 0.122216,-0.11916 0.183324,-0.20776 0.06111,-0.0917 0.0825,-0.17111 0.02139,-0.0794 0.02139,-0.14971 0,-0.18638 -0.128327,-0.29332 -0.125272,-0.10694 -0.372759,-0.10694 -0.189435,0 -0.336094,0.0581 -0.143604,0.0581 -0.247487,0.18027 L 31.268201,138.852 q 0.125272,-0.14666 0.320817,-0.2261 0.195546,-0.0794 0.436922,-0.0794 0.216934,0 0.375815,0.0703 0.15888,0.0672 0.244432,0.1986 0.08861,0.13138 0.08861,0.3086 0,0.10388 -0.03055,0.20471 -0.0275,0.10083 -0.103883,0.21388 -0.07333,0.10999 -0.216934,0.25054 l -0.815792,0.80051 -0.06111,-0.0856 h 1.326044 v 0.19555 z"
         id="path568" />
    </g>
    <g
       aria-label="P2"
       id="text528"
       style="font-size:3.0554px;font-family:Montserrat;-inkscape-font-specification:Montserrat;text-align:center;text-anchor:middle;stroke-width:0.793751;stroke-linecap:square">
      <path
         d="m 32.705138,112.52972 v -2.13878 h 0.800515 q 0.271931,0 0.467476,0.0886 0.195546,0.0855 0.29943,0.25055 0.106939,0.16193 0.106939,0.39414 0,0.2261 -0.106939,0.39109 -0.103884,0.16194 -0.29943,0.25055 -0.195545,0.0886 -0.467476,0.0886 H 32.83041 l 0.100828,-0.10694 v 0.78219 z m 0.2261,-0.76385 -0.100828,-0.11 h 0.669132 q 0.320817,0 0.485809,-0.13749 0.168047,-0.14055 0.168047,-0.39415 0,-0.25665 -0.168047,-0.3972 -0.164992,-0.14055 -0.485809,-0.14055 H 32.83041 l 0.100828,-0.10694 z"
         id="path548" />
      <path
         d="m 34.654476,112.52972 v -0.15583 l 0.889121,-0.87079 q 0.122216,-0.11916 0.183324,-0.20777 0.06111,-0.0917 0.0825,-0.1711 0.02139,-0.0794 0.02139,-0.14971 0,-0.18638 -0.128327,-0.29332 -0.125272,-0.10694 -0.372759,-0.10694 -0.189435,0 -0.336094,0.0581 -0.143604,0.0581 -0.247487,0.18027 l -0.155826,-0.13444 q 0.125272,-0.14666 0.320817,-0.2261 0.195546,-0.0794 0.436922,-0.0794 0.216934,0 0.375815,0.0703 0.15888,0.0672 0.244432,0.1986 0.08861,0.13138 0.08861,0.30859 0,0.10389 -0.03055,0.20472 -0.0275,0.10082 -0.103883,0.21387 -0.07333,0.11 -0.216934,0.25055 l -0.815792,0.80051 -0.06111,-0.0855 h 1.326044 v 0.19555 z"
         id="path550" />
    </g>
  </g>
</svg>
